<?xml version="1.0" encoding="UTF-8"?>
<svg xmlns="http://www.w3.org/2000/svg" style="stroke-dasharray:none; shape-rendering:auto; font-family:'Arial'; text-rendering:auto; fill-opacity:1; color-interpolation:auto; color-rendering:auto; font-size:12; fill:black; stroke:black; image-rendering:auto; stroke-miterlimit:10; stroke-linecap:square; stroke-linejoin:miter; font-style:normal; stroke-width:1; stroke-dashoffset:0; font-weight:normal; stroke-opacity:1;" contentScriptType="text/ecmascript" preserveAspectRatio="xMidYMid meet" zoomAndPan="magnify" version="1.0" contentStyleType="text/css" xml:xlink="http://www.w3.org/1999/xlink" width="1791" height="627"><rect x="10" y="482" width="1781" height="145" ry="0" rx="0" style="stroke:#000000; fill:#FFFF80" /><g componentSequence="7"><text x="-554" y="17" transform="rotate(270)" text-anchor="middle" style="font-weight:bold;font-size:10px;stroke:none; fill:#434343"><tspan dy="14" x="-554">Gerencia de Comp. y Ad...</tspan></text></g><rect x="10" y="338" width="1781" height="145" ry="0" rx="0" style="stroke:#000000; fill:#FFFDD7" /><g componentSequence="6"><text x="-410" y="17" transform="rotate(270)" text-anchor="middle" style="font-weight:bold;font-size:10px;stroke:none; fill:#434343"><tspan dy="14" x="-410">Selección de Personal</tspan></text></g><rect x="10" y="194" width="1781" height="145" ry="0" rx="0" style="stroke:#000000; fill:#FFFF80" /><g componentSequence="5"><text x="-266" y="17" transform="rotate(270)" text-anchor="middle" style="font-weight:bold;font-size:10px;stroke:none; fill:#434343"><tspan dy="14" x="-266">Área Solicitante</tspan></text></g><rect x="10" y="50" width="1781" height="145" ry="0" rx="0" style="stroke:#000000; fill:#FFFFFF" /><g componentSequence="4"><text x="-122" y="17" transform="rotate(270)" text-anchor="middle" style="font-weight:bold;font-size:10px;stroke:none; fill:#434343"><tspan dy="14" x="-122">Gerencia de RRHH</tspan></text></g><g sequence="8"><ellipse cx="77" cy="281" rx="17" ry="17" stroke-width="1" style="fill:url(#linearGradient66FF6696FF96B6FFB6_177285928);" stroke="336633" /></g><g sequence="9"><rect x="120" y="377" width="106" height="70" ry="5" rx="5" style="fill:url(#linearGradientF8FBFEEDF5FCDEEDFAD4E7F8E2E5E9_1084773507);" stroke="191970" /></g><g componentSequence="9"><text x="173" y="392" text-anchor="middle" style="font-weight:bold;font-size:10px;stroke:none; fill:#333399"><tspan dy="14" x="173">Revisar y</tspan><tspan dy="14" x="173">Relevar Perfil</tspan></text></g><g sequence="10"><rect x="220" y="514" width="106" height="84" ry="5" rx="5" style="fill:url(#linearGradientF8FBFEEDF5FCDEEDFAD4E7F8E2E5E9_1799652766);" stroke="191970" /></g><g componentSequence="10"><text x="273" y="529" text-anchor="middle" style="font-weight:bold;font-size:10px;stroke:none; fill:#333399"><tspan dy="14" x="273">Completar</tspan><tspan dy="14" x="273">Remuneraciones</tspan><tspan dy="14" x="273">y Beneficios</tspan></text></g><g sequence="11"><rect x="380" y="370" width="106" height="84" ry="5" rx="5" style="fill:url(#linearGradientF8FBFEEDF5FCDEEDFAD4E7F8E2E5E9_1604353814);" stroke="191970" /></g><g componentSequence="11"><text x="433" y="385" text-anchor="middle" style="font-weight:bold;font-size:10px;stroke:none; fill:#333399"><tspan dy="14" x="433">Revisar y</tspan><tspan dy="14" x="433">Confirmar Perfil</tspan></text></g><g sequence="12"><polygon points=" 410 96 440 66 470 96 440 126 410 96" style="fill:url(#linearGradientFAFBFCFFFFCC_569880166);" stroke="000000" /></g><g componentSequence="12"><text x="440" y="136" text-anchor="middle" style="font-weight:bold;font-size:10px;stroke:none; fill:#333399"><tspan dy="14" x="440">Requiere</tspan><tspan dy="14" x="440">Aprobac</tspan><tspan dy="14" x="440">ión Jefe?</tspan></text></g><g sequence="13"><rect x="610" y="226" width="106" height="84" ry="5" rx="5" style="fill:url(#linearGradientF8FBFEEDF5FCDEEDFAD4E7F8E2E5E9_198884342);" stroke="191970" /></g><g componentSequence="13"><text x="663" y="241" text-anchor="middle" style="font-weight:bold;font-size:10px;stroke:none; fill:#333399"><tspan dy="14" x="663">Aprobar</tspan><tspan dy="14" x="663">Solicitud de</tspan><tspan dy="14" x="663">Puesto (Jefe)</tspan></text></g><g sequence="14"><ellipse cx="737" cy="555" rx="17" ry="17" stroke-width="3" style="fill:url(#linearGradientFF6666FF9696FFB6B6_1164581262);" stroke="993333" /></g><rect x="800" y="570" width="141" height="55" ry="5" rx="5" style="stroke:none; fill:#FFFFE0" /><g componentSequence="15"><text x="810" y="593" text-anchor="left" style="font-weight:bold;font-size:10px;stroke:none; fill:#000000"><tspan dy="14" x="810">Solicitud de Puesto</tspan><tspan dy="14" x="810">Cancelada</tspan></text></g><path style="fill:none; stroke-width:1; stroke:#000000;" d="M820.0 570.0 L800.0 570.0 L800.0 625.0 L820.0 625.0" /><g sequence="16"><polygon points=" 820 96 850 66 880 96 850 126 820 96" style="fill:url(#linearGradientFAFBFCFFFFCC_951311676);" stroke="000000" /></g><g componentSequence="16"><text x="850" y="136" text-anchor="middle" style="font-weight:bold;font-size:10px;stroke:none; fill:#333399"><tspan dy="14" x="850">Requiere</tspan><tspan dy="14" x="850">Aprobac</tspan><tspan dy="14" x="850">ión G...</tspan></text></g><g sequence="18"><rect x="980" y="75" width="106" height="98" ry="5" rx="5" style="fill:url(#linearGradientF8FBFEEDF5FCDEEDFAD4E7F8E2E5E9_679586617);" stroke="191970" /></g><g componentSequence="18"><text x="1033" y="90" text-anchor="middle" style="font-weight:bold;font-size:10px;stroke:none; fill:#333399"><tspan dy="14" x="1033">Aprobar</tspan><tspan dy="14" x="1033">Solicitud de</tspan><tspan dy="14" x="1033">Puesto (Gte.</tspan><tspan dy="14" x="1033">RRHH)</tspan></text></g><g sequence="19"><rect x="1050" y="219" width="106" height="98" ry="5" rx="5" style="fill:url(#linearGradientF8FBFEEDF5FCDEEDFAD4E7F8E2E5E9_1494237173);" stroke="191970" /></g><g componentSequence="19"><text x="1103" y="234" text-anchor="middle" style="font-weight:bold;font-size:10px;stroke:none; fill:#333399"><tspan dy="14" x="1103">Aprobar</tspan><tspan dy="14" x="1103">Solicitud de</tspan><tspan dy="14" x="1103">Puesto (Gte. N-</tspan><tspan dy="14" x="1103">2)</tspan></text></g><g sequence="20"><rect x="980" y="370" width="106" height="84" ry="5" rx="5" style="fill:url(#linearGradientF8FBFEEDF5FCDEEDFAD4E7F8E2E5E9_970398593);" stroke="191970" /></g><g componentSequence="20"><text x="1033" y="385" text-anchor="middle" style="font-weight:bold;font-size:10px;stroke:none; fill:#333399"><tspan dy="14" x="1033">Cancelar</tspan><tspan dy="14" x="1033">Solicitud de</tspan><tspan dy="14" x="1033">Puesto</tspan></text></g><g sequence="21"><polygon points=" 1200 96 1230 66 1260 96 1230 126 1200 96" style="fill:url(#linearGradientFAFBFCFFFFCC_1498337233);" stroke="000000" /></g><g componentSequence="21"><text x="1230" y="136" text-anchor="middle" style="font-weight:bold;font-size:10px;stroke:none; fill:#333399"><tspan dy="14" x="1230">Requiere</tspan><tspan dy="14" x="1230">Aprobac</tspan><tspan dy="14" x="1230">ión G...</tspan></text></g><g sequence="22"><rect x="1280" y="219" width="106" height="98" ry="5" rx="5" style="fill:url(#linearGradientF8FBFEEDF5FCDEEDFAD4E7F8E2E5E9_1160630309);" stroke="191970" /></g><g componentSequence="22"><text x="1333" y="234" text-anchor="middle" style="font-weight:bold;font-size:10px;stroke:none; fill:#333399"><tspan dy="14" x="1333">Aprobar</tspan><tspan dy="14" x="1333">Solicitud de</tspan><tspan dy="14" x="1333">Puesto (Gte. N-</tspan><tspan dy="14" x="1333">1)</tspan></text></g><g sequence="23"><rect x="1620" y="219" width="106" height="98" ry="5" rx="5" style="fill:url(#linearGradientF8FBFEEDF5FCDEEDFAD4E7F8E2E5E9_1119637662);" stroke="191970" /></g><g componentSequence="23"><text x="1673" y="234" text-anchor="middle" style="font-weight:bold;font-size:10px;stroke:none; fill:#333399"><tspan dy="14" x="1673">Aprobar</tspan><tspan dy="14" x="1673">Solicitud de</tspan><tspan dy="14" x="1673">Puesto (Gte.</tspan><tspan dy="14" x="1673">Gral.)</tspan></text></g><g sequence="24"><rect x="1620" y="370" width="106" height="84" ry="5" rx="5" style="fill:url(#linearGradientF8FBFEEDF5FCDEEDFAD4E7F8E2E5E9_1498470220);" stroke="191970" /></g><g componentSequence="24"><text x="1673" y="385" text-anchor="middle" style="font-weight:bold;font-size:10px;stroke:none; fill:#333399"><tspan dy="14" x="1673">Realizar</tspan><tspan dy="14" x="1673">Proceso de</tspan><tspan dy="14" x="1673">Selección</tspan></text></g><g sequence="25"><ellipse cx="1767" cy="411" rx="17" ry="17" stroke-width="3" style="fill:url(#linearGradientFF6666FF9696FFB6B6_1248259171);" stroke="993333" /></g><g sequence="45"><polygon points=" 1490 96 1520 66 1550 96 1520 126 1490 96" style="fill:url(#linearGradientFAFBFCFFFFCC_724139454);" stroke="000000" /></g><g componentSequence="45"><text x="1520" y="136" text-anchor="middle" style="font-weight:bold;font-size:10px;stroke:none; fill:#333399"><tspan dy="14" x="1520">Requiere</tspan><tspan dy="14" x="1520">Aprobac</tspan><tspan dy="14" x="1520">ión G...</tspan></text></g><g componentSequence="17"><text x="787" y="568" style="font-size:10px;font-weight:none;stroke:none; fill:#333399" text-anchor="left" /></g><g componentSequence="26"><text x="182" y="290" style="font-size:10px;font-weight:none;stroke:none; fill:#333399" text-anchor="left" /></g><g componentSequence="27"><text x="182" y="525" style="font-size:10px;font-weight:none;stroke:none; fill:#333399" text-anchor="left" /></g><g componentSequence="28"><text x="483" y="488" style="font-size:10px;font-weight:none;stroke:none; fill:#333399" text-anchor="left" /></g><g componentSequence="29"><text x="363" y="484" style="font-size:10px;font-weight:none;stroke:none; fill:#333399" text-anchor="left" /></g><g componentSequence="30"><text x="440" y="556" style="font-size:10px;font-weight:none;stroke:none; fill:#333399" text-anchor="left" /></g><g componentSequence="31"><text x="684" y="412" style="font-size:10px;font-weight:none;stroke:none; fill:#333399" text-anchor="left" /></g><g componentSequence="32"><text x="446" y="276" style="font-size:10px;font-weight:none;stroke:none; fill:#333399" text-anchor="left" /></g><g componentSequence="33"><text x="550" y="188" style="font-size:10px;font-weight:none;stroke:none; fill:#333399" text-anchor="left" /></g><g componentSequence="34"><text x="558" y="340" style="font-size:10px;font-weight:none;stroke:none; fill:#333399" text-anchor="left" /></g><g componentSequence="35"><text x="655" y="124" style="font-size:10px;font-weight:none;stroke:none; fill:#333399" text-anchor="left" /></g><g componentSequence="36"><text x="778" y="187" style="font-size:10px;font-weight:none;stroke:none; fill:#333399" text-anchor="left" /></g><g componentSequence="37"><text x="954" y="555" style="font-size:10px;font-weight:none;stroke:none; fill:#333399" text-anchor="left" /></g><g componentSequence="38"><text x="858" y="340" style="font-size:10px;font-weight:none;stroke:none; fill:#333399" text-anchor="left" /></g><g componentSequence="39"><text x="940" y="124" style="font-size:10px;font-weight:none;stroke:none; fill:#333399" text-anchor="left" /></g><g componentSequence="40"><text x="975" y="189" style="font-size:10px;font-weight:none;stroke:none; fill:#333399" text-anchor="left" /></g><g componentSequence="41"><text x="1078" y="196" style="font-size:10px;font-weight:none;stroke:none; fill:#333399" text-anchor="left" /></g><g componentSequence="42"><text x="1076" y="343" style="font-size:10px;font-weight:none;stroke:none; fill:#333399" text-anchor="left" /></g><g componentSequence="43"><text x="1043" y="271" style="font-size:10px;font-weight:none;stroke:none; fill:#333399" text-anchor="left" /></g><g componentSequence="44"><text x="1153" y="124" style="font-size:10px;font-weight:none;stroke:none; fill:#333399" text-anchor="left" /></g><g componentSequence="46"><text x="1289" y="192" style="font-size:10px;font-weight:none;stroke:none; fill:#333399" text-anchor="left" /></g><g componentSequence="47"><text x="1385" y="124" style="font-size:10px;font-weight:none;stroke:none; fill:#333399" text-anchor="left" /></g><g componentSequence="48"><text x="1266" y="411" style="font-size:10px;font-weight:none;stroke:none; fill:#333399" text-anchor="left" /></g><g componentSequence="49"><text x="1448" y="187" style="font-size:10px;font-weight:none;stroke:none; fill:#333399" text-anchor="left" /></g><g componentSequence="50"><text x="1668" y="124" style="font-size:10px;font-weight:none;stroke:none; fill:#333399" text-anchor="left" /></g><g componentSequence="51"><text x="1683" y="343" style="font-size:10px;font-weight:none;stroke:none; fill:#333399" text-anchor="left" /></g><g componentSequence="52"><text x="1748" y="411" style="font-size:10px;font-weight:none;stroke:none; fill:#333399" text-anchor="left" /></g><g componentSequence="53"><text x="1529" y="347" style="font-size:10px;font-weight:none;stroke:none; fill:#333399" text-anchor="left" /></g><g componentSequence="54"><text x="1064" y="353" style="font-size:10px;font-weight:none;stroke:none; fill:#333399" text-anchor="left" /></g><g componentSequence="55"><text x="895" y="356" style="font-size:10px;font-weight:none;stroke:none; fill:#333399" text-anchor="left" /></g><g componentSequence="56"><text x="778" y="340" style="font-size:10px;font-weight:none;stroke:none; fill:#333399" text-anchor="left" /></g><g componentSequence="57"><text x="774" y="305" style="font-size:10px;font-weight:none;stroke:none; fill:#333399" text-anchor="left" /></g><path style="fill:none; stroke:#F00000;stroke-width:1" d="M95.0 281.0 L172.0 281.0 L172.0 376.0" /><polygon style="fill:#F00000; stroke:#F00000;" points=" 177 366 172 376 167 366 172 368" /><polygon style="fill:#F00000; stroke:#F00000;" points=" 105 286 95 281 105 276 103 281" /><path style="fill:none; stroke:#F00000;stroke-width:1" d="M172.0 447.0 L172.0 555.0 L219.0 555.0" /><polygon style="fill:#F00000; stroke:#F00000;" points=" 209 550 219 555 209 560 211 555" /><polygon style="fill:#F00000; stroke:#F00000;" points=" 167 457 172 447 177 457 172 455" /><path style="fill:none; stroke:#000000;stroke-width:1" d="M226.0 425.0 L720.0 551.0" /><polygon style="fill:#000000; stroke:#000000;" points=" 712 544 720 551 709 553 712 549" /><path style="fill:none; stroke:#000000;stroke-width:1" d="M320.0 513.0 L386.0 454.0" /><polygon style="fill:#000000; stroke:#000000;" points=" 375 457 386 454 382 464 380 459" /><path style="fill:none; stroke:#000000;stroke-width:1" d="M432.0 454.0 L432.0 556.0 L326.0 556.0" /><polygon style="fill:#000000; stroke:#000000;" points=" 336 561 326 556 336 551 334 556" /><path style="fill:none; stroke:#000000;stroke-width:1" d="M486.0 412.0 L737.0 412.0 L737.0 537.0" /><polygon style="fill:#000000; stroke:#000000;" points=" 742 527 737 537 732 527 737 529" /><path style="fill:none; stroke:#000000;stroke-width:1" d="M434.0 369.0 L438.0 182.0" /><polygon style="fill:#000000; stroke:#000000;" points=" 433 192 438 182 443 192 438 190" /><path style="fill:none; stroke:#000000;stroke-width:1" d="M609.0 301.0 L486.0 378.0" /><polygon style="fill:#000000; stroke:#000000;" points=" 497 377 486 378 492 368 493 374" /><path style="fill:none; stroke:#F00000;stroke-width:1" d="M1619.0 284.0 L1542.0 307.0 L486.0 406.0" /><polygon style="fill:#F00000; stroke:#F00000;" points=" 496 410 486 406 495 400 494 405" /><polygon style="fill:#F00000; stroke:#F00000;" points=" 1608 282 1619 284 1611 292 1611 286" /><path style="fill:none; stroke:#F00000;stroke-width:1" d="M1279.0 290.0 L1219.0 315.0 L486.0 405.0" /><polygon style="fill:#F00000; stroke:#F00000;" points=" 497 409 486 405 495 399 494 404" /><polygon style="fill:#F00000; stroke:#F00000;" points=" 1268 289 1279 290 1272 298 1272 293" /><path style="fill:none; stroke:#F00000;stroke-width:1" d="M1049.0 279.0 L486.0 400.0" /><polygon style="fill:#F00000; stroke:#F00000;" points=" 497 403 486 400 495 393 494 398" /><polygon style="fill:#F00000; stroke:#F00000;" points=" 1038 276 1049 279 1040 286 1041 281" /><path style="fill:none; stroke:#F00000;stroke-width:1" d="M1006.0 173.0 L970.0 240.0 L486.0 394.0" /><polygon style="fill:#F00000; stroke:#F00000;" points=" 497 396 486 394 494 386 494 392" /><polygon style="fill:#F00000; stroke:#F00000;" points=" 997 179 1006 173 1006 184 1002 180" /><path style="fill:none; stroke:#000000;stroke-width:1" d="M470.0 143.0 L609.0 233.0" /><polygon style="fill:#000000; stroke:#000000;" points=" 603 223 609 233 598 232 602 229" /><path style="fill:none; stroke:#000000;stroke-width:1" d="M470.0 124.0 L819.0 124.0" /><polygon style="fill:#000000; stroke:#000000;" points=" 809 119 819 124 809 129 811 124" /><path style="fill:none; stroke:#000000;stroke-width:1" d="M716.0 227.0 L819.0 147.0" /><polygon style="fill:#000000; stroke:#000000;" points=" 808 149 819 147 814 157 813 152" /><path style="fill:none; stroke:#000000;stroke-width:1" d="M716.0 288.0 L979.0 391.0" /><polygon style="fill:#000000; stroke:#000000;" points=" 972 383 979 391 968 392 972 388" /><path style="fill:none; stroke:#000000;stroke-dasharray:2" d="M799.0 575.0 L754.0 560.0" /><path style="fill:none; stroke:#000000;stroke-width:1" d="M1032.0 454.0 L1032.0 555.0 L755.0 555.0" /><polygon style="fill:#000000; stroke:#000000;" points=" 765 560 755 555 765 550 763 555" /><path style="fill:none; stroke:#000000;stroke-width:1" d="M880.0 124.0 L979.0 124.0" /><polygon style="fill:#000000; stroke:#000000;" points=" 969 119 979 124 969 129 971 124" /><path style="fill:none; stroke:#000000;stroke-width:1" d="M880.0 141.0 L1049.0 237.0" /><polygon style="fill:#000000; stroke:#000000;" points=" 1043 228 1049 237 1038 236 1042 233" /><path style="fill:none; stroke:#000000;stroke-width:1" d="M1033.0 173.0 L1033.0 369.0" /><polygon style="fill:#000000; stroke:#000000;" points=" 1038 359 1033 369 1028 359 1033 361" /><path style="fill:none; stroke:#000000;stroke-width:1" d="M1086.0 124.0 L1199.0 124.0" /><polygon style="fill:#000000; stroke:#000000;" points=" 1189 119 1199 124 1189 129 1191 124" /><path style="fill:none; stroke:#000000;stroke-width:1" d="M1079.0 218.0 L1057.0 173.0" /><polygon style="fill:#000000; stroke:#000000;" points=" 1057 184 1057 173 1066 180 1061 180" /><path style="fill:none; stroke:#000000;stroke-width:1" d="M1079.0 317.0 L1053.0 369.0" /><polygon style="fill:#000000; stroke:#000000;" points=" 1062 362 1053 369 1053 358 1057 362" /><path style="fill:none; stroke:#000000;stroke-width:1" d="M1332.0 317.0 L1332.0 411.0 L1086.0 411.0" /><polygon style="fill:#000000; stroke:#000000;" points=" 1096 416 1086 411 1096 406 1094 411" /><path style="fill:none; stroke:#000000;stroke-width:1" d="M1260.0 166.0 L1297.0 218.0" /><polygon style="fill:#000000; stroke:#000000;" points=" 1295 207 1297 218 1287 213 1292 211" /><path style="fill:none; stroke:#000000;stroke-width:1" d="M1260.0 124.0 L1489.0 124.0" /><polygon style="fill:#000000; stroke:#000000;" points=" 1479 119 1489 124 1479 129 1481 124" /><path style="fill:none; stroke:#000000;stroke-width:1" d="M1386.0 227.0 L1489.0 147.0" /><polygon style="fill:#000000; stroke:#000000;" points=" 1478 149 1489 147 1484 157 1483 152" /><path style="fill:none; stroke:#000000;stroke-width:1" d="M1673.0 317.0 L1673.0 369.0" /><polygon style="fill:#000000; stroke:#000000;" points=" 1678 359 1673 369 1668 359 1673 361" /><path style="fill:none; stroke:#000000;stroke-width:1" d="M1550.0 124.0 L1672.0 124.0 L1672.0 218.0" /><polygon style="fill:#000000; stroke:#000000;" points=" 1677 208 1672 218 1667 208 1672 210" /><path style="fill:none; stroke:#000000;stroke-width:1" d="M1726.0 411.0 L1750.0 411.0" /><polygon style="fill:#000000; stroke:#000000;" points=" 1740 406 1750 411 1740 416 1742 411" /><path style="fill:none; stroke:#000000;stroke-width:1" d="M1519.0 182.0 L1519.0 411.0 L1619.0 411.0" /><polygon style="fill:#000000; stroke:#000000;" points=" 1609 406 1619 411 1609 416 1611 411" /><defs><linearGradient xmlns:xlink="http://www.w3.org/1999/xlink" xlink:href="#linearGradient66FF6696FF96B6FFB6" id="linearGradient66FF6696FF96B6FFB6_177285928" x1="0" y1="264.0" x2="0" y2="299.0" gradientUnits="userSpaceOnUse" xlink:type="simple" xlink:actuate="onLoad" xlink:show="other" /><linearGradient id="linearGradient66FF6696FF96B6FFB6"><stop style="stop-color:#66FF66;stop-opacity:1;" offset="0.0" id="stop66FF66" /><stop style="stop-color:#96FF96;stop-opacity:1;" offset="0.5" id="stop96FF96" /><stop style="stop-color:#B6FFB6;stop-opacity:1;" offset="1.0" id="stopB6FFB6" /></linearGradient><linearGradient xmlns:xlink="http://www.w3.org/1999/xlink" xlink:href="#linearGradientF8FBFEEDF5FCDEEDFAD4E7F8E2E5E9" id="linearGradientF8FBFEEDF5FCDEEDFAD4E7F8E2E5E9_1084773507" x1="0" y1="377.0" x2="0" y2="483.0" gradientUnits="userSpaceOnUse" xlink:type="simple" xlink:actuate="onLoad" xlink:show="other" /><linearGradient id="linearGradientF8FBFEEDF5FCDEEDFAD4E7F8E2E5E9"><stop style="stop-color:#F8FBFE;stop-opacity:1;" offset="0.0" id="stopF8FBFE" /><stop style="stop-color:#EDF5FC;stop-opacity:1;" offset="0.25" id="stopEDF5FC" /><stop style="stop-color:#DEEDFA;stop-opacity:1;" offset="0.5" id="stopDEEDFA" /><stop style="stop-color:#D4E7F8;stop-opacity:1;" offset="0.75" id="stopD4E7F8" /><stop style="stop-color:#E2E5E9;stop-opacity:1;" offset="1.0" id="stopE2E5E9" /></linearGradient><linearGradient xmlns:xlink="http://www.w3.org/1999/xlink" xlink:href="#linearGradientF8FBFEEDF5FCDEEDFAD4E7F8E2E5E9" id="linearGradientF8FBFEEDF5FCDEEDFAD4E7F8E2E5E9_1799652766" x1="0" y1="514.0" x2="0" y2="620.0" gradientUnits="userSpaceOnUse" xlink:type="simple" xlink:actuate="onLoad" xlink:show="other" /><linearGradient xmlns:xlink="http://www.w3.org/1999/xlink" xlink:href="#linearGradientF8FBFEEDF5FCDEEDFAD4E7F8E2E5E9" id="linearGradientF8FBFEEDF5FCDEEDFAD4E7F8E2E5E9_1604353814" x1="0" y1="370.0" x2="0" y2="476.0" gradientUnits="userSpaceOnUse" xlink:type="simple" xlink:actuate="onLoad" xlink:show="other" /><linearGradient xmlns:xlink="http://www.w3.org/1999/xlink" xlink:href="#linearGradientFAFBFCFFFFCC" id="linearGradientFAFBFCFFFFCC_569880166" x1="0" y1="66.0" x2="0" y2="126.0" gradientUnits="userSpaceOnUse" xlink:type="simple" xlink:actuate="onLoad" xlink:show="other" /><linearGradient id="linearGradientFAFBFCFFFFCC"><stop style="stop-color:#FAFBFC;stop-opacity:1;" offset="0.0" id="stopFAFBFC" /><stop style="stop-color:#FFFFCC;stop-opacity:1;" offset="1.0" id="stopFFFFCC" /></linearGradient><linearGradient xmlns:xlink="http://www.w3.org/1999/xlink" xlink:href="#linearGradientF8FBFEEDF5FCDEEDFAD4E7F8E2E5E9" id="linearGradientF8FBFEEDF5FCDEEDFAD4E7F8E2E5E9_198884342" x1="0" y1="226.0" x2="0" y2="332.0" gradientUnits="userSpaceOnUse" xlink:type="simple" xlink:actuate="onLoad" xlink:show="other" /><linearGradient xmlns:xlink="http://www.w3.org/1999/xlink" xlink:href="#linearGradientFF6666FF9696FFB6B6" id="linearGradientFF6666FF9696FFB6B6_1164581262" x1="0" y1="538.0" x2="0" y2="573.0" gradientUnits="userSpaceOnUse" xlink:type="simple" xlink:actuate="onLoad" xlink:show="other" /><linearGradient id="linearGradientFF6666FF9696FFB6B6"><stop style="stop-color:#FF6666;stop-opacity:1;" offset="0.0" id="stopFF6666" /><stop style="stop-color:#FF9696;stop-opacity:1;" offset="0.5" id="stopFF9696" /><stop style="stop-color:#FFB6B6;stop-opacity:1;" offset="1.0" id="stopFFB6B6" /></linearGradient><linearGradient xmlns:xlink="http://www.w3.org/1999/xlink" xlink:href="#linearGradientFAFBFCFFFFCC" id="linearGradientFAFBFCFFFFCC_951311676" x1="0" y1="66.0" x2="0" y2="126.0" gradientUnits="userSpaceOnUse" xlink:type="simple" xlink:actuate="onLoad" xlink:show="other" /><linearGradient xmlns:xlink="http://www.w3.org/1999/xlink" xlink:href="#linearGradientF8FBFEEDF5FCDEEDFAD4E7F8E2E5E9" id="linearGradientF8FBFEEDF5FCDEEDFAD4E7F8E2E5E9_679586617" x1="0" y1="75.0" x2="0" y2="181.0" gradientUnits="userSpaceOnUse" xlink:type="simple" xlink:actuate="onLoad" xlink:show="other" /><linearGradient xmlns:xlink="http://www.w3.org/1999/xlink" xlink:href="#linearGradientF8FBFEEDF5FCDEEDFAD4E7F8E2E5E9" id="linearGradientF8FBFEEDF5FCDEEDFAD4E7F8E2E5E9_1494237173" x1="0" y1="219.0" x2="0" y2="325.0" gradientUnits="userSpaceOnUse" xlink:type="simple" xlink:actuate="onLoad" xlink:show="other" /><linearGradient xmlns:xlink="http://www.w3.org/1999/xlink" xlink:href="#linearGradientF8FBFEEDF5FCDEEDFAD4E7F8E2E5E9" id="linearGradientF8FBFEEDF5FCDEEDFAD4E7F8E2E5E9_970398593" x1="0" y1="370.0" x2="0" y2="476.0" gradientUnits="userSpaceOnUse" xlink:type="simple" xlink:actuate="onLoad" xlink:show="other" /><linearGradient xmlns:xlink="http://www.w3.org/1999/xlink" xlink:href="#linearGradientFAFBFCFFFFCC" id="linearGradientFAFBFCFFFFCC_1498337233" x1="0" y1="66.0" x2="0" y2="126.0" gradientUnits="userSpaceOnUse" xlink:type="simple" xlink:actuate="onLoad" xlink:show="other" /><linearGradient xmlns:xlink="http://www.w3.org/1999/xlink" xlink:href="#linearGradientF8FBFEEDF5FCDEEDFAD4E7F8E2E5E9" id="linearGradientF8FBFEEDF5FCDEEDFAD4E7F8E2E5E9_1160630309" x1="0" y1="219.0" x2="0" y2="325.0" gradientUnits="userSpaceOnUse" xlink:type="simple" xlink:actuate="onLoad" xlink:show="other" /><linearGradient xmlns:xlink="http://www.w3.org/1999/xlink" xlink:href="#linearGradientF8FBFEEDF5FCDEEDFAD4E7F8E2E5E9" id="linearGradientF8FBFEEDF5FCDEEDFAD4E7F8E2E5E9_1119637662" x1="0" y1="219.0" x2="0" y2="325.0" gradientUnits="userSpaceOnUse" xlink:type="simple" xlink:actuate="onLoad" xlink:show="other" /><linearGradient xmlns:xlink="http://www.w3.org/1999/xlink" xlink:href="#linearGradientF8FBFEEDF5FCDEEDFAD4E7F8E2E5E9" id="linearGradientF8FBFEEDF5FCDEEDFAD4E7F8E2E5E9_1498470220" x1="0" y1="370.0" x2="0" y2="476.0" gradientUnits="userSpaceOnUse" xlink:type="simple" xlink:actuate="onLoad" xlink:show="other" /><linearGradient xmlns:xlink="http://www.w3.org/1999/xlink" xlink:href="#linearGradientFF6666FF9696FFB6B6" id="linearGradientFF6666FF9696FFB6B6_1248259171" x1="0" y1="394.0" x2="0" y2="429.0" gradientUnits="userSpaceOnUse" xlink:type="simple" xlink:actuate="onLoad" xlink:show="other" /><linearGradient xmlns:xlink="http://www.w3.org/1999/xlink" xlink:href="#linearGradientFAFBFCFFFFCC" id="linearGradientFAFBFCFFFFCC_724139454" x1="0" y1="66.0" x2="0" y2="126.0" gradientUnits="userSpaceOnUse" xlink:type="simple" xlink:actuate="onLoad" xlink:show="other" /></defs></svg>
