<?xml version="1.0" encoding="UTF-8"?>
<svg xmlns="http://www.w3.org/2000/svg" style="stroke-dasharray:none; shape-rendering:auto; font-family:'Arial'; text-rendering:auto; fill-opacity:1; color-interpolation:auto; color-rendering:auto; font-size:12; fill:black; stroke:black; image-rendering:auto; stroke-miterlimit:10; stroke-linecap:square; stroke-linejoin:miter; font-style:normal; stroke-width:1; stroke-dashoffset:0; font-weight:normal; stroke-opacity:1;" contentScriptType="text/ecmascript" preserveAspectRatio="xMidYMid meet" zoomAndPan="magnify" version="1.0" contentStyleType="text/css" xml:xlink="http://www.w3.org/1999/xlink" width="1320" height="570"><rect x="0" y="0" width="1320" height="190" ry="0" rx="0" style="stroke:#000000; fill:#FFFFCC" /><g componentSequence="1"><text x="-95" y="7" transform="rotate(270)" text-anchor="middle" style="font-weight:bold;font-size:10px;stroke:none; fill:#434343"><tspan dy="14" x="-95">Área Responsable</tspan></text></g><rect x="0" y="190" width="1320" height="193" ry="0" rx="0" style="stroke:#000000; fill:#FFFF99" /><g componentSequence="2"><text x="-286" y="7" transform="rotate(270)" text-anchor="middle" style="font-weight:bold;font-size:10px;stroke:none; fill:#434343"><tspan dy="14" x="-286">Asistente de Farmacovigilancia</tspan></text></g><rect x="0" y="381" width="1320" height="189" ry="0" rx="0" style="stroke:#000000; fill:#FFFFCC" /><g componentSequence="3"><text x="-475" y="7" transform="rotate(270)" text-anchor="middle" style="font-weight:bold;font-size:10px;stroke:none; fill:#434343"><tspan dy="14" x="-475">Revisor de Farmacovigilancia</tspan></text></g><g sequence="1"><ellipse cx="103" cy="297" rx="17" ry="17" stroke-width="1" style="fill:url(#linearGradient66FF6696FF96B6FFB6_1272830848);" stroke="336633" /></g><g sequence="2"><rect x="270" y="261" width="106" height="56" ry="5" rx="5" style="fill:url(#linearGradientF8FBFEEDF5FCDEEDFAD4E7F8E2E5E9_1383454569);" stroke="191970" /></g><g componentSequence="2"><text x="323" y="278" text-anchor="middle" style="font-weight:bold;font-size:10px;stroke:none; fill:#333399"><tspan dy="14" x="323">Corregir Datos</tspan></text></g><g sequence="3"><rect x="830" y="442" width="106" height="70" ry="5" rx="5" style="fill:url(#linearGradientF8FBFEEDF5FCDEEDFAD4E7F8E2E5E9_915495114);" stroke="191970" /></g><g componentSequence="3"><text x="883" y="457" text-anchor="middle" style="font-weight:bold;font-size:10px;stroke:none; fill:#333399"><tspan dy="14" x="883">Revisar</tspan><tspan dy="14" x="883">Consulta</tspan></text></g><g sequence="4"><ellipse cx="1137" cy="477" rx="17" ry="17" stroke-width="3" style="fill:url(#linearGradientFF6666FF9696FFB6B6_6050243);" stroke="993333" /></g><g sequence="5"><rect x="830" y="62" width="106" height="70" ry="5" rx="5" style="fill:url(#linearGradientF8FBFEEDF5FCDEEDFAD4E7F8E2E5E9_754702692);" stroke="191970" /></g><g componentSequence="5"><text x="883" y="77" text-anchor="middle" style="font-weight:bold;font-size:10px;stroke:none; fill:#333399"><tspan dy="14" x="883">Complementar</tspan><tspan dy="14" x="883">Consulta</tspan></text></g><g sequence="6"><rect x="200" y="62" width="106" height="70" ry="5" rx="5" style="fill:url(#linearGradientF8FBFEEDF5FCDEEDFAD4E7F8E2E5E9_1249725262);" stroke="191970" /></g><g componentSequence="6"><text x="253" y="77" text-anchor="middle" style="font-weight:bold;font-size:10px;stroke:none; fill:#333399"><tspan dy="14" x="253">Atender</tspan><tspan dy="14" x="253">Consulta</tspan></text></g><g sequence="7"><polygon points=" 550 76 580 46 610 76 580 106 550 76" style="fill:url(#linearGradientFAFBFCFFFFCC_1742410774);" stroke="000000" /></g><g componentSequence="7"><text x="580" y="116" text-anchor="middle" style="font-weight:bold;font-size:10px;stroke:none; fill:#333399"><tspan dy="14" x="580">Derivar</tspan><tspan dy="14" x="580">Consulta</tspan></text></g><rect x="1180" y="400" width="105" height="55" ry="5" rx="5" style="stroke:none; fill:#FFFFE0" /><g componentSequence="1"><text x="1190" y="423" text-anchor="left" style="font-weight:bold;font-size:10px;stroke:none; fill:#000000"><tspan dy="14" x="1190">Consulta</tspan><tspan dy="14" x="1190">Cerrada</tspan></text></g><path style="fill:none; stroke-width:1; stroke:#000000;" d="M1200.0 400.0 L1180.0 400.0 L1180.0 455.0 L1200.0 455.0" /><g componentSequence="2"><text x="182" y="206" style="font-size:10px;font-weight:none;stroke:none; fill:#333399" text-anchor="left" /></g><g componentSequence="6"><text x="893" y="287" style="font-size:10px;font-weight:none;stroke:none; fill:#333399" text-anchor="left" /></g><g componentSequence="9"><text x="578" y="287" style="font-size:10px;font-weight:none;stroke:none; fill:#333399" text-anchor="left" /></g><g componentSequence="10"><text x="299" y="196" style="font-size:10px;font-weight:none;stroke:none; fill:#333399" text-anchor="left" /></g><g componentSequence="12"><text x="438" y="97" style="font-size:10px;font-weight:none;stroke:none; fill:#333399" text-anchor="left" /></g><g componentSequence="13"><text x="299" y="196" style="font-size:10px;font-weight:none;stroke:none; fill:#333399" text-anchor="left" /></g><g componentSequence="14"><text x="438" y="97" style="font-size:10px;font-weight:none;stroke:none; fill:#333399" text-anchor="left" /></g><g componentSequence="15"><text x="1038" y="477" style="font-size:10px;font-weight:none;stroke:none; fill:#333399" text-anchor="left" /></g><g componentSequence="17"><text x="893" y="287" style="font-size:10px;font-weight:none;stroke:none; fill:#333399" text-anchor="left" /></g><g componentSequence="18"><text x="613" y="383" style="font-size:10px;font-weight:none;stroke:none; fill:#333399" text-anchor="left" /></g><g componentSequence="19"><text x="465" y="190" style="font-size:10px;font-weight:none;stroke:none; fill:#333399" text-anchor="left" /></g><g componentSequence="1"><text x="1177" y="462" style="font-size:10px;font-weight:none;stroke:none; fill:#333399" text-anchor="left" /></g><path style="fill:none; stroke:#000000;stroke-width:1" d="M113.0 283.0 L226.0 132.0" /><polygon style="fill:#000000; stroke:#000000;" points=" 216 137 226 132 224 143 221 138" /><path style="fill:none; stroke:#000000;stroke-width:1" d="M312.0 260.0 L266.0 132.0" /><polygon style="fill:#000000; stroke:#000000;" points=" 265 143 266 132 274 140 269 140" /><path style="fill:none; stroke:#000000;stroke-width:1" d="M361.0 260.0 L549.0 119.0" /><polygon style="fill:#000000; stroke:#000000;" points=" 538 121 549 119 544 129 543 124" /><path style="fill:none; stroke:#000000;stroke-width:1" d="M266.0 132.0 L312.0 260.0" /><polygon style="fill:#000000; stroke:#000000;" points=" 313 249 312 260 304 252 309 252" /><path style="fill:none; stroke:#000000;stroke-width:1" d="M829.0 459.0 L376.0 306.0" /><polygon style="fill:#000000; stroke:#000000;" points=" 384 314 376 306 387 304 384 309" /><path style="fill:none; stroke:#000000;stroke-width:1" d="M936.0 477.0 L1119.0 477.0" /><polygon style="fill:#000000; stroke:#000000;" points=" 1109 472 1119 477 1109 482 1111 477" /><path style="fill:none; stroke:#000000;stroke-width:1" d="M883.0 441.0 L883.0 132.0" /><polygon style="fill:#000000; stroke:#000000;" points=" 878 142 883 132 888 142 883 140" /><path style="fill:none; stroke:#000000;stroke-width:1" d="M883.0 132.0 L883.0 441.0" /><polygon style="fill:#000000; stroke:#000000;" points=" 888 431 883 441 878 431 883 433" /><path style="fill:none; stroke:#000000;stroke-width:1" d="M306.0 129.0 L829.0 444.0" /><polygon style="fill:#000000; stroke:#000000;" points=" 823 435 829 444 818 443 822 440" /><path style="fill:none; stroke:#000000;stroke-dasharray:2" d="M1179.0 455.0 L1152.0 469.0" /><path style="fill:none; stroke:#000000;stroke-width:1" d="M306.0 97.0 L549.0 97.0" /><polygon style="fill:#000000; stroke:#000000;" points=" 539 92 549 97 539 102 541 97" /><path style="fill:none; stroke:#000000;stroke-width:1" d="M549.0 97.0 L306.0 97.0" /><polygon style="fill:#000000; stroke:#000000;" points=" 316 102 306 97 316 92 314 97" /><defs><linearGradient xmlns:xlink="http://www.w3.org/1999/xlink" xlink:href="#linearGradient66FF6696FF96B6FFB6" id="linearGradient66FF6696FF96B6FFB6_1272830848" x1="0" y1="280.0" x2="0" y2="315.0" gradientUnits="userSpaceOnUse" xlink:type="simple" xlink:actuate="onLoad" xlink:show="other" /><linearGradient id="linearGradient66FF6696FF96B6FFB6"><stop style="stop-color:#66FF66;stop-opacity:1;" offset="0.0" id="stop66FF66" /><stop style="stop-color:#96FF96;stop-opacity:1;" offset="0.5" id="stop96FF96" /><stop style="stop-color:#B6FFB6;stop-opacity:1;" offset="1.0" id="stopB6FFB6" /></linearGradient><linearGradient xmlns:xlink="http://www.w3.org/1999/xlink" xlink:href="#linearGradientF8FBFEEDF5FCDEEDFAD4E7F8E2E5E9" id="linearGradientF8FBFEEDF5FCDEEDFAD4E7F8E2E5E9_1383454569" x1="0" y1="261.0" x2="0" y2="367.0" gradientUnits="userSpaceOnUse" xlink:type="simple" xlink:actuate="onLoad" xlink:show="other" /><linearGradient id="linearGradientF8FBFEEDF5FCDEEDFAD4E7F8E2E5E9"><stop style="stop-color:#F8FBFE;stop-opacity:1;" offset="0.0" id="stopF8FBFE" /><stop style="stop-color:#EDF5FC;stop-opacity:1;" offset="0.25" id="stopEDF5FC" /><stop style="stop-color:#DEEDFA;stop-opacity:1;" offset="0.5" id="stopDEEDFA" /><stop style="stop-color:#D4E7F8;stop-opacity:1;" offset="0.75" id="stopD4E7F8" /><stop style="stop-color:#E2E5E9;stop-opacity:1;" offset="1.0" id="stopE2E5E9" /></linearGradient><linearGradient xmlns:xlink="http://www.w3.org/1999/xlink" xlink:href="#linearGradientF8FBFEEDF5FCDEEDFAD4E7F8E2E5E9" id="linearGradientF8FBFEEDF5FCDEEDFAD4E7F8E2E5E9_915495114" x1="0" y1="442.0" x2="0" y2="548.0" gradientUnits="userSpaceOnUse" xlink:type="simple" xlink:actuate="onLoad" xlink:show="other" /><linearGradient xmlns:xlink="http://www.w3.org/1999/xlink" xlink:href="#linearGradientFF6666FF9696FFB6B6" id="linearGradientFF6666FF9696FFB6B6_6050243" x1="0" y1="460.0" x2="0" y2="495.0" gradientUnits="userSpaceOnUse" xlink:type="simple" xlink:actuate="onLoad" xlink:show="other" /><linearGradient id="linearGradientFF6666FF9696FFB6B6"><stop style="stop-color:#FF6666;stop-opacity:1;" offset="0.0" id="stopFF6666" /><stop style="stop-color:#FF9696;stop-opacity:1;" offset="0.5" id="stopFF9696" /><stop style="stop-color:#FFB6B6;stop-opacity:1;" offset="1.0" id="stopFFB6B6" /></linearGradient><linearGradient xmlns:xlink="http://www.w3.org/1999/xlink" xlink:href="#linearGradientF8FBFEEDF5FCDEEDFAD4E7F8E2E5E9" id="linearGradientF8FBFEEDF5FCDEEDFAD4E7F8E2E5E9_754702692" x1="0" y1="62.0" x2="0" y2="168.0" gradientUnits="userSpaceOnUse" xlink:type="simple" xlink:actuate="onLoad" xlink:show="other" /><linearGradient xmlns:xlink="http://www.w3.org/1999/xlink" xlink:href="#linearGradientF8FBFEEDF5FCDEEDFAD4E7F8E2E5E9" id="linearGradientF8FBFEEDF5FCDEEDFAD4E7F8E2E5E9_1249725262" x1="0" y1="62.0" x2="0" y2="168.0" gradientUnits="userSpaceOnUse" xlink:type="simple" xlink:actuate="onLoad" xlink:show="other" /><linearGradient xmlns:xlink="http://www.w3.org/1999/xlink" xlink:href="#linearGradientFAFBFCFFFFCC" id="linearGradientFAFBFCFFFFCC_1742410774" x1="0" y1="46.0" x2="0" y2="106.0" gradientUnits="userSpaceOnUse" xlink:type="simple" xlink:actuate="onLoad" xlink:show="other" /><linearGradient id="linearGradientFAFBFCFFFFCC"><stop style="stop-color:#FAFBFC;stop-opacity:1;" offset="0.0" id="stopFAFBFC" /><stop style="stop-color:#FFFFCC;stop-opacity:1;" offset="1.0" id="stopFFFFCC" /></linearGradient></defs></svg>
