<?xml version="1.0" encoding="UTF-8"?>
<svg xmlns="http://www.w3.org/2000/svg" style="stroke-dasharray:none; shape-rendering:auto; font-family:'Arial'; text-rendering:auto; fill-opacity:1; color-interpolation:auto; color-rendering:auto; font-size:12; fill:black; stroke:black; image-rendering:auto; stroke-miterlimit:10; stroke-linecap:square; stroke-linejoin:miter; font-style:normal; stroke-width:1; stroke-dashoffset:0; font-weight:normal; stroke-opacity:1;" contentScriptType="text/ecmascript" preserveAspectRatio="xMidYMid meet" zoomAndPan="magnify" version="1.0" contentStyleType="text/css" xml:xlink="http://www.w3.org/1999/xlink" width="1590" height="671"><rect x="10" y="10" width="1580" height="661" ry="0" rx="0" style="stroke:#000000; fill:#FFFFFF" /><rect x="40" y="274" width="1550" height="132" ry="0" rx="0" style="stroke:#000000; fill:#ADC9AC" /><g componentSequence="50"><text x="-340" y="47" transform="rotate(270)" text-anchor="middle" style="font-weight:bold;font-size:10px;stroke:none; fill:#434343"><tspan dy="14" x="-340">Asistente de Distrito</tspan></text></g><rect x="40" y="538" width="1550" height="133" ry="0" rx="0" style="stroke:#000000; fill:#80FF80" /><g componentSequence="18"><text x="-604" y="47" transform="rotate(270)" text-anchor="middle" style="font-weight:bold;font-size:10px;stroke:none; fill:#434343"><tspan dy="14" x="-604">Gerente de Promoción</tspan></text></g><rect x="40" y="10" width="1550" height="132" ry="0" rx="0" style="stroke:#000000; fill:#82B0B7" /><g componentSequence="15"><text x="-76" y="47" transform="rotate(270)" text-anchor="middle" style="font-weight:bold;font-size:10px;stroke:none; fill:#434343"><tspan dy="14" x="-76">APM</tspan></text></g><rect x="40" y="406" width="1550" height="132" ry="0" rx="0" style="stroke:#000000; fill:#FFFF80" /><g componentSequence="3"><text x="-472" y="47" transform="rotate(270)" text-anchor="middle" style="font-weight:bold;font-size:10px;stroke:none; fill:#434343"><tspan dy="14" x="-472">Gerente de Área</tspan></text></g><rect x="40" y="142" width="1550" height="132" ry="0" rx="0" style="stroke:#000000; fill:#FF8080" /><g componentSequence="2"><text x="-208" y="47" transform="rotate(270)" text-anchor="middle" style="font-weight:bold;font-size:10px;stroke:none; fill:#434343"><tspan dy="14" x="-208">APM / Gerente de Dist...</tspan></text></g><g componentSequence="1"><text x="-340" y="17" transform="rotate(270)" text-anchor="middle" style="font-weight:bold;font-size:10px;stroke:none; fill:#434343"><tspan dy="14" x="-340">RAF08</tspan></text></g><g sequence="4"><ellipse cx="127" cy="209" rx="17" ry="17" stroke-width="1" style="fill:url(#linearGradient66FF6696FF96B6FFB6_118334792);" stroke="336633" /></g><g sequence="5"><polygon points=" 250 196 280 166 310 196 280 226 250 196" style="fill:url(#linearGradientFAFBFCFFFFCC_164256729);" stroke="000000" /></g><g componentSequence="5"><text x="280" y="229" text-anchor="middle" style="font-weight:bold;font-size:10px;stroke:none; fill:#333399"><tspan dy="14" x="280">Es APM?</tspan></text></g><g sequence="7"><rect x="510" y="154" width="106" height="112" ry="5" rx="5" style="fill:url(#linearGradientF8FBFEEDF5FCDEEDFAD4E7F8E2E5E9_234212920);" stroke="191970" /></g><g componentSequence="7"><text x="563" y="169" text-anchor="middle" style="font-weight:bold;font-size:10px;stroke:none; fill:#333399"><tspan dy="14" x="563">Revisar y</tspan><tspan dy="14" x="563">Aprobar</tspan><tspan dy="14" x="563">Inversión</tspan><tspan dy="14" x="563">Comercial (Gte.</tspan><tspan dy="14" x="563">Distrito)</tspan></text></g><g sequence="9"><rect x="700" y="420" width="106" height="98" ry="5" rx="5" style="fill:url(#linearGradientF8FBFEEDF5FCDEEDFAD4E7F8E2E5E9_1224167906);" stroke="191970" /></g><g componentSequence="9"><text x="753" y="435" text-anchor="middle" style="font-weight:bold;font-size:10px;stroke:none; fill:#333399"><tspan dy="14" x="753">Aprobar</tspan><tspan dy="14" x="753">Inversión</tspan><tspan dy="14" x="753">Comercial (Gte.</tspan><tspan dy="14" x="753">Área)</tspan></text></g><g sequence="12"><rect x="390" y="36" width="106" height="84" ry="5" rx="5" style="fill:url(#linearGradientF8FBFEEDF5FCDEEDFAD4E7F8E2E5E9_582650449);" stroke="191970" /></g><g componentSequence="12"><text x="443" y="51" text-anchor="middle" style="font-weight:bold;font-size:10px;stroke:none; fill:#333399"><tspan dy="14" x="443">Completar</tspan><tspan dy="14" x="443">Inversión</tspan><tspan dy="14" x="443">Comercial</tspan></text></g><g sequence="19"><rect x="930" y="557" width="106" height="98" ry="5" rx="5" style="fill:url(#linearGradientF8FBFEEDF5FCDEEDFAD4E7F8E2E5E9_2037717324);" stroke="191970" /></g><g componentSequence="19"><text x="983" y="572" text-anchor="middle" style="font-weight:bold;font-size:10px;stroke:none; fill:#333399"><tspan dy="14" x="983">Aprobar</tspan><tspan dy="14" x="983">Inversión</tspan><tspan dy="14" x="983">Comercial (Gte.</tspan><tspan dy="14" x="983">Promoción)</tspan></text></g><g sequence="25"><polygon points=" 910 453 940 423 970 453 940 483 910 453" style="fill:url(#linearGradientFAFBFCFFFFCC_1523752020);" stroke="000000" /></g><g componentSequence="25"><text x="940" y="493" text-anchor="middle" style="font-weight:bold;font-size:10px;stroke:none; fill:#333399"><tspan dy="14" x="940">Requiere</tspan><tspan dy="14" x="940">Aprobac</tspan><tspan dy="14" x="940">...</tspan></text></g><g sequence="35"><ellipse cx="997" cy="77" rx="17" ry="17" stroke-width="3" style="fill:url(#linearGradientFF6666FF9696FFB6B6_685289133);" stroke="993333" /></g><g sequence="41"><rect x="1190" y="320" width="106" height="70" ry="5" rx="5" style="fill:url(#linearGradientF8FBFEEDF5FCDEEDFAD4E7F8E2E5E9_1581662693);" stroke="191970" /></g><g componentSequence="41"><text x="1243" y="335" text-anchor="middle" style="font-weight:bold;font-size:10px;stroke:none; fill:#333399"><tspan dy="14" x="1243">Ejecutar</tspan><tspan dy="14" x="1243">Inversión</tspan></text></g><g sequence="44"><ellipse cx="1317" cy="117" rx="17" ry="17" stroke-width="3" style="fill:url(#linearGradientFF6666FF9696FFB6B6_254315544);" stroke="993333" /></g><rect x="1110" y="30" width="105" height="55" ry="5" rx="5" style="stroke:none; fill:#FFFFE0" /><g componentSequence="46"><text x="1120" y="53" text-anchor="left" style="font-weight:bold;font-size:10px;stroke:none; fill:#000000"><tspan dy="14" x="1120">Solicitud</tspan><tspan dy="14" x="1120">Rechazada</tspan></text></g><path style="fill:none; stroke-width:1; stroke:#000000;" d="M1130.0 30.0 L1110.0 30.0 L1110.0 85.0 L1130.0 85.0" /><rect x="1460" y="90" width="105" height="55" ry="5" rx="5" style="stroke:none; fill:#FFFFE0" /><g componentSequence="47"><text x="1470" y="113" text-anchor="left" style="font-weight:bold;font-size:10px;stroke:none; fill:#000000"><tspan dy="14" x="1470">Solicitud</tspan><tspan dy="14" x="1470">Finalizada</tspan></text></g><path style="fill:none; stroke-width:1; stroke:#000000;" d="M1480.0 90.0 L1460.0 90.0 L1460.0 145.0 L1480.0 145.0" /><rect x="90" y="50" width="105" height="55" ry="5" rx="5" style="stroke:none; fill:#FFFFE0" /><g componentSequence="51"><text x="100" y="63" text-anchor="left" style="font-weight:bold;font-size:10px;stroke:none; fill:#000000"><tspan dy="14" x="100">Iniciar Solicitud</tspan></text></g><path style="fill:none; stroke-width:1; stroke:#000000;" d="M110.0 50.0 L90.0 50.0 L90.0 105.0 L110.0 105.0" /><g sequence="53"><rect x="1110" y="160" width="106" height="84" ry="5" rx="5" style="fill:url(#linearGradientF8FBFEEDF5FCDEEDFAD4E7F8E2E5E9_1104581013);" stroke="191970" /></g><g componentSequence="53"><text x="1163" y="175" text-anchor="middle" style="font-weight:bold;font-size:10px;stroke:none; fill:#333399"><tspan dy="14" x="1163">Cotizar Inversión</tspan><tspan dy="14" x="1163">Comercial</tspan></text></g><g sequence="55"><ellipse cx="1337" cy="37" rx="17" ry="17" stroke-width="3" style="fill:url(#linearGradientFF6666FF9696FFB6B6_748090052);" stroke="993333" /></g><rect x="1400" y="22" width="105" height="55" ry="5" rx="5" style="stroke:none; fill:#FFFFE0" /><g componentSequence="57"><text x="1410" y="45" text-anchor="left" style="font-weight:bold;font-size:10px;stroke:none; fill:#000000"><tspan dy="14" x="1410">Carta Acuerdo</tspan><tspan dy="14" x="1410">Rechazada</tspan></text></g><path style="fill:none; stroke-width:1; stroke:#000000;" d="M1420.0 22.0 L1400.0 22.0 L1400.0 77.0 L1420.0 77.0" /><g sequence="63"><rect x="1380" y="160" width="106" height="84" ry="5" rx="5" style="fill:url(#linearGradientF8FBFEEDF5FCDEEDFAD4E7F8E2E5E9_1085523930);" stroke="191970" /></g><g componentSequence="63"><text x="1433" y="175" text-anchor="middle" style="font-weight:bold;font-size:10px;stroke:none; fill:#333399"><tspan dy="14" x="1433">Cerrar Inversión</tspan><tspan dy="14" x="1433">Comercial</tspan></text></g><g componentSequence="8"><text x="330" y="209" style="font-size:10px;font-weight:none;stroke:none; fill:#333399" text-anchor="left"><tspan dy="14" x="330">SI</tspan></text></g><g componentSequence="10"><text x="290" y="467" style="font-size:10px;font-weight:none;stroke:none; fill:#333399" text-anchor="left"><tspan dy="14" x="290">NO</tspan></text></g><g componentSequence="13"><text x="522" y="53" style="font-size:10px;font-weight:none;stroke:none; fill:#333399" text-anchor="left"><tspan dy="14" x="522">Devolver</tspan></text></g><g componentSequence="16"><text x="207" y="209" style="font-size:10px;font-weight:none;stroke:none; fill:#333399" text-anchor="left" /></g><g componentSequence="26"><text x="820" y="454" style="font-size:10px;font-weight:none;stroke:none; fill:#333399" text-anchor="left"><tspan dy="14" x="820">Aprobar</tspan></text></g><g componentSequence="28"><text x="580" y="450" style="font-size:10px;font-weight:none;stroke:none; fill:#333399" text-anchor="left"><tspan dy="14" x="580">Devolver</tspan></text></g><g componentSequence="29"><text x="697" y="591" style="font-size:10px;font-weight:none;stroke:none; fill:#333399" text-anchor="left"><tspan dy="14" x="697">Devolver</tspan></text></g><g componentSequence="36"><text x="830" y="350" style="font-size:10px;font-weight:none;stroke:none; fill:#333399" text-anchor="left"><tspan dy="14" x="830">Rechazar</tspan></text></g><g componentSequence="37"><text x="1022" y="218" style="font-size:10px;font-weight:none;stroke:none; fill:#333399" text-anchor="left"><tspan dy="14" x="1022">Rechazar</tspan></text></g><g componentSequence="38"><text x="820" y="90" style="font-size:10px;font-weight:none;stroke:none; fill:#333399" text-anchor="left"><tspan dy="14" x="820">Rechazar</tspan></text></g><g componentSequence="39"><text x="505" y="164" style="font-size:10px;font-weight:none;stroke:none; fill:#333399" text-anchor="left" /></g><g componentSequence="40"><text x="666" y="247" style="font-size:10px;font-weight:none;stroke:none; fill:#333399" text-anchor="left"><tspan dy="14" x="666">Aprobar</tspan></text></g><g componentSequence="48"><text x="1072" y="69" style="font-size:10px;font-weight:none;stroke:none; fill:#333399" text-anchor="left" /></g><g componentSequence="49"><text x="1407" y="117" style="font-size:10px;font-weight:none;stroke:none; fill:#333399" text-anchor="left" /></g><g componentSequence="52"><text x="144" y="148" style="font-size:10px;font-weight:none;stroke:none; fill:#333399" text-anchor="left" /></g><g componentSequence="54"><text x="1215" y="282" style="font-size:10px;font-weight:none;stroke:none; fill:#333399" text-anchor="left" /></g><g componentSequence="56"><text x="1274" y="107" style="font-size:10px;font-weight:none;stroke:none; fill:#333399" text-anchor="left" /></g><g componentSequence="58"><text x="1387" y="41" style="font-size:10px;font-weight:none;stroke:none; fill:#333399" text-anchor="left" /></g><g componentSequence="59"><text x="1268" y="150" style="font-size:10px;font-weight:none;stroke:none; fill:#333399" text-anchor="left" /></g><g componentSequence="60"><text x="973" y="548" style="font-size:10px;font-weight:none;stroke:none; fill:#333399" text-anchor="left" /></g><g componentSequence="61"><text x="1059" y="343" style="font-size:10px;font-weight:none;stroke:none; fill:#333399" text-anchor="left" /></g><g componentSequence="62"><text x="1060" y="450" style="font-size:10px;font-weight:none;stroke:none; fill:#333399" text-anchor="left"><tspan dy="14" x="1060">Aprobar</tspan></text></g><g componentSequence="66"><text x="1344" y="282" style="font-size:10px;font-weight:none;stroke:none; fill:#333399" text-anchor="left" /></g><g componentSequence="67"><text x="1367" y="146" style="font-size:10px;font-weight:none;stroke:none; fill:#333399" text-anchor="left" /></g><g componentSequence="68"><text x="1388" y="107" style="font-size:10px;font-weight:none;stroke:none; fill:#333399" text-anchor="left" /></g><path style="fill:none; stroke:#000000;stroke-width:1" d="M144.0 209.0 L249.0 209.0" /><polygon style="fill:#000000; stroke:#000000;" points=" 239 204 249 209 239 214 241 209" /><path style="fill:none; stroke:#000000;stroke-dasharray:2" d="M139.0 105.0 L129.0 192.0" /><path style="fill:none; stroke:#000000;stroke-width:1" d="M310.0 210.0 L509.0 210.0" /><polygon style="fill:#000000; stroke:#000000;" points=" 499 205 509 210 499 215 501 210" /><path style="fill:none; stroke:#000000;stroke-width:1" d="M279.0 254.0 L277.0 492.0 L633.0 492.0 L699.0 479.0" /><polygon style="fill:#000000; stroke:#000000;" points=" 688 476 699 479 690 486 691 481" /><path style="fill:none; stroke:#000000;stroke-width:1" d="M561.0 153.0 L560.0 76.0 L496.0 77.0" /><polygon style="fill:#000000; stroke:#000000;" points=" 506 82 496 77 506 72 504 77" /><path style="fill:none; stroke:#000000;stroke-width:1" d="M616.0 193.0 L980.0 82.0" /><polygon style="fill:#000000; stroke:#000000;" points=" 969 80 980 82 972 90 972 84" /><path style="fill:none; stroke:#000000;stroke-width:1" d="M616.0 220.0 L752.0 245.0 L752.0 419.0" /><polygon style="fill:#000000; stroke:#000000;" points=" 757 409 752 419 747 409 752 411" /><path style="fill:none; stroke:#000000;stroke-width:1" d="M699.0 468.0 L560.0 468.0 L562.0 266.0" /><polygon style="fill:#000000; stroke:#000000;" points=" 557 276 562 266 567 276 562 274" /><path style="fill:none; stroke:#000000;stroke-width:1" d="M929.0 605.0 L560.0 604.0 L562.0 266.0" /><polygon style="fill:#000000; stroke:#000000;" points=" 557 276 562 266 567 276 562 274" /><path style="fill:none; stroke:#000000;stroke-width:1" d="M468.0 120.0 L517.0 200.0 L509.0 198.0" /><polygon style="fill:#000000; stroke:#000000;" points=" 517 205 509 198 520 196 517 200" /><path style="fill:none; stroke:#000000;stroke-width:1" d="M806.0 472.0 L909.0 479.0" /><polygon style="fill:#000000; stroke:#000000;" points=" 899 473 909 479 899 483 901 478" /><path style="fill:none; stroke:#000000;stroke-width:1" d="M783.0 419.0 L988.0 92.0" /><polygon style="fill:#000000; stroke:#000000;" points=" 978 98 988 92 987 103 984 99" /><path style="fill:none; stroke:#000000;stroke-width:1" d="M984.0 556.0 L997.0 94.0" /><polygon style="fill:#000000; stroke:#000000;" points=" 992 104 997 94 1002 104 997 102" /><path style="fill:none; stroke:#000000;stroke-width:1" d="M1005.0 556.0 L1144.0 244.0" /><polygon style="fill:#000000; stroke:#000000;" points=" 1135 251 1144 244 1144 255 1141 251" /><path style="fill:none; stroke:#000000;stroke-width:1" d="M960.0 539.0 L966.0 556.0" /><polygon style="fill:#000000; stroke:#000000;" points=" 967 545 966 556 958 548 963 548" /><path style="fill:none; stroke:#000000;stroke-width:1" d="M970.0 442.0 L1129.0 244.0" /><polygon style="fill:#000000; stroke:#000000;" points=" 1119 249 1129 244 1127 255 1124 250" /><path style="fill:none; stroke:#000000;stroke-dasharray:2" d="M1109.0 63.0 L1014.0 75.0" /><path style="fill:none; stroke:#000000;stroke-width:1" d="M1287.0 319.0 L1380.0 244.0" /><polygon style="fill:#000000; stroke:#000000;" points=" 1369 246 1380 244 1375 254 1374 249" /><path style="fill:none; stroke:#000000;stroke-width:1" d="M1185.0 244.0 L1224.0 319.0" /><polygon style="fill:#000000; stroke:#000000;" points=" 1224 308 1224 319 1215 312 1220 312" /><path style="fill:none; stroke:#000000;stroke-dasharray:2" d="M1459.0 117.0 L1335.0 117.0" /><path style="fill:none; stroke:#000000;stroke-width:1" d="M1216.0 172.0 L1302.0 125.0" /><polygon style="fill:#000000; stroke:#000000;" points=" 1291 125 1302 125 1296 134 1295 129" /><path style="fill:none; stroke:#000000;stroke-width:1" d="M1379.0 162.0 L1331.0 127.0" /><polygon style="fill:#000000; stroke:#000000;" points=" 1336 137 1331 127 1342 129 1337 132" /><path style="fill:none; stroke:#000000;stroke-width:1" d="M1208.0 159.0 L1324.0 49.0" /><polygon style="fill:#000000; stroke:#000000;" points=" 1313 52 1324 49 1320 60 1318 55" /><path style="fill:none; stroke:#000000;stroke-dasharray:2" d="M1399.0 43.0 L1354.0 38.0" /><path style="fill:none; stroke:#000000;stroke-width:1" d="M1408.0 159.0 L1346.0 52.0" /><polygon style="fill:#000000; stroke:#000000;" points=" 1347 63 1346 52 1355 58 1350 59" /><defs><linearGradient xmlns:xlink="http://www.w3.org/1999/xlink" xlink:href="#linearGradient66FF6696FF96B6FFB6" id="linearGradient66FF6696FF96B6FFB6_118334792" x1="0" y1="192.0" x2="0" y2="227.0" gradientUnits="userSpaceOnUse" xlink:type="simple" xlink:actuate="onLoad" xlink:show="other" /><linearGradient id="linearGradient66FF6696FF96B6FFB6"><stop style="stop-color:#66FF66;stop-opacity:1;" offset="0.0" id="stop66FF66" /><stop style="stop-color:#96FF96;stop-opacity:1;" offset="0.5" id="stop96FF96" /><stop style="stop-color:#B6FFB6;stop-opacity:1;" offset="1.0" id="stopB6FFB6" /></linearGradient><linearGradient xmlns:xlink="http://www.w3.org/1999/xlink" xlink:href="#linearGradientFAFBFCFFFFCC" id="linearGradientFAFBFCFFFFCC_164256729" x1="0" y1="166.0" x2="0" y2="226.0" gradientUnits="userSpaceOnUse" xlink:type="simple" xlink:actuate="onLoad" xlink:show="other" /><linearGradient id="linearGradientFAFBFCFFFFCC"><stop style="stop-color:#FAFBFC;stop-opacity:1;" offset="0.0" id="stopFAFBFC" /><stop style="stop-color:#FFFFCC;stop-opacity:1;" offset="1.0" id="stopFFFFCC" /></linearGradient><linearGradient xmlns:xlink="http://www.w3.org/1999/xlink" xlink:href="#linearGradientF8FBFEEDF5FCDEEDFAD4E7F8E2E5E9" id="linearGradientF8FBFEEDF5FCDEEDFAD4E7F8E2E5E9_234212920" x1="0" y1="154.0" x2="0" y2="260.0" gradientUnits="userSpaceOnUse" xlink:type="simple" xlink:actuate="onLoad" xlink:show="other" /><linearGradient id="linearGradientF8FBFEEDF5FCDEEDFAD4E7F8E2E5E9"><stop style="stop-color:#F8FBFE;stop-opacity:1;" offset="0.0" id="stopF8FBFE" /><stop style="stop-color:#EDF5FC;stop-opacity:1;" offset="0.25" id="stopEDF5FC" /><stop style="stop-color:#DEEDFA;stop-opacity:1;" offset="0.5" id="stopDEEDFA" /><stop style="stop-color:#D4E7F8;stop-opacity:1;" offset="0.75" id="stopD4E7F8" /><stop style="stop-color:#E2E5E9;stop-opacity:1;" offset="1.0" id="stopE2E5E9" /></linearGradient><linearGradient xmlns:xlink="http://www.w3.org/1999/xlink" xlink:href="#linearGradientF8FBFEEDF5FCDEEDFAD4E7F8E2E5E9" id="linearGradientF8FBFEEDF5FCDEEDFAD4E7F8E2E5E9_1224167906" x1="0" y1="420.0" x2="0" y2="526.0" gradientUnits="userSpaceOnUse" xlink:type="simple" xlink:actuate="onLoad" xlink:show="other" /><linearGradient xmlns:xlink="http://www.w3.org/1999/xlink" xlink:href="#linearGradientF8FBFEEDF5FCDEEDFAD4E7F8E2E5E9" id="linearGradientF8FBFEEDF5FCDEEDFAD4E7F8E2E5E9_582650449" x1="0" y1="36.0" x2="0" y2="142.0" gradientUnits="userSpaceOnUse" xlink:type="simple" xlink:actuate="onLoad" xlink:show="other" /><linearGradient xmlns:xlink="http://www.w3.org/1999/xlink" xlink:href="#linearGradientF8FBFEEDF5FCDEEDFAD4E7F8E2E5E9" id="linearGradientF8FBFEEDF5FCDEEDFAD4E7F8E2E5E9_2037717324" x1="0" y1="557.0" x2="0" y2="663.0" gradientUnits="userSpaceOnUse" xlink:type="simple" xlink:actuate="onLoad" xlink:show="other" /><linearGradient xmlns:xlink="http://www.w3.org/1999/xlink" xlink:href="#linearGradientFAFBFCFFFFCC" id="linearGradientFAFBFCFFFFCC_1523752020" x1="0" y1="423.0" x2="0" y2="483.0" gradientUnits="userSpaceOnUse" xlink:type="simple" xlink:actuate="onLoad" xlink:show="other" /><linearGradient xmlns:xlink="http://www.w3.org/1999/xlink" xlink:href="#linearGradientFF6666FF9696FFB6B6" id="linearGradientFF6666FF9696FFB6B6_685289133" x1="0" y1="60.0" x2="0" y2="95.0" gradientUnits="userSpaceOnUse" xlink:type="simple" xlink:actuate="onLoad" xlink:show="other" /><linearGradient id="linearGradientFF6666FF9696FFB6B6"><stop style="stop-color:#FF6666;stop-opacity:1;" offset="0.0" id="stopFF6666" /><stop style="stop-color:#FF9696;stop-opacity:1;" offset="0.5" id="stopFF9696" /><stop style="stop-color:#FFB6B6;stop-opacity:1;" offset="1.0" id="stopFFB6B6" /></linearGradient><linearGradient xmlns:xlink="http://www.w3.org/1999/xlink" xlink:href="#linearGradientF8FBFEEDF5FCDEEDFAD4E7F8E2E5E9" id="linearGradientF8FBFEEDF5FCDEEDFAD4E7F8E2E5E9_1581662693" x1="0" y1="320.0" x2="0" y2="426.0" gradientUnits="userSpaceOnUse" xlink:type="simple" xlink:actuate="onLoad" xlink:show="other" /><linearGradient xmlns:xlink="http://www.w3.org/1999/xlink" xlink:href="#linearGradientFF6666FF9696FFB6B6" id="linearGradientFF6666FF9696FFB6B6_254315544" x1="0" y1="100.0" x2="0" y2="135.0" gradientUnits="userSpaceOnUse" xlink:type="simple" xlink:actuate="onLoad" xlink:show="other" /><linearGradient xmlns:xlink="http://www.w3.org/1999/xlink" xlink:href="#linearGradientF8FBFEEDF5FCDEEDFAD4E7F8E2E5E9" id="linearGradientF8FBFEEDF5FCDEEDFAD4E7F8E2E5E9_1104581013" x1="0" y1="160.0" x2="0" y2="266.0" gradientUnits="userSpaceOnUse" xlink:type="simple" xlink:actuate="onLoad" xlink:show="other" /><linearGradient xmlns:xlink="http://www.w3.org/1999/xlink" xlink:href="#linearGradientFF6666FF9696FFB6B6" id="linearGradientFF6666FF9696FFB6B6_748090052" x1="0" y1="20.0" x2="0" y2="55.0" gradientUnits="userSpaceOnUse" xlink:type="simple" xlink:actuate="onLoad" xlink:show="other" /><linearGradient xmlns:xlink="http://www.w3.org/1999/xlink" xlink:href="#linearGradientF8FBFEEDF5FCDEEDFAD4E7F8E2E5E9" id="linearGradientF8FBFEEDF5FCDEEDFAD4E7F8E2E5E9_1085523930" x1="0" y1="160.0" x2="0" y2="266.0" gradientUnits="userSpaceOnUse" xlink:type="simple" xlink:actuate="onLoad" xlink:show="other" /></defs></svg>
