<?xml version="1.0" encoding="UTF-8"?>
<svg xmlns="http://www.w3.org/2000/svg" style="stroke-dasharray:none; shape-rendering:auto; font-family:'Arial'; text-rendering:auto; fill-opacity:1; color-interpolation:auto; color-rendering:auto; font-size:12; fill:black; stroke:black; image-rendering:auto; stroke-miterlimit:10; stroke-linecap:square; stroke-linejoin:miter; font-style:normal; stroke-width:1; stroke-dashoffset:0; font-weight:normal; stroke-opacity:1;" contentScriptType="text/ecmascript" preserveAspectRatio="xMidYMid meet" zoomAndPan="magnify" version="1.0" contentStyleType="text/css" xml:xlink="http://www.w3.org/1999/xlink" width="3860" height="995"><rect x="0" y="508" width="3860" height="163" ry="0" rx="0" style="stroke:#000000; fill:#FFFF99" /><g componentSequence="3"><text x="-589" y="7" transform="rotate(270)" text-anchor="middle" style="font-weight:bold;font-size:10px;stroke:none; fill:#434343"><tspan dy="14" x="-589">Gerencia de Operaciones</tspan></text></g><rect x="0" y="139" width="3860" height="369" ry="0" rx="0" style="stroke:#000000; fill:#FFFFCC" /><g componentSequence="6"><text x="-323" y="7" transform="rotate(270)" text-anchor="middle" style="font-weight:bold;font-size:10px;stroke:none; fill:#434343"><tspan dy="14" x="-323">Gerencia de Compras</tspan></text></g><rect x="0" y="829" width="3860" height="166" ry="0" rx="0" style="stroke:#000000; fill:#FFFF99" /><g componentSequence="5"><text x="-912" y="7" transform="rotate(270)" text-anchor="middle" style="font-weight:bold;font-size:10px;stroke:none; fill:#434343"><tspan dy="14" x="-912">Directorio</tspan></text></g><rect x="0" y="1" width="3860" height="139" ry="0" rx="0" style="stroke:#000000; fill:#FFFF99" /><g componentSequence="7"><text x="-70" y="7" transform="rotate(270)" text-anchor="middle" style="font-weight:bold;font-size:10px;stroke:none; fill:#434343"><tspan dy="14" x="-70">Legales</tspan></text></g><rect x="0" y="671" width="3860" height="162" ry="0" rx="0" style="stroke:#000000; fill:#FFFFCC" /><g componentSequence="4"><text x="-752" y="7" transform="rotate(270)" text-anchor="middle" style="font-weight:bold;font-size:10px;stroke:none; fill:#434343"><tspan dy="14" x="-752">Gerencia General</tspan></text></g><g sequence="1"><ellipse cx="117" cy="327" rx="17" ry="17" stroke-width="1" style="fill:url(#linearGradient66FF6696FF96B6FFB6_671771804);" stroke="336633" /></g><g sequence="7"><rect x="240" y="37" width="106" height="70" ry="5" rx="5" style="fill:url(#linearGradientF8FBFEEDF5FCDEEDFAD4E7F8E2E5E9_1147177549);" stroke="191970" /></g><g componentSequence="7"><text x="293" y="52" text-anchor="middle" style="font-weight:bold;font-size:10px;stroke:none; fill:#333399"><tspan dy="14" x="293">Validar Pre</tspan><tspan dy="14" x="293">Contrato</tspan></text></g><g sequence="29"><rect x="2430" y="244" width="106" height="84" ry="5" rx="5" style="fill:url(#linearGradientF8FBFEEDF5FCDEEDFAD4E7F8E2E5E9_504883277);" stroke="191970" /></g><g componentSequence="29"><text x="2483" y="259" text-anchor="middle" style="font-weight:bold;font-size:10px;stroke:none; fill:#333399"><tspan dy="14" x="2483">Adjuntar</tspan><tspan dy="14" x="2483">Contrato</tspan><tspan dy="14" x="2483">Firmado</tspan></text></g><g sequence="31"><ellipse cx="3106" cy="168" rx="17" ry="17" stroke-width="3" style="fill:url(#linearGradientFF6666FF9696FFB6B6_865347242);" stroke="993333" /></g><g sequence="32"><ellipse cx="3247" cy="772" rx="17" ry="17" stroke-width="3" style="fill:url(#linearGradientFF6666FF9696FFB6B6_1131838810);" stroke="993333" /></g><g sequence="33"><rect x="2805" y="244" width="106" height="70" ry="5" rx="5" style="fill:url(#linearGradientF8FBFEEDF5FCDEEDFAD4E7F8E2E5E9_404734544);" stroke="191970" /></g><g componentSequence="33"><text x="2858" y="268" text-anchor="middle" style="font-weight:bold;font-size:10px;stroke:none; fill:#333399"><tspan dy="14" x="2858">Contrato Vigente</tspan></text></g><g sequence="34"><rect x="310" y="386" width="106" height="56" ry="5" rx="5" style="fill:url(#linearGradientF8FBFEEDF5FCDEEDFAD4E7F8E2E5E9_1292770959);" stroke="191970" /></g><g componentSequence="34"><text x="363" y="403" text-anchor="middle" style="font-weight:bold;font-size:10px;stroke:none; fill:#333399"><tspan dy="14" x="363">Revisión</tspan></text></g><g sequence="35"><rect x="505" y="253" width="106" height="70" ry="5" rx="5" style="fill:url(#linearGradientF8FBFEEDF5FCDEEDFAD4E7F8E2E5E9_1509451214);" stroke="191970" /></g><g componentSequence="35"><text x="558" y="268" text-anchor="middle" style="font-weight:bold;font-size:10px;stroke:none; fill:#333399"><tspan dy="14" x="558">Adjuntar</tspan><tspan dy="14" x="558">Documentación</tspan></text></g><g sequence="36"><rect x="857" y="251" width="106" height="84" ry="5" rx="5" style="fill:url(#linearGradientF8FBFEEDF5FCDEEDFAD4E7F8E2E5E9_1122231687);" stroke="191970" /></g><g componentSequence="36"><text x="910" y="266" text-anchor="middle" style="font-weight:bold;font-size:10px;stroke:none; fill:#333399"><tspan dy="14" x="910">Aprobación Jefe</tspan><tspan dy="14" x="910">de Compras</tspan></text></g><g sequence="38"><rect x="1130" y="392" width="106" height="84" ry="5" rx="5" style="fill:url(#linearGradientF8FBFEEDF5FCDEEDFAD4E7F8E2E5E9_2146575455);" stroke="191970" /></g><g componentSequence="38"><text x="1183" y="407" text-anchor="middle" style="font-weight:bold;font-size:10px;stroke:none; fill:#333399"><tspan dy="14" x="1183">Aprobación</tspan><tspan dy="14" x="1183">Gerente de</tspan><tspan dy="14" x="1183">Compras</tspan></text></g><g sequence="39"><rect x="1463" y="572" width="106" height="84" ry="5" rx="5" style="fill:url(#linearGradientF8FBFEEDF5FCDEEDFAD4E7F8E2E5E9_1915886232);" stroke="191970" /></g><g componentSequence="39"><text x="1516" y="587" text-anchor="middle" style="font-weight:bold;font-size:10px;stroke:none; fill:#333399"><tspan dy="14" x="1516">Aprobación</tspan><tspan dy="14" x="1516">Gerente de</tspan><tspan dy="14" x="1516">Operaciones</tspan></text></g><g sequence="41"><rect x="1810" y="734" width="106" height="84" ry="5" rx="5" style="fill:url(#linearGradientF8FBFEEDF5FCDEEDFAD4E7F8E2E5E9_930098106);" stroke="191970" /></g><g componentSequence="41"><text x="1863" y="749" text-anchor="middle" style="font-weight:bold;font-size:10px;stroke:none; fill:#333399"><tspan dy="14" x="1863">Aprobación</tspan><tspan dy="14" x="1863">Gerente General</tspan></text></g><g sequence="42"><rect x="2040" y="872" width="106" height="84" ry="5" rx="5" style="fill:url(#linearGradientF8FBFEEDF5FCDEEDFAD4E7F8E2E5E9_625401029);" stroke="191970" /></g><g componentSequence="42"><text x="2093" y="887" text-anchor="middle" style="font-weight:bold;font-size:10px;stroke:none; fill:#333399"><tspan dy="14" x="2093">Aprobación</tspan><tspan dy="14" x="2093">Presidente del</tspan><tspan dy="14" x="2093">Directorio</tspan></text></g><g sequence="43"><rect x="3135" y="240" width="106" height="84" ry="5" rx="5" style="fill:url(#linearGradientF8FBFEEDF5FCDEEDFAD4E7F8E2E5E9_1330125985);" stroke="191970" /></g><g componentSequence="43"><text x="3188" y="255" text-anchor="middle" style="font-weight:bold;font-size:10px;stroke:none; fill:#333399"><tspan dy="14" x="3188">Contrato</tspan><tspan dy="14" x="3188">Próximo a</tspan><tspan dy="14" x="3188">Vencer</tspan></text></g><g sequence="44"><ellipse cx="3596" cy="400" rx="17" ry="17" stroke-width="3" style="fill:url(#linearGradientFF6666FF9696FFB6B6_122664625);" stroke="993333" /></g><g sequence="45"><rect x="3534" y="238" width="106" height="70" ry="5" rx="5" style="fill:url(#linearGradientF8FBFEEDF5FCDEEDFAD4E7F8E2E5E9_40051255);" stroke="191970" /></g><g componentSequence="45"><text x="3587" y="253" text-anchor="middle" style="font-weight:bold;font-size:10px;stroke:none; fill:#333399"><tspan dy="14" x="3587">Contrato</tspan><tspan dy="14" x="3587">Vencido</tspan></text></g><g sequence="48"><polygon points=" 1196 223 1226 193 1256 223 1226 253 1196 223" style="fill:url(#linearGradientFAFBFCFFFFCC_979061274);" stroke="000000" /></g><g componentSequence="48"><text x="1226" y="263" text-anchor="middle" style="font-weight:bold;font-size:10px;stroke:none; fill:#333399"><tspan dy="14" x="1226">Requiere</tspan><tspan dy="14" x="1226">Aprobac</tspan><tspan dy="14" x="1226">...</tspan></text></g><g sequence="49"><polygon points=" 1533 365 1563 335 1593 365 1563 395 1533 365" style="fill:url(#linearGradientFAFBFCFFFFCC_1063128804);" stroke="000000" /></g><g componentSequence="49"><text x="1563" y="405" text-anchor="middle" style="font-weight:bold;font-size:10px;stroke:none; fill:#333399"><tspan dy="14" x="1563">Requiere</tspan><tspan dy="14" x="1563">Aprobac</tspan><tspan dy="14" x="1563">...</tspan></text></g><g sequence="50"><polygon points=" 1859 544 1889 514 1919 544 1889 574 1859 544" style="fill:url(#linearGradientFAFBFCFFFFCC_941865788);" stroke="000000" /></g><g componentSequence="50"><text x="1889" y="584" text-anchor="middle" style="font-weight:bold;font-size:10px;stroke:none; fill:#333399"><tspan dy="14" x="1889">Requiere</tspan><tspan dy="14" x="1889">Aprobac</tspan><tspan dy="14" x="1889">...</tspan></text></g><g sequence="51"><polygon points=" 2115 707 2145 677 2175 707 2145 737 2115 707" style="fill:url(#linearGradientFAFBFCFFFFCC_836336879);" stroke="000000" /></g><g componentSequence="51"><text x="2145" y="747" text-anchor="middle" style="font-weight:bold;font-size:10px;stroke:none; fill:#333399"><tspan dy="14" x="2145">Requiere</tspan><tspan dy="14" x="2145">Aprobac</tspan><tspan dy="14" x="2145">...</tspan></text></g><rect x="70" y="400" width="105" height="83" ry="5" rx="5" style="stroke:none; fill:#FFFFE0" /><g componentSequence="1"><text x="80" y="423" text-anchor="left" style="font-weight:bold;font-size:10px;stroke:none; fill:#000000"><tspan dy="14" x="80">Carga del</tspan><tspan dy="14" x="80">Requerimiento</tspan><tspan dy="14" x="80">y Selección del</tspan><tspan dy="14" x="80">Proveedor</tspan></text></g><path style="fill:none; stroke-width:1; stroke:#000000;" d="M90.0 400.0 L70.0 400.0 L70.0 483.0 L90.0 483.0" /><rect x="3059" y="57" width="105" height="55" ry="5" rx="5" style="stroke:none; fill:#FFFFE0" /><g componentSequence="2"><text x="3069" y="80" text-anchor="left" style="font-weight:bold;font-size:10px;stroke:none; fill:#000000"><tspan dy="14" x="3069">Contrato</tspan><tspan dy="14" x="3069">Revocado</tspan></text></g><path style="fill:none; stroke-width:1; stroke:#000000;" d="M3079.0 57.0 L3059.0 57.0 L3059.0 112.0 L3079.0 112.0" /><rect x="3718" y="403" width="105" height="55" ry="5" rx="5" style="stroke:none; fill:#FFFFE0" /><g componentSequence="3"><text x="3728" y="426" text-anchor="left" style="font-weight:bold;font-size:10px;stroke:none; fill:#000000"><tspan dy="14" x="3728">Contrato</tspan><tspan dy="14" x="3728">Finalizado</tspan></text></g><path style="fill:none; stroke-width:1; stroke:#000000;" d="M3738.0 403.0 L3718.0 403.0 L3718.0 458.0 L3738.0 458.0" /><rect x="3379" y="725" width="105" height="55" ry="5" rx="5" style="stroke:none; fill:#FFFFE0" /><g componentSequence="4"><text x="3389" y="748" text-anchor="left" style="font-weight:bold;font-size:10px;stroke:none; fill:#000000"><tspan dy="14" x="3389">Contrato</tspan><tspan dy="14" x="3389">Cancelado</tspan></text></g><path style="fill:none; stroke-width:1; stroke:#000000;" d="M3399.0 725.0 L3379.0 725.0 L3379.0 780.0 L3399.0 780.0" /><g componentSequence="7"><text x="339" y="246" style="font-size:10px;font-weight:none;stroke:none; fill:#333399" text-anchor="left" /></g><g componentSequence="37"><text x="2680" y="283" style="font-size:10px;font-weight:none;stroke:none; fill:#333399" text-anchor="left" /></g><g componentSequence="58"><text x="1798" y="426" style="font-size:10px;font-weight:none;stroke:none; fill:#333399" text-anchor="left" /></g><g componentSequence="59"><text x="435" y="180" style="font-size:10px;font-weight:none;stroke:none; fill:#333399" text-anchor="left" /></g><g componentSequence="60"><text x="744" y="290" style="font-size:10px;font-weight:none;stroke:none; fill:#333399" text-anchor="left" /></g><g componentSequence="61"><text x="339" y="246" style="font-size:10px;font-weight:none;stroke:none; fill:#333399" text-anchor="left" /></g><g componentSequence="62"><text x="646" y="353" style="font-size:10px;font-weight:none;stroke:none; fill:#333399" text-anchor="left" /></g><g componentSequence="63"><text x="1089" y="270" style="font-size:10px;font-weight:none;stroke:none; fill:#333399" text-anchor="left" /></g><g componentSequence="64"><text x="2106" y="536" style="font-size:10px;font-weight:none;stroke:none; fill:#333399" text-anchor="left" /></g><g componentSequence="68"><text x="3010" y="216" style="font-size:10px;font-weight:none;stroke:none; fill:#333399" text-anchor="left" /></g><g componentSequence="70"><text x="3033" y="280" style="font-size:10px;font-weight:none;stroke:none; fill:#333399" text-anchor="left" /></g><g componentSequence="71"><text x="3397" y="277" style="font-size:10px;font-weight:none;stroke:none; fill:#333399" text-anchor="left" /></g><g componentSequence="73"><text x="3602" y="345" style="font-size:10px;font-weight:none;stroke:none; fill:#333399" text-anchor="left" /></g><g componentSequence="77"><text x="209" y="208" style="font-size:10px;font-weight:none;stroke:none; fill:#333399" text-anchor="left" /></g><g componentSequence="78"><text x="1394" y="412" style="font-size:10px;font-weight:none;stroke:none; fill:#333399" text-anchor="left" /></g><g componentSequence="79"><text x="783" y="424" style="font-size:10px;font-weight:none;stroke:none; fill:#333399" text-anchor="left" /></g><g componentSequence="80"><text x="2243" y="606" style="font-size:10px;font-weight:none;stroke:none; fill:#333399" text-anchor="left" /></g><g componentSequence="81"><text x="949" y="514" style="font-size:10px;font-weight:none;stroke:none; fill:#333399" text-anchor="left" /></g><g componentSequence="82"><text x="2409" y="694" style="font-size:10px;font-weight:none;stroke:none; fill:#333399" text-anchor="left" /></g><g componentSequence="83"><text x="1724" y="592" style="font-size:10px;font-weight:none;stroke:none; fill:#333399" text-anchor="left" /></g><g componentSequence="84"><text x="1213" y="350" style="font-size:10px;font-weight:none;stroke:none; fill:#333399" text-anchor="left" /></g><g componentSequence="85"><text x="1548" y="511" style="font-size:10px;font-weight:none;stroke:none; fill:#333399" text-anchor="left" /></g><g componentSequence="86"><text x="1885" y="682" style="font-size:10px;font-weight:none;stroke:none; fill:#333399" text-anchor="left" /></g><g componentSequence="87"><text x="1123" y="595" style="font-size:10px;font-weight:none;stroke:none; fill:#333399" text-anchor="left" /></g><g componentSequence="88"><text x="2583" y="774" style="font-size:10px;font-weight:none;stroke:none; fill:#333399" text-anchor="left" /></g><g componentSequence="89"><text x="2025" y="754" style="font-size:10px;font-weight:none;stroke:none; fill:#333399" text-anchor="left" /></g><g componentSequence="90"><text x="2127" y="832" style="font-size:10px;font-weight:none;stroke:none; fill:#333399" text-anchor="left" /></g><g componentSequence="91"><text x="1238" y="664" style="font-size:10px;font-weight:none;stroke:none; fill:#333399" text-anchor="left" /></g><g componentSequence="92"><text x="2698" y="841" style="font-size:10px;font-weight:none;stroke:none; fill:#333399" text-anchor="left" /></g><g componentSequence="93"><text x="2298" y="600" style="font-size:10px;font-weight:none;stroke:none; fill:#333399" text-anchor="left" /></g><g componentSequence="94"><text x="2323" y="511" style="font-size:10px;font-weight:none;stroke:none; fill:#333399" text-anchor="left" /></g><g componentSequence="95"><text x="2184" y="434" style="font-size:10px;font-weight:none;stroke:none; fill:#333399" text-anchor="left" /></g><g componentSequence="96"><text x="2021" y="341" style="font-size:10px;font-weight:none;stroke:none; fill:#333399" text-anchor="left" /></g><g componentSequence="97"><text x="1853" y="268" style="font-size:10px;font-weight:none;stroke:none; fill:#333399" text-anchor="left" /></g><g componentSequence="98"><text x="3420" y="346" style="font-size:10px;font-weight:none;stroke:none; fill:#333399" text-anchor="left" /></g><g componentSequence="99"><text x="1433" y="350" style="font-size:10px;font-weight:none;stroke:none; fill:#333399" text-anchor="left" /></g><g componentSequence="1"><text x="129" y="372" style="font-size:10px;font-weight:none;stroke:none; fill:#333399" text-anchor="left" /></g><g componentSequence="2"><text x="3118" y="131" style="font-size:10px;font-weight:none;stroke:none; fill:#333399" text-anchor="left" /></g><g componentSequence="3"><text x="3676" y="412" style="font-size:10px;font-weight:none;stroke:none; fill:#333399" text-anchor="left" /></g><g componentSequence="4"><text x="3332" y="764" style="font-size:10px;font-weight:none;stroke:none; fill:#333399" text-anchor="left" /></g><path style="fill:none; stroke:#000000;stroke-width:1" d="M127.0 313.0 L268.0 107.0" /><polygon style="fill:#000000; stroke:#000000;" points=" 258 112 268 107 266 118 263 114" /><path style="fill:none; stroke:#000000;stroke-dasharray:2" d="M120.0 399.0 L117.0 344.0" /><path style="fill:none; stroke:#000000;stroke-width:1" d="M300.0 107.0 L357.0 385.0" /><polygon style="fill:#000000; stroke:#000000;" points=" 360 374 357 385 350 376 355 377" /><path style="fill:none; stroke:#000000;stroke-width:1" d="M346.0 84.0 L3230.0 768.0" /><polygon style="fill:#000000; stroke:#000000;" points=" 3221 761 3230 768 3219 771 3222 766" /><path style="fill:none; stroke:#000000;stroke-width:1" d="M336.0 107.0 L514.0 252.0" /><polygon style="fill:#000000; stroke:#000000;" points=" 509 242 514 252 503 250 508 247" /><path style="fill:none; stroke:#000000;stroke-width:1" d="M357.0 385.0 L300.0 107.0" /><polygon style="fill:#000000; stroke:#000000;" points=" 297 118 300 107 307 116 302 115" /><path style="fill:none; stroke:#000000;stroke-width:1" d="M2536.0 285.0 L2804.0 280.0" /><polygon style="fill:#000000; stroke:#000000;" points=" 2794 275 2804 280 2794 285 2796 280" /><path style="fill:none; stroke:#000000;stroke-width:1" d="M2429.0 289.0 L416.0 410.0" /><polygon style="fill:#000000; stroke:#000000;" points=" 426 414 416 410 426 404 424 410" /><path style="fill:none; stroke:#000000;stroke-width:1" d="M2119.0 871.0 L2456.0 328.0" /><polygon style="fill:#000000; stroke:#000000;" points=" 2446 334 2456 328 2455 339 2452 335" /><path style="fill:none; stroke:#000000;stroke-width:1" d="M2175.0 694.0 L2451.0 328.0" /><polygon style="fill:#000000; stroke:#000000;" points=" 2441 333 2451 328 2449 339 2446 334" /><path style="fill:none; stroke:#000000;stroke-width:1" d="M1919.0 557.0 L2429.0 311.0" /><polygon style="fill:#000000; stroke:#000000;" points=" 2418 311 2429 311 2422 320 2422 314" /><path style="fill:none; stroke:#000000;stroke-width:1" d="M1593.0 389.0 L2429.0 292.0" /><polygon style="fill:#000000; stroke:#000000;" points=" 2418 288 2429 292 2420 298 2421 293" /><path style="fill:none; stroke:#000000;stroke-width:1" d="M1256.0 251.0 L2429.0 284.0" /><polygon style="fill:#000000; stroke:#000000;" points=" 2419 279 2429 284 2419 289 2421 284" /><path style="fill:none; stroke:#000000;stroke-width:1" d="M2911.0 255.0 L3090.0 175.0" /><polygon style="fill:#000000; stroke:#000000;" points=" 3079 175 3090 175 3083 184 3083 178" /><path style="fill:none; stroke:#000000;stroke-dasharray:2" d="M3109.0 112.0 L3107.0 151.0" /><path style="fill:none; stroke:#000000;stroke-width:1" d="M963.0 303.0 L3230.0 769.0" /><polygon style="fill:#000000; stroke:#000000;" points=" 3221 762 3230 769 3219 772 3222 767" /><path style="fill:none; stroke:#000000;stroke-width:1" d="M1236.0 442.0 L3230.0 770.0" /><polygon style="fill:#000000; stroke:#000000;" points=" 3221 763 3230 770 3219 773 3222 769" /><path style="fill:none; stroke:#000000;stroke-width:1" d="M1569.0 618.0 L3230.0 771.0" /><polygon style="fill:#000000; stroke:#000000;" points=" 3221 765 3230 771 3220 775 3222 770" /><path style="fill:none; stroke:#000000;stroke-width:1" d="M1916.0 775.0 L3230.0 772.0" /><polygon style="fill:#000000; stroke:#000000;" points=" 3220 767 3230 772 3220 777 3222 772" /><path style="fill:none; stroke:#000000;stroke-width:1" d="M2146.0 907.0 L3230.0 774.0" /><polygon style="fill:#000000; stroke:#000000;" points=" 3219 770 3230 774 3221 780 3222 775" /><path style="fill:none; stroke:#000000;stroke-dasharray:2" d="M3378.0 758.0 L3264.0 771.0" /><path style="fill:none; stroke:#009600;stroke-width:1" d="M2911.0 279.0 L3134.0 281.0" /><polygon style="fill:#009600; stroke:#009600;" points=" 3124 276 3134 281 3124 286 3126 281" /><path style="fill:none; stroke:#000000;stroke-width:1" d="M856.0 304.0 L416.0 402.0" /><polygon style="fill:#000000; stroke:#000000;" points=" 427 405 416 402 425 395 424 400" /><path style="fill:none; stroke:#000000;stroke-width:1" d="M1129.0 432.0 L416.0 415.0" /><polygon style="fill:#000000; stroke:#000000;" points=" 426 420 416 415 426 410 424 415" /><path style="fill:none; stroke:#000000;stroke-width:1" d="M1462.0 604.0 L416.0 423.0" /><polygon style="fill:#000000; stroke:#000000;" points=" 425 430 416 423 427 420 424 424" /><path style="fill:none; stroke:#000000;stroke-width:1" d="M1809.0 763.0 L416.0 426.0" /><polygon style="fill:#000000; stroke:#000000;" points=" 425 433 416 426 427 423 424 428" /><path style="fill:none; stroke:#000000;stroke-width:1" d="M2039.0 898.0 L416.0 429.0" /><polygon style="fill:#000000; stroke:#000000;" points=" 424 437 416 429 427 427 424 431" /><path style="fill:none; stroke:#000000;stroke-width:1" d="M611.0 288.0 L856.0 292.0" /><polygon style="fill:#000000; stroke:#000000;" points=" 846 287 856 292 846 297 848 292" /><path style="fill:none; stroke:#000000;stroke-width:1" d="M963.0 285.0 L1195.0 255.0" /><polygon style="fill:#000000; stroke:#000000;" points=" 1184 251 1195 255 1186 261 1187 256" /><path style="fill:none; stroke:#000000;stroke-width:1" d="M1236.0 428.0 L1532.0 396.0" /><polygon style="fill:#000000; stroke:#000000;" points=" 1522 392 1532 396 1523 402 1524 397" /><path style="fill:none; stroke:#000000;stroke-width:1" d="M1212.0 309.0 L1193.0 391.0" /><polygon style="fill:#000000; stroke:#000000;" points=" 1200 382 1193 391 1190 380 1195 383" /><path style="fill:none; stroke:#000000;stroke-width:1" d="M1569.0 608.0 L1858.0 575.0" /><polygon style="fill:#000000; stroke:#000000;" points=" 1847 571 1858 575 1849 581 1850 576" /><path style="fill:none; stroke:#000000;stroke-width:1" d="M1550.0 451.0 L1525.0 571.0" /><polygon style="fill:#000000; stroke:#000000;" points=" 1532 562 1525 571 1522 560 1527 563" /><path style="fill:none; stroke:#000000;stroke-width:1" d="M1916.0 768.0 L2114.0 739.0" /><polygon style="fill:#000000; stroke:#000000;" points=" 2103 736 2114 739 2105 745 2106 740" /><path style="fill:none; stroke:#000000;stroke-width:1" d="M1881.0 630.0 L1868.0 733.0" /><polygon style="fill:#000000; stroke:#000000;" points=" 1874 724 1868 733 1864 722 1869 725" /><path style="fill:none; stroke:#000000;stroke-width:1" d="M2128.0 793.0 L2105.0 871.0" /><polygon style="fill:#000000; stroke:#000000;" points=" 2113 863 2105 871 2103 860 2107 863" /><path style="fill:none; stroke:#009600;stroke-width:1" d="M3241.0 280.0 L3533.0 274.0" /><polygon style="fill:#009600; stroke:#009600;" points=" 3523 269 3533 274 3523 279 3525 274" /><path style="fill:none; stroke:#000000;stroke-width:1" d="M3241.0 297.0 L3579.0 395.0" /><polygon style="fill:#000000; stroke:#000000;" points=" 3571 387 3579 395 3568 397 3571 393" /><path style="fill:none; stroke:#000000;stroke-width:1" d="M3589.0 308.0 L3595.0 383.0" /><polygon style="fill:#000000; stroke:#000000;" points=" 3599 373 3595 383 3589 373 3594 375" /><path style="fill:none; stroke:#000000;stroke-dasharray:2" d="M3717.0 421.0 L3613.0 403.0" /><defs><linearGradient xmlns:xlink="http://www.w3.org/1999/xlink" xlink:href="#linearGradient66FF6696FF96B6FFB6" id="linearGradient66FF6696FF96B6FFB6_671771804" x1="0" y1="310.0" x2="0" y2="345.0" gradientUnits="userSpaceOnUse" xlink:type="simple" xlink:actuate="onLoad" xlink:show="other" /><linearGradient id="linearGradient66FF6696FF96B6FFB6"><stop style="stop-color:#66FF66;stop-opacity:1;" offset="0.0" id="stop66FF66" /><stop style="stop-color:#96FF96;stop-opacity:1;" offset="0.5" id="stop96FF96" /><stop style="stop-color:#B6FFB6;stop-opacity:1;" offset="1.0" id="stopB6FFB6" /></linearGradient><linearGradient xmlns:xlink="http://www.w3.org/1999/xlink" xlink:href="#linearGradientF8FBFEEDF5FCDEEDFAD4E7F8E2E5E9" id="linearGradientF8FBFEEDF5FCDEEDFAD4E7F8E2E5E9_1147177549" x1="0" y1="37.0" x2="0" y2="143.0" gradientUnits="userSpaceOnUse" xlink:type="simple" xlink:actuate="onLoad" xlink:show="other" /><linearGradient id="linearGradientF8FBFEEDF5FCDEEDFAD4E7F8E2E5E9"><stop style="stop-color:#F8FBFE;stop-opacity:1;" offset="0.0" id="stopF8FBFE" /><stop style="stop-color:#EDF5FC;stop-opacity:1;" offset="0.25" id="stopEDF5FC" /><stop style="stop-color:#DEEDFA;stop-opacity:1;" offset="0.5" id="stopDEEDFA" /><stop style="stop-color:#D4E7F8;stop-opacity:1;" offset="0.75" id="stopD4E7F8" /><stop style="stop-color:#E2E5E9;stop-opacity:1;" offset="1.0" id="stopE2E5E9" /></linearGradient><linearGradient xmlns:xlink="http://www.w3.org/1999/xlink" xlink:href="#linearGradientF8FBFEEDF5FCDEEDFAD4E7F8E2E5E9" id="linearGradientF8FBFEEDF5FCDEEDFAD4E7F8E2E5E9_504883277" x1="0" y1="244.0" x2="0" y2="350.0" gradientUnits="userSpaceOnUse" xlink:type="simple" xlink:actuate="onLoad" xlink:show="other" /><linearGradient xmlns:xlink="http://www.w3.org/1999/xlink" xlink:href="#linearGradientFF6666FF9696FFB6B6" id="linearGradientFF6666FF9696FFB6B6_865347242" x1="0" y1="151.0" x2="0" y2="186.0" gradientUnits="userSpaceOnUse" xlink:type="simple" xlink:actuate="onLoad" xlink:show="other" /><linearGradient id="linearGradientFF6666FF9696FFB6B6"><stop style="stop-color:#FF6666;stop-opacity:1;" offset="0.0" id="stopFF6666" /><stop style="stop-color:#FF9696;stop-opacity:1;" offset="0.5" id="stopFF9696" /><stop style="stop-color:#FFB6B6;stop-opacity:1;" offset="1.0" id="stopFFB6B6" /></linearGradient><linearGradient xmlns:xlink="http://www.w3.org/1999/xlink" xlink:href="#linearGradientFF6666FF9696FFB6B6" id="linearGradientFF6666FF9696FFB6B6_1131838810" x1="0" y1="755.0" x2="0" y2="790.0" gradientUnits="userSpaceOnUse" xlink:type="simple" xlink:actuate="onLoad" xlink:show="other" /><linearGradient xmlns:xlink="http://www.w3.org/1999/xlink" xlink:href="#linearGradientF8FBFEEDF5FCDEEDFAD4E7F8E2E5E9" id="linearGradientF8FBFEEDF5FCDEEDFAD4E7F8E2E5E9_404734544" x1="0" y1="244.0" x2="0" y2="350.0" gradientUnits="userSpaceOnUse" xlink:type="simple" xlink:actuate="onLoad" xlink:show="other" /><linearGradient xmlns:xlink="http://www.w3.org/1999/xlink" xlink:href="#linearGradientF8FBFEEDF5FCDEEDFAD4E7F8E2E5E9" id="linearGradientF8FBFEEDF5FCDEEDFAD4E7F8E2E5E9_1292770959" x1="0" y1="386.0" x2="0" y2="492.0" gradientUnits="userSpaceOnUse" xlink:type="simple" xlink:actuate="onLoad" xlink:show="other" /><linearGradient xmlns:xlink="http://www.w3.org/1999/xlink" xlink:href="#linearGradientF8FBFEEDF5FCDEEDFAD4E7F8E2E5E9" id="linearGradientF8FBFEEDF5FCDEEDFAD4E7F8E2E5E9_1509451214" x1="0" y1="253.0" x2="0" y2="359.0" gradientUnits="userSpaceOnUse" xlink:type="simple" xlink:actuate="onLoad" xlink:show="other" /><linearGradient xmlns:xlink="http://www.w3.org/1999/xlink" xlink:href="#linearGradientF8FBFEEDF5FCDEEDFAD4E7F8E2E5E9" id="linearGradientF8FBFEEDF5FCDEEDFAD4E7F8E2E5E9_1122231687" x1="0" y1="251.0" x2="0" y2="357.0" gradientUnits="userSpaceOnUse" xlink:type="simple" xlink:actuate="onLoad" xlink:show="other" /><linearGradient xmlns:xlink="http://www.w3.org/1999/xlink" xlink:href="#linearGradientF8FBFEEDF5FCDEEDFAD4E7F8E2E5E9" id="linearGradientF8FBFEEDF5FCDEEDFAD4E7F8E2E5E9_2146575455" x1="0" y1="392.0" x2="0" y2="498.0" gradientUnits="userSpaceOnUse" xlink:type="simple" xlink:actuate="onLoad" xlink:show="other" /><linearGradient xmlns:xlink="http://www.w3.org/1999/xlink" xlink:href="#linearGradientF8FBFEEDF5FCDEEDFAD4E7F8E2E5E9" id="linearGradientF8FBFEEDF5FCDEEDFAD4E7F8E2E5E9_1915886232" x1="0" y1="572.0" x2="0" y2="678.0" gradientUnits="userSpaceOnUse" xlink:type="simple" xlink:actuate="onLoad" xlink:show="other" /><linearGradient xmlns:xlink="http://www.w3.org/1999/xlink" xlink:href="#linearGradientF8FBFEEDF5FCDEEDFAD4E7F8E2E5E9" id="linearGradientF8FBFEEDF5FCDEEDFAD4E7F8E2E5E9_930098106" x1="0" y1="734.0" x2="0" y2="840.0" gradientUnits="userSpaceOnUse" xlink:type="simple" xlink:actuate="onLoad" xlink:show="other" /><linearGradient xmlns:xlink="http://www.w3.org/1999/xlink" xlink:href="#linearGradientF8FBFEEDF5FCDEEDFAD4E7F8E2E5E9" id="linearGradientF8FBFEEDF5FCDEEDFAD4E7F8E2E5E9_625401029" x1="0" y1="872.0" x2="0" y2="978.0" gradientUnits="userSpaceOnUse" xlink:type="simple" xlink:actuate="onLoad" xlink:show="other" /><linearGradient xmlns:xlink="http://www.w3.org/1999/xlink" xlink:href="#linearGradientF8FBFEEDF5FCDEEDFAD4E7F8E2E5E9" id="linearGradientF8FBFEEDF5FCDEEDFAD4E7F8E2E5E9_1330125985" x1="0" y1="240.0" x2="0" y2="346.0" gradientUnits="userSpaceOnUse" xlink:type="simple" xlink:actuate="onLoad" xlink:show="other" /><linearGradient xmlns:xlink="http://www.w3.org/1999/xlink" xlink:href="#linearGradientFF6666FF9696FFB6B6" id="linearGradientFF6666FF9696FFB6B6_122664625" x1="0" y1="383.0" x2="0" y2="418.0" gradientUnits="userSpaceOnUse" xlink:type="simple" xlink:actuate="onLoad" xlink:show="other" /><linearGradient xmlns:xlink="http://www.w3.org/1999/xlink" xlink:href="#linearGradientF8FBFEEDF5FCDEEDFAD4E7F8E2E5E9" id="linearGradientF8FBFEEDF5FCDEEDFAD4E7F8E2E5E9_40051255" x1="0" y1="238.0" x2="0" y2="344.0" gradientUnits="userSpaceOnUse" xlink:type="simple" xlink:actuate="onLoad" xlink:show="other" /><linearGradient xmlns:xlink="http://www.w3.org/1999/xlink" xlink:href="#linearGradientFAFBFCFFFFCC" id="linearGradientFAFBFCFFFFCC_979061274" x1="0" y1="193.0" x2="0" y2="253.0" gradientUnits="userSpaceOnUse" xlink:type="simple" xlink:actuate="onLoad" xlink:show="other" /><linearGradient id="linearGradientFAFBFCFFFFCC"><stop style="stop-color:#FAFBFC;stop-opacity:1;" offset="0.0" id="stopFAFBFC" /><stop style="stop-color:#FFFFCC;stop-opacity:1;" offset="1.0" id="stopFFFFCC" /></linearGradient><linearGradient xmlns:xlink="http://www.w3.org/1999/xlink" xlink:href="#linearGradientFAFBFCFFFFCC" id="linearGradientFAFBFCFFFFCC_1063128804" x1="0" y1="335.0" x2="0" y2="395.0" gradientUnits="userSpaceOnUse" xlink:type="simple" xlink:actuate="onLoad" xlink:show="other" /><linearGradient xmlns:xlink="http://www.w3.org/1999/xlink" xlink:href="#linearGradientFAFBFCFFFFCC" id="linearGradientFAFBFCFFFFCC_941865788" x1="0" y1="514.0" x2="0" y2="574.0" gradientUnits="userSpaceOnUse" xlink:type="simple" xlink:actuate="onLoad" xlink:show="other" /><linearGradient xmlns:xlink="http://www.w3.org/1999/xlink" xlink:href="#linearGradientFAFBFCFFFFCC" id="linearGradientFAFBFCFFFFCC_836336879" x1="0" y1="677.0" x2="0" y2="737.0" gradientUnits="userSpaceOnUse" xlink:type="simple" xlink:actuate="onLoad" xlink:show="other" /></defs></svg>
