<?xml version="1.0" encoding="UTF-8"?>
<svg xmlns="http://www.w3.org/2000/svg" style="stroke-dasharray:none; shape-rendering:auto; font-family:'Arial'; text-rendering:auto; fill-opacity:1; color-interpolation:auto; color-rendering:auto; font-size:12; fill:black; stroke:black; image-rendering:auto; stroke-miterlimit:10; stroke-linecap:square; stroke-linejoin:miter; font-style:normal; stroke-width:1; stroke-dashoffset:0; font-weight:normal; stroke-opacity:1;" contentScriptType="text/ecmascript" preserveAspectRatio="xMidYMid meet" zoomAndPan="magnify" version="1.0" contentStyleType="text/css" xml:xlink="http://www.w3.org/1999/xlink" width="971" height="326"><rect x="0" y="5" width="971" height="115" ry="0" rx="0" style="stroke:#000000; fill:#FFFFFF" /><g componentSequence="1"><text x="-62" y="7" transform="rotate(270)" text-anchor="middle" style="font-weight:bold;font-size:10px;stroke:none; fill:#434343"><tspan dy="14" x="-62">Solicitante</tspan></text></g><rect x="0" y="120" width="971" height="206" ry="0" rx="0" style="stroke:#000000; fill:#FFFF99" /><g componentSequence="2"><text x="-223" y="7" transform="rotate(270)" text-anchor="middle" style="font-weight:bold;font-size:10px;stroke:none; fill:#434343"><tspan dy="14" x="-223">Receptor</tspan></text></g><g sequence="1"><ellipse cx="69" cy="68" rx="17" ry="17" stroke-width="1" style="fill:url(#linearGradient66FF6696FF96B6FFB6_1527593183);" stroke="336633" /></g><g sequence="2"><rect x="390" y="155" width="106" height="70" ry="5" rx="5" style="fill:url(#linearGradientF8FBFEEDF5FCDEEDFAD4E7F8E2E5E9_1091626796);" stroke="191970" /></g><g componentSequence="2"><text x="443" y="170" text-anchor="middle" style="font-weight:bold;font-size:10px;stroke:none; fill:#333399"><tspan dy="14" x="443">Actualizar</tspan><tspan dy="14" x="443">Documentaci贸n</tspan></text></g><g sequence="3"><rect x="438" y="33" width="106" height="70" ry="5" rx="5" style="fill:url(#linearGradientF8FBFEEDF5FCDEEDFAD4E7F8E2E5E9_1018764051);" stroke="191970" /></g><g componentSequence="3"><text x="491" y="48" text-anchor="middle" style="font-weight:bold;font-size:10px;stroke:none; fill:#333399"><tspan dy="14" x="491">Revisar</tspan><tspan dy="14" x="491">Documentaci贸n</tspan></text></g><g sequence="4"><ellipse cx="908" cy="210" rx="17" ry="17" stroke-width="3" style="fill:url(#linearGradientFF6666FF9696FFB6B6_480287626);" stroke="993333" /></g><g sequence="5"><rect x="530" y="240" width="106" height="70" ry="5" rx="5" style="fill:url(#linearGradientF8FBFEEDF5FCDEEDFAD4E7F8E2E5E9_1950584756);" stroke="191970" /></g><g componentSequence="5"><text x="583" y="255" text-anchor="middle" style="font-weight:bold;font-size:10px;stroke:none; fill:#333399"><tspan dy="14" x="583">Confirmaci贸n de</tspan><tspan dy="14" x="583">Lectura</tspan></text></g><g sequence="6"><polygon points=" 178 170 208 140 238 170 208 200 178 170" style="fill:url(#linearGradientFAFBFCFFFFCC_2140122637);" stroke="000000" /></g><g componentSequence="6"><text x="208" y="210" text-anchor="middle" style="font-weight:bold;font-size:10px;stroke:none; fill:#333399"><tspan dy="14" x="208">S贸lo</tspan><tspan dy="14" x="208">Requiere</tspan><tspan dy="14" x="208">Conf...</tspan></text></g><g componentSequence="2"><text x="477" y="129" style="font-size:10px;font-weight:none;stroke:none; fill:#333399" text-anchor="left" /></g><g componentSequence="3"><text x="703" y="201" style="font-size:10px;font-weight:none;stroke:none; fill:#333399" text-anchor="left" /></g><g componentSequence="4"><text x="727" y="145" style="font-size:10px;font-weight:none;stroke:none; fill:#333399" text-anchor="left" /></g><g componentSequence="6"><text x="324" y="194" style="font-size:10px;font-weight:none;stroke:none; fill:#333399" text-anchor="left" /></g><g componentSequence="7"><text x="394" y="234" style="font-size:10px;font-weight:none;stroke:none; fill:#333399" text-anchor="left" /></g><g componentSequence="9"><text x="773" y="239" style="font-size:10px;font-weight:none;stroke:none; fill:#333399" text-anchor="left" /></g><g componentSequence="10"><text x="547" y="171" style="font-size:10px;font-weight:none;stroke:none; fill:#333399" text-anchor="left" /></g><g componentSequence="11"><text x="142" y="127" style="font-size:10px;font-weight:none;stroke:none; fill:#333399" text-anchor="left" /></g><g componentSequence="12"><text x="773" y="239" style="font-size:10px;font-weight:none;stroke:none; fill:#333399" text-anchor="left" /></g><path style="fill:none; stroke:#000000;stroke-width:1" d="M82.0 80.0 L177.0 169.0" /><polygon style="fill:#000000; stroke:#000000;" points=" 173 159 177 169 166 166 171 164" /><path style="fill:none; stroke:#F00000;stroke-width:1" d="M457.0 154.0 L477.0 103.0" /><polygon style="fill:#F00000; stroke:#F00000;" points=" 469 110 477 103 478 114 474 110" /><polygon style="fill:#F00000; stroke:#F00000;" points=" 465 147 457 154 456 143 460 147" /><path style="fill:none; stroke:#000000;stroke-width:1" d="M496.0 192.0 L891.0 210.0" /><polygon style="fill:#000000; stroke:#000000;" points=" 881 205 891 210 881 215 883 210" /><path style="fill:none; stroke:#000000;stroke-width:1" d="M238.0 197.0 L389.0 191.0" /><polygon style="fill:#000000; stroke:#000000;" points=" 379 186 389 191 379 196 381 191" /><path style="fill:none; stroke:#000000;stroke-width:1" d="M544.0 86.0 L891.0 205.0" /><polygon style="fill:#000000; stroke:#000000;" points=" 883 197 891 205 880 206 883 202" /><path style="fill:none; stroke:#F00000;stroke-width:1" d="M567.0 239.0 L506.0 103.0" /><polygon style="fill:#F00000; stroke:#F00000;" points=" 506 114 506 103 515 110 509 110" /><polygon style="fill:#F00000; stroke:#F00000;" points=" 567 228 567 239 558 232 564 232" /><path style="fill:none; stroke:#000000;stroke-width:1" d="M636.0 264.0 L891.0 213.0" /><polygon style="fill:#000000; stroke:#000000;" points=" 880 210 891 213 882 220 883 215" /><path style="fill:none; stroke:#009600;stroke-width:1" d="M636.0 264.0 L891.0 213.0" /><polygon style="fill:#009600; stroke:#009600;" points=" 880 210 891 213 882 220 883 215" /><path style="fill:none; stroke:#000000;stroke-width:1" d="M238.0 204.0 L529.0 264.0" /><polygon style="fill:#000000; stroke:#000000;" points=" 520 257 529 264 518 267 521 262" /><defs><linearGradient xmlns:xlink="http://www.w3.org/1999/xlink" xlink:href="#linearGradient66FF6696FF96B6FFB6" id="linearGradient66FF6696FF96B6FFB6_1527593183" x1="0" y1="51.0" x2="0" y2="86.0" gradientUnits="userSpaceOnUse" xlink:type="simple" xlink:actuate="onLoad" xlink:show="other" /><linearGradient id="linearGradient66FF6696FF96B6FFB6"><stop style="stop-color:#66FF66;stop-opacity:1;" offset="0.0" id="stop66FF66" /><stop style="stop-color:#96FF96;stop-opacity:1;" offset="0.5" id="stop96FF96" /><stop style="stop-color:#B6FFB6;stop-opacity:1;" offset="1.0" id="stopB6FFB6" /></linearGradient><linearGradient xmlns:xlink="http://www.w3.org/1999/xlink" xlink:href="#linearGradientF8FBFEEDF5FCDEEDFAD4E7F8E2E5E9" id="linearGradientF8FBFEEDF5FCDEEDFAD4E7F8E2E5E9_1091626796" x1="0" y1="155.0" x2="0" y2="261.0" gradientUnits="userSpaceOnUse" xlink:type="simple" xlink:actuate="onLoad" xlink:show="other" /><linearGradient id="linearGradientF8FBFEEDF5FCDEEDFAD4E7F8E2E5E9"><stop style="stop-color:#F8FBFE;stop-opacity:1;" offset="0.0" id="stopF8FBFE" /><stop style="stop-color:#EDF5FC;stop-opacity:1;" offset="0.25" id="stopEDF5FC" /><stop style="stop-color:#DEEDFA;stop-opacity:1;" offset="0.5" id="stopDEEDFA" /><stop style="stop-color:#D4E7F8;stop-opacity:1;" offset="0.75" id="stopD4E7F8" /><stop style="stop-color:#E2E5E9;stop-opacity:1;" offset="1.0" id="stopE2E5E9" /></linearGradient><linearGradient xmlns:xlink="http://www.w3.org/1999/xlink" xlink:href="#linearGradientF8FBFEEDF5FCDEEDFAD4E7F8E2E5E9" id="linearGradientF8FBFEEDF5FCDEEDFAD4E7F8E2E5E9_1018764051" x1="0" y1="33.0" x2="0" y2="139.0" gradientUnits="userSpaceOnUse" xlink:type="simple" xlink:actuate="onLoad" xlink:show="other" /><linearGradient xmlns:xlink="http://www.w3.org/1999/xlink" xlink:href="#linearGradientFF6666FF9696FFB6B6" id="linearGradientFF6666FF9696FFB6B6_480287626" x1="0" y1="193.0" x2="0" y2="228.0" gradientUnits="userSpaceOnUse" xlink:type="simple" xlink:actuate="onLoad" xlink:show="other" /><linearGradient id="linearGradientFF6666FF9696FFB6B6"><stop style="stop-color:#FF6666;stop-opacity:1;" offset="0.0" id="stopFF6666" /><stop style="stop-color:#FF9696;stop-opacity:1;" offset="0.5" id="stopFF9696" /><stop style="stop-color:#FFB6B6;stop-opacity:1;" offset="1.0" id="stopFFB6B6" /></linearGradient><linearGradient xmlns:xlink="http://www.w3.org/1999/xlink" xlink:href="#linearGradientF8FBFEEDF5FCDEEDFAD4E7F8E2E5E9" id="linearGradientF8FBFEEDF5FCDEEDFAD4E7F8E2E5E9_1950584756" x1="0" y1="240.0" x2="0" y2="346.0" gradientUnits="userSpaceOnUse" xlink:type="simple" xlink:actuate="onLoad" xlink:show="other" /><linearGradient xmlns:xlink="http://www.w3.org/1999/xlink" xlink:href="#linearGradientFAFBFCFFFFCC" id="linearGradientFAFBFCFFFFCC_2140122637" x1="0" y1="140.0" x2="0" y2="200.0" gradientUnits="userSpaceOnUse" xlink:type="simple" xlink:actuate="onLoad" xlink:show="other" /><linearGradient id="linearGradientFAFBFCFFFFCC"><stop style="stop-color:#FAFBFC;stop-opacity:1;" offset="0.0" id="stopFAFBFC" /><stop style="stop-color:#FFFFCC;stop-opacity:1;" offset="1.0" id="stopFFFFCC" /></linearGradient></defs></svg>
