<?xml version="1.0" encoding="UTF-8"?>
<svg xmlns="http://www.w3.org/2000/svg" style="stroke-dasharray:none; shape-rendering:auto; font-family:'Arial'; text-rendering:auto; fill-opacity:1; color-interpolation:auto; color-rendering:auto; font-size:12; fill:black; stroke:black; image-rendering:auto; stroke-miterlimit:10; stroke-linecap:square; stroke-linejoin:miter; font-style:normal; stroke-width:1; stroke-dashoffset:0; font-weight:normal; stroke-opacity:1;" contentScriptType="text/ecmascript" preserveAspectRatio="xMidYMid meet" zoomAndPan="magnify" version="1.0" contentStyleType="text/css" xml:xlink="http://www.w3.org/1999/xlink" width="1791" height="627"><rect x="10" y="482" width="1781" height="145" ry="0" rx="0" style="stroke:#000000; fill:#FFFF80" /><g componentSequence="7"><text x="-554" y="17" transform="rotate(270)" text-anchor="middle" style="font-weight:bold;font-size:10px;stroke:none; fill:#434343"><tspan dy="14" x="-554">Gerencia de Comp. y Ad...</tspan></text></g><rect x="10" y="338" width="1781" height="145" ry="0" rx="0" style="stroke:#000000; fill:#FFFDD7" /><g componentSequence="6"><text x="-410" y="17" transform="rotate(270)" text-anchor="middle" style="font-weight:bold;font-size:10px;stroke:none; fill:#434343"><tspan dy="14" x="-410">Selección de Personal</tspan></text></g><rect x="10" y="194" width="1781" height="145" ry="0" rx="0" style="stroke:#000000; fill:#FFFF80" /><g componentSequence="5"><text x="-266" y="17" transform="rotate(270)" text-anchor="middle" style="font-weight:bold;font-size:10px;stroke:none; fill:#434343"><tspan dy="14" x="-266">Área Solicitante</tspan></text></g><rect x="10" y="50" width="1781" height="145" ry="0" rx="0" style="stroke:#000000; fill:#FFFFFF" /><g componentSequence="4"><text x="-122" y="17" transform="rotate(270)" text-anchor="middle" style="font-weight:bold;font-size:10px;stroke:none; fill:#434343"><tspan dy="14" x="-122">Gerencia de RRHH</tspan></text></g><g sequence="8"><ellipse cx="97" cy="267" rx="17" ry="17" stroke-width="1" style="fill:url(#linearGradient66FF6696FF96B6FFB6_1883189764);" stroke="336633" /></g><g sequence="9"><rect x="200" y="384" width="106" height="70" ry="5" rx="5" style="fill:url(#linearGradientF8FBFEEDF5FCDEEDFAD4E7F8E2E5E9_2130236019);" stroke="191970" /></g><g componentSequence="9"><text x="253" y="399" text-anchor="middle" style="font-weight:bold;font-size:10px;stroke:none; fill:#333399"><tspan dy="14" x="253">Revisar y</tspan><tspan dy="14" x="253">Relevar Perfil</tspan></text></g><g sequence="10"><rect x="290" y="514" width="106" height="84" ry="5" rx="5" style="fill:url(#linearGradientF8FBFEEDF5FCDEEDFAD4E7F8E2E5E9_2059884916);" stroke="191970" /></g><g componentSequence="10"><text x="343" y="529" text-anchor="middle" style="font-weight:bold;font-size:10px;stroke:none; fill:#333399"><tspan dy="14" x="343">Completar</tspan><tspan dy="14" x="343">Remuneraciones</tspan><tspan dy="14" x="343">y Beneficios</tspan></text></g><g sequence="11"><rect x="380" y="370" width="106" height="84" ry="5" rx="5" style="fill:url(#linearGradientF8FBFEEDF5FCDEEDFAD4E7F8E2E5E9_1069930568);" stroke="191970" /></g><g componentSequence="11"><text x="433" y="385" text-anchor="middle" style="font-weight:bold;font-size:10px;stroke:none; fill:#333399"><tspan dy="14" x="433">Revisar y</tspan><tspan dy="14" x="433">Confirmar Perfil</tspan></text></g><g sequence="12"><polygon points=" 403 103 433 73 463 103 433 133 403 103" style="fill:url(#linearGradientFAFBFCFFFFCC_912482982);" stroke="000000" /></g><g componentSequence="12"><text x="433" y="143" text-anchor="middle" style="font-weight:bold;font-size:10px;stroke:none; fill:#333399"><tspan dy="14" x="433">Requiere</tspan><tspan dy="14" x="433">Aprobac</tspan><tspan dy="14" x="433">...</tspan></text></g><g sequence="13"><rect x="590" y="220" width="106" height="98" ry="5" rx="5" style="fill:url(#linearGradientF8FBFEEDF5FCDEEDFAD4E7F8E2E5E9_246433107);" stroke="191970" /></g><g componentSequence="13"><text x="643" y="235" text-anchor="middle" style="font-weight:bold;font-size:10px;stroke:none; fill:#333399"><tspan dy="14" x="643">Aprobar</tspan><tspan dy="14" x="643">Solicitud de</tspan><tspan dy="14" x="643">Puesto (Primer</tspan><tspan dy="14" x="643">Autorizante)</tspan></text></g><g sequence="14"><ellipse cx="677" cy="555" rx="17" ry="17" stroke-width="3" style="fill:url(#linearGradientFF6666FF9696FFB6B6_1325179144);" stroke="993333" /></g><rect x="800" y="570" width="141" height="55" ry="5" rx="5" style="stroke:none; fill:#FFFFE0" /><g componentSequence="15"><text x="810" y="593" text-anchor="left" style="font-weight:bold;font-size:10px;stroke:none; fill:#000000"><tspan dy="14" x="810">Solicitud de Puesto</tspan><tspan dy="14" x="810">Cancelada</tspan></text></g><path style="fill:none; stroke-width:1; stroke:#000000;" d="M820.0 570.0 L800.0 570.0 L800.0 625.0 L820.0 625.0" /><g sequence="16"><polygon points=" 820 103 850 73 880 103 850 133 820 103" style="fill:url(#linearGradientFAFBFCFFFFCC_1609180935);" stroke="000000" /></g><g componentSequence="16"><text x="850" y="143" text-anchor="middle" style="font-weight:bold;font-size:10px;stroke:none; fill:#333399"><tspan dy="14" x="850">Requiere</tspan><tspan dy="14" x="850">Aprobac</tspan><tspan dy="14" x="850">...</tspan></text></g><g sequence="18"><rect x="980" y="75" width="106" height="98" ry="5" rx="5" style="fill:url(#linearGradientF8FBFEEDF5FCDEEDFAD4E7F8E2E5E9_1924208654);" stroke="191970" /></g><g componentSequence="18"><text x="1033" y="90" text-anchor="middle" style="font-weight:bold;font-size:10px;stroke:none; fill:#333399"><tspan dy="14" x="1033">Aprobar</tspan><tspan dy="14" x="1033">Solicitud de</tspan><tspan dy="14" x="1033">Puesto (Gte.</tspan><tspan dy="14" x="1033">RRHH)</tspan></text></g><g sequence="19"><rect x="1090" y="210" width="106" height="112" ry="5" rx="5" style="fill:url(#linearGradientF8FBFEEDF5FCDEEDFAD4E7F8E2E5E9_2116501974);" stroke="191970" /></g><g componentSequence="19"><text x="1143" y="225" text-anchor="middle" style="font-weight:bold;font-size:10px;stroke:none; fill:#333399"><tspan dy="14" x="1143">Aprobar</tspan><tspan dy="14" x="1143">Solicitud de</tspan><tspan dy="14" x="1143">Puesto</tspan><tspan dy="14" x="1143">(Segundo</tspan><tspan dy="14" x="1143">Autorizante)</tspan></text></g><g sequence="20"><rect x="1030" y="360" width="106" height="84" ry="5" rx="5" style="fill:url(#linearGradientF8FBFEEDF5FCDEEDFAD4E7F8E2E5E9_1442335739);" stroke="191970" /></g><g componentSequence="20"><text x="1083" y="375" text-anchor="middle" style="font-weight:bold;font-size:10px;stroke:none; fill:#333399"><tspan dy="14" x="1083">Cancelar</tspan><tspan dy="14" x="1083">Solicitud de</tspan><tspan dy="14" x="1083">Puesto</tspan></text></g><g sequence="21"><polygon points=" 1200 96 1230 66 1260 96 1230 126 1200 96" style="fill:url(#linearGradientFAFBFCFFFFCC_1537514588);" stroke="000000" /></g><g componentSequence="21"><text x="1230" y="136" text-anchor="middle" style="font-weight:bold;font-size:10px;stroke:none; fill:#333399"><tspan dy="14" x="1230">Requiere</tspan><tspan dy="14" x="1230">Aprobac</tspan><tspan dy="14" x="1230">ión G...</tspan></text></g><g sequence="22"><rect x="1270" y="210" width="106" height="98" ry="5" rx="5" style="fill:url(#linearGradientF8FBFEEDF5FCDEEDFAD4E7F8E2E5E9_565153358);" stroke="191970" /></g><g componentSequence="22"><text x="1323" y="225" text-anchor="middle" style="font-weight:bold;font-size:10px;stroke:none; fill:#333399"><tspan dy="14" x="1323">Aprobar</tspan><tspan dy="14" x="1323">Solicitud de</tspan><tspan dy="14" x="1323">Puesto (Gte. N-</tspan><tspan dy="14" x="1323">1)</tspan></text></g><g sequence="23"><rect x="1620" y="219" width="106" height="98" ry="5" rx="5" style="fill:url(#linearGradientF8FBFEEDF5FCDEEDFAD4E7F8E2E5E9_1698845276);" stroke="191970" /></g><g componentSequence="23"><text x="1673" y="234" text-anchor="middle" style="font-weight:bold;font-size:10px;stroke:none; fill:#333399"><tspan dy="14" x="1673">Aprobar</tspan><tspan dy="14" x="1673">Solicitud de</tspan><tspan dy="14" x="1673">Puesto (Gte.</tspan><tspan dy="14" x="1673">Gral.)</tspan></text></g><g sequence="24"><rect x="1620" y="370" width="106" height="84" ry="5" rx="5" style="fill:url(#linearGradientF8FBFEEDF5FCDEEDFAD4E7F8E2E5E9_1928493724);" stroke="191970" /></g><g componentSequence="24"><text x="1673" y="385" text-anchor="middle" style="font-weight:bold;font-size:10px;stroke:none; fill:#333399"><tspan dy="14" x="1673">Realizar</tspan><tspan dy="14" x="1673">Proceso de</tspan><tspan dy="14" x="1673">Selección</tspan></text></g><g sequence="25"><ellipse cx="1767" cy="411" rx="17" ry="17" stroke-width="3" style="fill:url(#linearGradientFF6666FF9696FFB6B6_231431906);" stroke="993333" /></g><g sequence="45"><polygon points=" 1490 96 1520 66 1550 96 1520 126 1490 96" style="fill:url(#linearGradientFAFBFCFFFFCC_1347120363);" stroke="000000" /></g><g componentSequence="45"><text x="1520" y="136" text-anchor="middle" style="font-weight:bold;font-size:10px;stroke:none; fill:#333399"><tspan dy="14" x="1520">Requiere</tspan><tspan dy="14" x="1520">Aprobac</tspan><tspan dy="14" x="1520">ión G...</tspan></text></g><g sequence="58"><rect x="810" y="370" width="106" height="84" ry="5" rx="5" style="fill:url(#linearGradientF8FBFEEDF5FCDEEDFAD4E7F8E2E5E9_661394444);" stroke="191970" /></g><g componentSequence="58"><text x="863" y="385" text-anchor="middle" style="font-weight:bold;font-size:10px;stroke:none; fill:#333399"><tspan dy="14" x="863">Suspender</tspan><tspan dy="14" x="863">Solicitud de</tspan><tspan dy="14" x="863">Puesto</tspan></text></g><g sequence="69"><polygon points=" 223 240 253 210 283 240 253 270 223 240" style="fill:url(#linearGradientFAFBFCFFFFCC_1177267431);" stroke="000000" /></g><g componentSequence="69"><text x="253" y="280" text-anchor="middle" style="font-weight:bold;font-size:10px;stroke:none; fill:#333399"><tspan dy="14" x="253">Solicitud</tspan><tspan dy="14" x="253">Confiden</tspan><tspan dy="14" x="253">cial?</tspan></text></g><g sequence="74"><polygon points=" 67 391 97 361 127 391 97 421 67 391" style="fill:url(#linearGradientFAFBFCFFFFCC_297850510);" stroke="000000" /></g><g componentSequence="74"><text x="97" y="431" text-anchor="middle" style="font-weight:bold;font-size:10px;stroke:none; fill:#333399"><tspan dy="14" x="97">Seleccio</tspan><tspan dy="14" x="97">nar</tspan><tspan dy="14" x="97">Solicit...</tspan></text></g><g componentSequence="17"><text x="757" y="571" style="font-size:10px;font-weight:none;stroke:none; fill:#333399" text-anchor="left" /></g><g componentSequence="27"><text x="262" y="522" style="font-size:10px;font-weight:none;stroke:none; fill:#333399" text-anchor="left" /></g><g componentSequence="28"><text x="486" y="528" style="font-size:10px;font-weight:none;stroke:none; fill:#333399" text-anchor="left" /></g><g componentSequence="29"><text x="442" y="522" style="font-size:10px;font-weight:none;stroke:none; fill:#333399" text-anchor="left" /></g><g componentSequence="30"><text x="442" y="522" style="font-size:10px;font-weight:none;stroke:none; fill:#333399" text-anchor="left" /></g><g componentSequence="31"><text x="655" y="411" style="font-size:10px;font-weight:none;stroke:none; fill:#333399" text-anchor="left" /></g><g componentSequence="32"><text x="443" y="279" style="font-size:10px;font-weight:none;stroke:none; fill:#333399" text-anchor="left" /></g><g componentSequence="33"><text x="610" y="124" style="font-size:10px;font-weight:none;stroke:none; fill:#333399" text-anchor="left" /></g><g componentSequence="34"><text x="548" y="340" style="font-size:10px;font-weight:none;stroke:none; fill:#333399" text-anchor="left" /></g><g componentSequence="35"><text x="651" y="131" style="font-size:10px;font-weight:none;stroke:none; fill:#333399" text-anchor="left" /></g><g componentSequence="36"><text x="768" y="192" style="font-size:10px;font-weight:none;stroke:none; fill:#333399" text-anchor="left" /></g><g componentSequence="37"><text x="953" y="554" style="font-size:10px;font-weight:none;stroke:none; fill:#333399" text-anchor="left" /></g><g componentSequence="38"><text x="873" y="335" style="font-size:10px;font-weight:none;stroke:none; fill:#333399" text-anchor="left" /></g><g componentSequence="39"><text x="940" y="127" style="font-size:10px;font-weight:none;stroke:none; fill:#333399" text-anchor="left" /></g><g componentSequence="40"><text x="995" y="193" style="font-size:10px;font-weight:none;stroke:none; fill:#333399" text-anchor="left" /></g><g componentSequence="41"><text x="1095" y="191" style="font-size:10px;font-weight:none;stroke:none; fill:#333399" text-anchor="left" /></g><g componentSequence="42"><text x="1120" y="341" style="font-size:10px;font-weight:none;stroke:none; fill:#333399" text-anchor="left" /></g><g componentSequence="43"><text x="1068" y="266" style="font-size:10px;font-weight:none;stroke:none; fill:#333399" text-anchor="left" /></g><g componentSequence="44"><text x="1153" y="124" style="font-size:10px;font-weight:none;stroke:none; fill:#333399" text-anchor="left" /></g><g componentSequence="46"><text x="1284" y="189" style="font-size:10px;font-weight:none;stroke:none; fill:#333399" text-anchor="left" /></g><g componentSequence="47"><text x="1385" y="124" style="font-size:10px;font-weight:none;stroke:none; fill:#333399" text-anchor="left" /></g><g componentSequence="48"><text x="1287" y="402" style="font-size:10px;font-weight:none;stroke:none; fill:#333399" text-anchor="left" /></g><g componentSequence="49"><text x="1443" y="183" style="font-size:10px;font-weight:none;stroke:none; fill:#333399" text-anchor="left" /></g><g componentSequence="50"><text x="1668" y="124" style="font-size:10px;font-weight:none;stroke:none; fill:#333399" text-anchor="left" /></g><g componentSequence="51"><text x="1683" y="343" style="font-size:10px;font-weight:none;stroke:none; fill:#333399" text-anchor="left" /></g><g componentSequence="52"><text x="1748" y="411" style="font-size:10px;font-weight:none;stroke:none; fill:#333399" text-anchor="left" /></g><g componentSequence="53"><text x="1529" y="347" style="font-size:10px;font-weight:none;stroke:none; fill:#333399" text-anchor="left" /></g><g componentSequence="54"><text x="1109" y="574" style="font-size:10px;font-weight:none;stroke:none; fill:#333399" text-anchor="left" /></g><g componentSequence="55"><text x="1017" y="542" style="font-size:10px;font-weight:none;stroke:none; fill:#333399" text-anchor="left" /></g><g componentSequence="56"><text x="798" y="339" style="font-size:10px;font-weight:none;stroke:none; fill:#333399" text-anchor="left" /></g><g componentSequence="57"><text x="807" y="333" style="font-size:10px;font-weight:none;stroke:none; fill:#333399" text-anchor="left" /></g><g componentSequence="63"><text x="762" y="497" style="font-size:10px;font-weight:none;stroke:none; fill:#333399" text-anchor="left" /></g><g componentSequence="64"><text x="472" y="336" style="font-size:10px;font-weight:none;stroke:none; fill:#333399" text-anchor="left" /></g><g componentSequence="65"><text x="1284" y="479" style="font-size:10px;font-weight:none;stroke:none; fill:#333399" text-anchor="left" /></g><g componentSequence="66"><text x="1165" y="510" style="font-size:10px;font-weight:none;stroke:none; fill:#333399" text-anchor="left" /></g><g componentSequence="67"><text x="1042" y="312" style="font-size:10px;font-weight:none;stroke:none; fill:#333399" text-anchor="left" /></g><g componentSequence="68"><text x="1013" y="339" style="font-size:10px;font-weight:none;stroke:none; fill:#333399" text-anchor="left" /></g><g componentSequence="70"><text x="179" y="267" style="font-size:10px;font-weight:none;stroke:none; fill:#333399" text-anchor="left" /></g><g componentSequence="71"><text x="263" y="355" style="font-size:10px;font-weight:none;stroke:none; fill:#333399" text-anchor="left" /></g><g componentSequence="73"><text x="658" y="412" style="font-size:10px;font-weight:none;stroke:none; fill:#333399" text-anchor="left" /></g><g componentSequence="75"><text x="173" y="419" style="font-size:10px;font-weight:none;stroke:none; fill:#333399" text-anchor="left" /></g><g componentSequence="76"><text x="107" y="323" style="font-size:10px;font-weight:none;stroke:none; fill:#333399" text-anchor="left" /></g><g componentSequence="77"><text x="763" y="340" style="font-size:10px;font-weight:none;stroke:none; fill:#333399" text-anchor="left" /></g><g componentSequence="78"><text x="1394" y="378" style="font-size:10px;font-weight:none;stroke:none; fill:#333399" text-anchor="left" /></g><path style="fill:none; stroke:#000000;stroke-width:1" d="M114.0 267.0 L222.0 267.0" /><polygon style="fill:#000000; stroke:#000000;" points=" 212 262 222 267 212 272 214 267" /><path style="fill:none; stroke:#000000;stroke-width:1" d="M809.0 401.0 L114.0 270.0" /><polygon style="fill:#000000; stroke:#000000;" points=" 123 277 114 270 125 267 122 271" /><path style="fill:none; stroke:#000000;stroke-width:1" d="M97.0 360.0 L97.0 285.0" /><polygon style="fill:#000000; stroke:#000000;" points=" 92 295 97 285 102 295 97 293" /><path style="fill:none; stroke:#F00000;stroke-width:1" d="M252.0 454.0 L252.0 552.0 L289.0 553.0" /><polygon style="fill:#F00000; stroke:#F00000;" points=" 279 548 289 553 279 558 281 553" /><polygon style="fill:#F00000; stroke:#F00000;" points=" 247 464 252 454 257 464 252 462" /><path style="fill:none; stroke:#000000;stroke-width:1" d="M306.0 445.0 L532.0 555.0 L659.0 555.0" /><polygon style="fill:#000000; stroke:#000000;" points=" 649 550 659 555 649 560 651 555" /><path style="fill:none; stroke:#000000;stroke-width:1" d="M199.0 419.0 L127.0 419.0" /><polygon style="fill:#000000; stroke:#000000;" points=" 137 424 127 419 137 414 135 419" /><path style="fill:none; stroke:#000000;stroke-width:1" d="M253.0 326.0 L253.0 383.0" /><polygon style="fill:#000000; stroke:#000000;" points=" 258 373 253 383 248 373 253 375" /><path style="fill:none; stroke:#000000;stroke-width:1" d="M396.0 555.0 L432.0 554.0 L432.0 454.0" /><polygon style="fill:#000000; stroke:#000000;" points=" 427 464 432 454 437 464 432 462" /><path style="fill:none; stroke:#000000;stroke-width:1" d="M432.0 454.0 L432.0 554.0 L396.0 555.0" /><polygon style="fill:#000000; stroke:#000000;" points=" 406 560 396 555 406 550 404 555" /><path style="fill:none; stroke:#000000;stroke-width:1" d="M486.0 411.0 L677.0 411.0 L677.0 537.0" /><polygon style="fill:#000000; stroke:#000000;" points=" 682 527 677 537 672 527 677 529" /><path style="fill:none; stroke:#000000;stroke-width:1" d="M433.0 369.0 L433.0 189.0" /><polygon style="fill:#000000; stroke:#000000;" points=" 428 199 433 189 438 199 433 197" /><path style="fill:none; stroke:#000000;stroke-width:1" d="M486.0 412.0 L809.0 412.0" /><polygon style="fill:#000000; stroke:#000000;" points=" 799 407 809 412 799 417 801 412" /><path style="fill:none; stroke:#F00000;stroke-width:1" d="M589.0 305.0 L486.0 375.0" /><polygon style="fill:#F00000; stroke:#F00000;" points=" 497 374 486 375 491 365 493 371" /><polygon style="fill:#F00000; stroke:#F00000;" points=" 578 306 589 305 584 315 582 309" /><path style="fill:none; stroke:#F00000;stroke-width:1" d="M1619.0 311.0 L1250.0 611.0 L486.0 425.0" /><polygon style="fill:#F00000; stroke:#F00000;" points=" 495 432 486 425 497 423 494 427" /><polygon style="fill:#F00000; stroke:#F00000;" points=" 1608 313 1619 311 1614 321 1613 316" /><path style="fill:none; stroke:#F00000;stroke-width:1" d="M1310.0 308.0 L1240.0 595.0 L486.0 424.0" /><polygon style="fill:#F00000; stroke:#F00000;" points=" 495 431 486 424 497 421 494 426" /><polygon style="fill:#F00000; stroke:#F00000;" points=" 1303 317 1310 308 1312 319 1308 316" /><path style="fill:none; stroke:#F00000;stroke-width:1" d="M1089.0 277.0 L486.0 401.0" /><polygon style="fill:#F00000; stroke:#F00000;" points=" 497 404 486 401 495 394 494 399" /><polygon style="fill:#F00000; stroke:#F00000;" points=" 1078 274 1089 277 1080 284 1081 279" /><path style="fill:none; stroke:#F00000;stroke-width:1" d="M1020.0 173.0 L989.0 291.0 L486.0 400.0" /><polygon style="fill:#F00000; stroke:#F00000;" points=" 497 403 486 400 495 393 494 398" /><polygon style="fill:#F00000; stroke:#F00000;" points=" 1013 181 1020 173 1022 184 1018 181" /><path style="fill:none; stroke:#000000;stroke-width:1" d="M463.0 129.0 L642.0 123.0 L642.0 219.0" /><polygon style="fill:#000000; stroke:#000000;" points=" 647 209 642 219 637 209 642 211" /><path style="fill:none; stroke:#000000;stroke-width:1" d="M463.0 131.0 L819.0 131.0" /><polygon style="fill:#000000; stroke:#000000;" points=" 809 126 819 131 809 136 811 131" /><path style="fill:none; stroke:#000000;stroke-width:1" d="M696.0 233.0 L819.0 151.0" /><polygon style="fill:#000000; stroke:#000000;" points=" 808 152 819 151 813 161 812 155" /><path style="fill:none; stroke:#000000;stroke-width:1" d="M696.0 285.0 L1029.0 385.0" /><polygon style="fill:#000000; stroke:#000000;" points=" 1021 377 1029 385 1018 387 1021 383" /><path style="fill:none; stroke:#F00000;stroke-width:1" d="M696.0 303.0 L809.0 377.0" /><polygon style="fill:#F00000; stroke:#F00000;" points=" 803 367 809 377 798 376 802 373" /><polygon style="fill:#F00000; stroke:#F00000;" points=" 702 313 696 303 707 304 703 307" /><path style="fill:none; stroke:#000000;stroke-dasharray:2" d="M799.0 582.0 L694.0 558.0" /><path style="fill:none; stroke:#000000;stroke-width:1" d="M1082.0 444.0 L1082.0 554.0 L694.0 555.0" /><polygon style="fill:#000000; stroke:#000000;" points=" 704 560 694 555 704 550 702 555" /><path style="fill:none; stroke:#000000;stroke-width:1" d="M809.0 453.0 L691.0 545.0" /><polygon style="fill:#000000; stroke:#000000;" points=" 702 543 691 545 696 535 697 540" /><path style="fill:none; stroke:#000000;stroke-width:1" d="M880.0 129.0 L979.0 126.0" /><polygon style="fill:#000000; stroke:#000000;" points=" 969 121 979 126 969 131 971 126" /><path style="fill:none; stroke:#000000;stroke-width:1" d="M880.0 145.0 L1089.0 241.0" /><polygon style="fill:#000000; stroke:#000000;" points=" 1082 232 1089 241 1078 241 1082 238" /><path style="fill:none; stroke:#000000;stroke-width:1" d="M1041.0 173.0 L1075.0 359.0" /><polygon style="fill:#000000; stroke:#000000;" points=" 1078 348 1075 359 1068 350 1074 351" /><path style="fill:none; stroke:#000000;stroke-width:1" d="M1086.0 124.0 L1199.0 124.0" /><polygon style="fill:#000000; stroke:#000000;" points=" 1189 119 1199 124 1189 129 1191 124" /><path style="fill:none; stroke:#F00000;stroke-width:1" d="M1032.0 173.0 L1032.0 318.0 L916.0 382.0" /><polygon style="fill:#F00000; stroke:#F00000;" points=" 927 382 916 382 922 373 923 378" /><polygon style="fill:#F00000; stroke:#F00000;" points=" 1027 183 1032 173 1037 183 1032 181" /><path style="fill:none; stroke:#000000;stroke-width:1" d="M1099.0 209.0 L1071.0 173.0" /><polygon style="fill:#000000; stroke:#000000;" points=" 1073 184 1071 173 1081 178 1076 179" /><path style="fill:none; stroke:#000000;stroke-width:1" d="M1118.0 322.0 L1101.0 359.0" /><polygon style="fill:#000000; stroke:#000000;" points=" 1110 352 1101 359 1101 348 1104 352" /><path style="fill:none; stroke:#F00000;stroke-width:1" d="M1089.0 294.0 L916.0 384.0" /><polygon style="fill:#F00000; stroke:#F00000;" points=" 927 384 916 384 923 375 923 380" /><polygon style="fill:#F00000; stroke:#F00000;" points=" 1078 294 1089 294 1082 303 1082 298" /><path style="fill:none; stroke:#000000;stroke-width:1" d="M1323.0 308.0 L1323.0 402.0 L1136.0 402.0" /><polygon style="fill:#000000; stroke:#000000;" points=" 1146 407 1136 402 1146 397 1144 402" /><path style="fill:none; stroke:#000000;stroke-width:1" d="M1619.0 288.0 L1322.0 402.0 L1136.0 402.0" /><polygon style="fill:#000000; stroke:#000000;" points=" 1146 407 1136 402 1146 397 1144 402" /><path style="fill:none; stroke:#000000;stroke-width:1" d="M1260.0 168.0 L1288.0 209.0" /><polygon style="fill:#000000; stroke:#000000;" points=" 1286 198 1288 209 1278 204 1283 202" /><path style="fill:none; stroke:#000000;stroke-width:1" d="M1260.0 124.0 L1489.0 124.0" /><polygon style="fill:#000000; stroke:#000000;" points=" 1479 119 1489 124 1479 129 1481 124" /><path style="fill:none; stroke:#000000;stroke-width:1" d="M1376.0 222.0 L1489.0 145.0" /><polygon style="fill:#000000; stroke:#000000;" points=" 1478 146 1489 145 1484 155 1482 150" /><path style="fill:none; stroke:#F00000;stroke-width:1" d="M1292.0 308.0 L1166.0 514.0 L916.0 430.0" /><polygon style="fill:#F00000; stroke:#F00000;" points=" 924 438 916 430 927 428 924 433" /><polygon style="fill:#F00000; stroke:#F00000;" points=" 1283 314 1292 308 1291 319 1288 315" /><path style="fill:none; stroke:#000000;stroke-width:1" d="M1673.0 317.0 L1673.0 369.0" /><polygon style="fill:#000000; stroke:#000000;" points=" 1678 359 1673 369 1668 359 1673 361" /><path style="fill:none; stroke:#F00000;stroke-width:1" d="M1619.0 296.0 L1175.0 532.0 L916.0 432.0" /><polygon style="fill:#F00000; stroke:#F00000;" points=" 924 440 916 432 927 431 923 435" /><polygon style="fill:#F00000; stroke:#F00000;" points=" 1608 296 1619 296 1613 305 1612 300" /><path style="fill:none; stroke:#000000;stroke-width:1" d="M1550.0 124.0 L1672.0 124.0 L1672.0 218.0" /><polygon style="fill:#000000; stroke:#000000;" points=" 1677 208 1672 218 1667 208 1672 210" /><path style="fill:none; stroke:#000000;stroke-width:1" d="M1726.0 411.0 L1750.0 411.0" /><polygon style="fill:#000000; stroke:#000000;" points=" 1740 406 1750 411 1740 416 1742 411" /><path style="fill:none; stroke:#000000;stroke-width:1" d="M1519.0 182.0 L1519.0 411.0 L1619.0 411.0" /><polygon style="fill:#000000; stroke:#000000;" points=" 1609 406 1619 411 1609 416 1611 411" /><defs><linearGradient xmlns:xlink="http://www.w3.org/1999/xlink" xlink:href="#linearGradient66FF6696FF96B6FFB6" id="linearGradient66FF6696FF96B6FFB6_1883189764" x1="0" y1="250.0" x2="0" y2="285.0" gradientUnits="userSpaceOnUse" xlink:type="simple" xlink:actuate="onLoad" xlink:show="other" /><linearGradient id="linearGradient66FF6696FF96B6FFB6"><stop style="stop-color:#66FF66;stop-opacity:1;" offset="0.0" id="stop66FF66" /><stop style="stop-color:#96FF96;stop-opacity:1;" offset="0.5" id="stop96FF96" /><stop style="stop-color:#B6FFB6;stop-opacity:1;" offset="1.0" id="stopB6FFB6" /></linearGradient><linearGradient xmlns:xlink="http://www.w3.org/1999/xlink" xlink:href="#linearGradientF8FBFEEDF5FCDEEDFAD4E7F8E2E5E9" id="linearGradientF8FBFEEDF5FCDEEDFAD4E7F8E2E5E9_2130236019" x1="0" y1="384.0" x2="0" y2="490.0" gradientUnits="userSpaceOnUse" xlink:type="simple" xlink:actuate="onLoad" xlink:show="other" /><linearGradient id="linearGradientF8FBFEEDF5FCDEEDFAD4E7F8E2E5E9"><stop style="stop-color:#F8FBFE;stop-opacity:1;" offset="0.0" id="stopF8FBFE" /><stop style="stop-color:#EDF5FC;stop-opacity:1;" offset="0.25" id="stopEDF5FC" /><stop style="stop-color:#DEEDFA;stop-opacity:1;" offset="0.5" id="stopDEEDFA" /><stop style="stop-color:#D4E7F8;stop-opacity:1;" offset="0.75" id="stopD4E7F8" /><stop style="stop-color:#E2E5E9;stop-opacity:1;" offset="1.0" id="stopE2E5E9" /></linearGradient><linearGradient xmlns:xlink="http://www.w3.org/1999/xlink" xlink:href="#linearGradientF8FBFEEDF5FCDEEDFAD4E7F8E2E5E9" id="linearGradientF8FBFEEDF5FCDEEDFAD4E7F8E2E5E9_2059884916" x1="0" y1="514.0" x2="0" y2="620.0" gradientUnits="userSpaceOnUse" xlink:type="simple" xlink:actuate="onLoad" xlink:show="other" /><linearGradient xmlns:xlink="http://www.w3.org/1999/xlink" xlink:href="#linearGradientF8FBFEEDF5FCDEEDFAD4E7F8E2E5E9" id="linearGradientF8FBFEEDF5FCDEEDFAD4E7F8E2E5E9_1069930568" x1="0" y1="370.0" x2="0" y2="476.0" gradientUnits="userSpaceOnUse" xlink:type="simple" xlink:actuate="onLoad" xlink:show="other" /><linearGradient xmlns:xlink="http://www.w3.org/1999/xlink" xlink:href="#linearGradientFAFBFCFFFFCC" id="linearGradientFAFBFCFFFFCC_912482982" x1="0" y1="73.0" x2="0" y2="133.0" gradientUnits="userSpaceOnUse" xlink:type="simple" xlink:actuate="onLoad" xlink:show="other" /><linearGradient id="linearGradientFAFBFCFFFFCC"><stop style="stop-color:#FAFBFC;stop-opacity:1;" offset="0.0" id="stopFAFBFC" /><stop style="stop-color:#FFFFCC;stop-opacity:1;" offset="1.0" id="stopFFFFCC" /></linearGradient><linearGradient xmlns:xlink="http://www.w3.org/1999/xlink" xlink:href="#linearGradientF8FBFEEDF5FCDEEDFAD4E7F8E2E5E9" id="linearGradientF8FBFEEDF5FCDEEDFAD4E7F8E2E5E9_246433107" x1="0" y1="220.0" x2="0" y2="326.0" gradientUnits="userSpaceOnUse" xlink:type="simple" xlink:actuate="onLoad" xlink:show="other" /><linearGradient xmlns:xlink="http://www.w3.org/1999/xlink" xlink:href="#linearGradientFF6666FF9696FFB6B6" id="linearGradientFF6666FF9696FFB6B6_1325179144" x1="0" y1="538.0" x2="0" y2="573.0" gradientUnits="userSpaceOnUse" xlink:type="simple" xlink:actuate="onLoad" xlink:show="other" /><linearGradient id="linearGradientFF6666FF9696FFB6B6"><stop style="stop-color:#FF6666;stop-opacity:1;" offset="0.0" id="stopFF6666" /><stop style="stop-color:#FF9696;stop-opacity:1;" offset="0.5" id="stopFF9696" /><stop style="stop-color:#FFB6B6;stop-opacity:1;" offset="1.0" id="stopFFB6B6" /></linearGradient><linearGradient xmlns:xlink="http://www.w3.org/1999/xlink" xlink:href="#linearGradientFAFBFCFFFFCC" id="linearGradientFAFBFCFFFFCC_1609180935" x1="0" y1="73.0" x2="0" y2="133.0" gradientUnits="userSpaceOnUse" xlink:type="simple" xlink:actuate="onLoad" xlink:show="other" /><linearGradient xmlns:xlink="http://www.w3.org/1999/xlink" xlink:href="#linearGradientF8FBFEEDF5FCDEEDFAD4E7F8E2E5E9" id="linearGradientF8FBFEEDF5FCDEEDFAD4E7F8E2E5E9_1924208654" x1="0" y1="75.0" x2="0" y2="181.0" gradientUnits="userSpaceOnUse" xlink:type="simple" xlink:actuate="onLoad" xlink:show="other" /><linearGradient xmlns:xlink="http://www.w3.org/1999/xlink" xlink:href="#linearGradientF8FBFEEDF5FCDEEDFAD4E7F8E2E5E9" id="linearGradientF8FBFEEDF5FCDEEDFAD4E7F8E2E5E9_2116501974" x1="0" y1="210.0" x2="0" y2="316.0" gradientUnits="userSpaceOnUse" xlink:type="simple" xlink:actuate="onLoad" xlink:show="other" /><linearGradient xmlns:xlink="http://www.w3.org/1999/xlink" xlink:href="#linearGradientF8FBFEEDF5FCDEEDFAD4E7F8E2E5E9" id="linearGradientF8FBFEEDF5FCDEEDFAD4E7F8E2E5E9_1442335739" x1="0" y1="360.0" x2="0" y2="466.0" gradientUnits="userSpaceOnUse" xlink:type="simple" xlink:actuate="onLoad" xlink:show="other" /><linearGradient xmlns:xlink="http://www.w3.org/1999/xlink" xlink:href="#linearGradientFAFBFCFFFFCC" id="linearGradientFAFBFCFFFFCC_1537514588" x1="0" y1="66.0" x2="0" y2="126.0" gradientUnits="userSpaceOnUse" xlink:type="simple" xlink:actuate="onLoad" xlink:show="other" /><linearGradient xmlns:xlink="http://www.w3.org/1999/xlink" xlink:href="#linearGradientF8FBFEEDF5FCDEEDFAD4E7F8E2E5E9" id="linearGradientF8FBFEEDF5FCDEEDFAD4E7F8E2E5E9_565153358" x1="0" y1="210.0" x2="0" y2="316.0" gradientUnits="userSpaceOnUse" xlink:type="simple" xlink:actuate="onLoad" xlink:show="other" /><linearGradient xmlns:xlink="http://www.w3.org/1999/xlink" xlink:href="#linearGradientF8FBFEEDF5FCDEEDFAD4E7F8E2E5E9" id="linearGradientF8FBFEEDF5FCDEEDFAD4E7F8E2E5E9_1698845276" x1="0" y1="219.0" x2="0" y2="325.0" gradientUnits="userSpaceOnUse" xlink:type="simple" xlink:actuate="onLoad" xlink:show="other" /><linearGradient xmlns:xlink="http://www.w3.org/1999/xlink" xlink:href="#linearGradientF8FBFEEDF5FCDEEDFAD4E7F8E2E5E9" id="linearGradientF8FBFEEDF5FCDEEDFAD4E7F8E2E5E9_1928493724" x1="0" y1="370.0" x2="0" y2="476.0" gradientUnits="userSpaceOnUse" xlink:type="simple" xlink:actuate="onLoad" xlink:show="other" /><linearGradient xmlns:xlink="http://www.w3.org/1999/xlink" xlink:href="#linearGradientFF6666FF9696FFB6B6" id="linearGradientFF6666FF9696FFB6B6_231431906" x1="0" y1="394.0" x2="0" y2="429.0" gradientUnits="userSpaceOnUse" xlink:type="simple" xlink:actuate="onLoad" xlink:show="other" /><linearGradient xmlns:xlink="http://www.w3.org/1999/xlink" xlink:href="#linearGradientFAFBFCFFFFCC" id="linearGradientFAFBFCFFFFCC_1347120363" x1="0" y1="66.0" x2="0" y2="126.0" gradientUnits="userSpaceOnUse" xlink:type="simple" xlink:actuate="onLoad" xlink:show="other" /><linearGradient xmlns:xlink="http://www.w3.org/1999/xlink" xlink:href="#linearGradientF8FBFEEDF5FCDEEDFAD4E7F8E2E5E9" id="linearGradientF8FBFEEDF5FCDEEDFAD4E7F8E2E5E9_661394444" x1="0" y1="370.0" x2="0" y2="476.0" gradientUnits="userSpaceOnUse" xlink:type="simple" xlink:actuate="onLoad" xlink:show="other" /><linearGradient xmlns:xlink="http://www.w3.org/1999/xlink" xlink:href="#linearGradientFAFBFCFFFFCC" id="linearGradientFAFBFCFFFFCC_1177267431" x1="0" y1="210.0" x2="0" y2="270.0" gradientUnits="userSpaceOnUse" xlink:type="simple" xlink:actuate="onLoad" xlink:show="other" /><linearGradient xmlns:xlink="http://www.w3.org/1999/xlink" xlink:href="#linearGradientFAFBFCFFFFCC" id="linearGradientFAFBFCFFFFCC_297850510" x1="0" y1="361.0" x2="0" y2="421.0" gradientUnits="userSpaceOnUse" xlink:type="simple" xlink:actuate="onLoad" xlink:show="other" /></defs></svg>
