<?xml version="1.0" encoding="UTF-8"?>
<svg xmlns="http://www.w3.org/2000/svg" style="stroke-dasharray:none; shape-rendering:auto; font-family:'Arial'; text-rendering:auto; fill-opacity:1; color-interpolation:auto; color-rendering:auto; font-size:12; fill:black; stroke:black; image-rendering:auto; stroke-miterlimit:10; stroke-linecap:square; stroke-linejoin:miter; font-style:normal; stroke-width:1; stroke-dashoffset:0; font-weight:normal; stroke-opacity:1;" contentScriptType="text/ecmascript" preserveAspectRatio="xMidYMid meet" zoomAndPan="magnify" version="1.0" contentStyleType="text/css" xml:xlink="http://www.w3.org/1999/xlink" width="2441" height="1038"><rect x="10" y="616" width="2431" height="264" ry="0" rx="0" style="stroke:#000000; fill:#FFFDD7" /><g componentSequence="6"><text x="-748" y="17" transform="rotate(270)" text-anchor="middle" style="font-weight:bold;font-size:10px;stroke:none; fill:#434343"><tspan dy="14" x="-748">Adminitración de Personal</tspan></text></g><rect x="10" y="40" width="2431" height="145" ry="0" rx="0" style="stroke:#000000; fill:#FFFDD7" /><g componentSequence="5"><text x="-112" y="17" transform="rotate(270)" text-anchor="middle" style="font-weight:bold;font-size:10px;stroke:none; fill:#434343"><tspan dy="14" x="-112">Gerencia de RRHH</tspan></text></g><rect x="10" y="328" width="2431" height="145" ry="0" rx="0" style="stroke:#000000; fill:#FFFDD7" /><g componentSequence="1"><text x="-400" y="17" transform="rotate(270)" text-anchor="middle" style="font-weight:bold;font-size:10px;stroke:none; fill:#434343"><tspan dy="14" x="-400">Selección de Personal</tspan></text></g><rect x="10" y="184" width="2431" height="145" ry="0" rx="0" style="stroke:#000000; fill:#FFFF80" /><g componentSequence="2"><text x="-256" y="17" transform="rotate(270)" text-anchor="middle" style="font-weight:bold;font-size:10px;stroke:none; fill:#434343"><tspan dy="14" x="-256">Área Solicitante</tspan></text></g><rect x="10" y="472" width="2431" height="145" ry="0" rx="0" style="stroke:#000000; fill:#FFFF80" /><g componentSequence="4"><text x="-544" y="17" transform="rotate(270)" text-anchor="middle" style="font-weight:bold;font-size:10px;stroke:none; fill:#434343"><tspan dy="14" x="-544">Gerencia de Comp. y Ad...</tspan></text></g><rect x="10" y="880" width="2431" height="158" ry="0" rx="0" style="stroke:#000000; fill:#FFFF80" /><g componentSequence="3"><text x="-959" y="17" transform="rotate(270)" text-anchor="middle" style="font-weight:bold;font-size:10px;stroke:none; fill:#434343"><tspan dy="14" x="-959">Área de Sistemas</tspan></text></g><g sequence="10"><ellipse cx="69" cy="401" rx="17" ry="17" stroke-width="1" style="fill:url(#linearGradient66FF6696FF96B6FFB6_1547945114);" stroke="336633" /></g><g sequence="11"><rect x="157" y="504" width="106" height="84" ry="5" rx="5" style="fill:url(#linearGradientF8FBFEEDF5FCDEEDFAD4E7F8E2E5E9_1384391010);" stroke="191970" /></g><g componentSequence="11"><text x="210" y="519" text-anchor="middle" style="font-weight:bold;font-size:10px;stroke:none; fill:#333399"><tspan dy="14" x="210">Completar</tspan><tspan dy="14" x="210">Remuneraciones</tspan><tspan dy="14" x="210">y Beneficios</tspan></text></g><g sequence="12"><polygon points=" 180 86 210 56 240 86 210 116 180 86" style="fill:url(#linearGradientFAFBFCFFFFCC_1455140842);" stroke="000000" /></g><g componentSequence="12"><text x="210" y="126" text-anchor="middle" style="font-weight:bold;font-size:10px;stroke:none; fill:#333399"><tspan dy="14" x="210">Requiere</tspan><tspan dy="14" x="210">Aprobac</tspan><tspan dy="14" x="210">...</tspan></text></g><g sequence="15"><rect x="290" y="195" width="106" height="126" ry="5" rx="5" style="fill:url(#linearGradientF8FBFEEDF5FCDEEDFAD4E7F8E2E5E9_330902361);" stroke="191970" /></g><g componentSequence="15"><text x="343" y="210" text-anchor="middle" style="font-weight:bold;font-size:10px;stroke:none; fill:#333399"><tspan dy="14" x="343">Aprobar</tspan><tspan dy="14" x="343">Solicitud de Alta</tspan><tspan dy="14" x="343">de Empleado</tspan><tspan dy="14" x="343">(Primer</tspan><tspan dy="14" x="343">Autorizante)</tspan></text></g><g sequence="17"><polygon points=" 450 86 480 56 510 86 480 116 450 86" style="fill:url(#linearGradientFAFBFCFFFFCC_1360812704);" stroke="000000" /></g><g componentSequence="17"><text x="480" y="126" text-anchor="middle" style="font-weight:bold;font-size:10px;stroke:none; fill:#333399"><tspan dy="14" x="480">Requiere</tspan><tspan dy="14" x="480">Aprobac</tspan><tspan dy="14" x="480">...</tspan></text></g><g sequence="20"><rect x="640" y="58" width="106" height="112" ry="5" rx="5" style="fill:url(#linearGradientF8FBFEEDF5FCDEEDFAD4E7F8E2E5E9_585170640);" stroke="191970" /></g><g componentSequence="20"><text x="693" y="73" text-anchor="middle" style="font-weight:bold;font-size:10px;stroke:none; fill:#333399"><tspan dy="14" x="693">Aprobar</tspan><tspan dy="14" x="693">Solicitud de Alta</tspan><tspan dy="14" x="693">de Empleado</tspan><tspan dy="14" x="693">(Gte. RRHH)</tspan></text></g><g sequence="22"><rect x="540" y="195" width="106" height="126" ry="5" rx="5" style="fill:url(#linearGradientF8FBFEEDF5FCDEEDFAD4E7F8E2E5E9_699388313);" stroke="191970" /></g><g componentSequence="22"><text x="593" y="210" text-anchor="middle" style="font-weight:bold;font-size:10px;stroke:none; fill:#333399"><tspan dy="14" x="593">Aprobar</tspan><tspan dy="14" x="593">Solicitud de Alta</tspan><tspan dy="14" x="593">de Empleado</tspan><tspan dy="14" x="593">(Segundo</tspan><tspan dy="14" x="593">Autorizante)</tspan></text></g><g sequence="25"><rect x="790" y="367" width="106" height="98" ry="5" rx="5" style="fill:url(#linearGradientF8FBFEEDF5FCDEEDFAD4E7F8E2E5E9_1939264534);" stroke="191970" /></g><g componentSequence="25"><text x="843" y="382" text-anchor="middle" style="font-weight:bold;font-size:10px;stroke:none; fill:#333399"><tspan dy="14" x="843">Revisar Solicitud</tspan><tspan dy="14" x="843">de Alta de</tspan><tspan dy="14" x="843">Empleado</tspan></text></g><g sequence="30"><polygon points=" 860 86 890 56 920 86 890 116 860 86" style="fill:url(#linearGradientFAFBFCFFFFCC_1080842654);" stroke="000000" /></g><g componentSequence="30"><text x="890" y="126" text-anchor="middle" style="font-weight:bold;font-size:10px;stroke:none; fill:#333399"><tspan dy="14" x="890">Requiere</tspan><tspan dy="14" x="890">Aprobac</tspan><tspan dy="14" x="890">ión G...</tspan></text></g><g sequence="32"><rect x="1010" y="202" width="106" height="112" ry="5" rx="5" style="fill:url(#linearGradientF8FBFEEDF5FCDEEDFAD4E7F8E2E5E9_1709123901);" stroke="191970" /></g><g componentSequence="32"><text x="1063" y="217" text-anchor="middle" style="font-weight:bold;font-size:10px;stroke:none; fill:#333399"><tspan dy="14" x="1063">Aprobar</tspan><tspan dy="14" x="1063">Solicitud de Alta</tspan><tspan dy="14" x="1063">de Empleado</tspan><tspan dy="14" x="1063">(Gte. N-1)</tspan></text></g><g sequence="37"><polygon points=" 1160 86 1190 56 1220 86 1190 116 1160 86" style="fill:url(#linearGradientFAFBFCFFFFCC_850075398);" stroke="000000" /></g><g componentSequence="37"><text x="1190" y="126" text-anchor="middle" style="font-weight:bold;font-size:10px;stroke:none; fill:#333399"><tspan dy="14" x="1190">Requiere</tspan><tspan dy="14" x="1190">Aprobac</tspan><tspan dy="14" x="1190">ión ...</tspan></text></g><g sequence="40"><rect x="1270" y="202" width="106" height="112" ry="5" rx="5" style="fill:url(#linearGradientF8FBFEEDF5FCDEEDFAD4E7F8E2E5E9_2010663713);" stroke="191970" /></g><g componentSequence="40"><text x="1323" y="217" text-anchor="middle" style="font-weight:bold;font-size:10px;stroke:none; fill:#333399"><tspan dy="14" x="1323">Aprobar</tspan><tspan dy="14" x="1323">Solicitud de Alta</tspan><tspan dy="14" x="1323">de Empleado</tspan><tspan dy="14" x="1323">(Gte. Gral.)</tspan></text></g><g sequence="43"><rect x="1950" y="360" width="106" height="84" ry="5" rx="5" style="fill:url(#linearGradientF8FBFEEDF5FCDEEDFAD4E7F8E2E5E9_1440369901);" stroke="191970" /></g><g componentSequence="43"><text x="2003" y="375" text-anchor="middle" style="font-weight:bold;font-size:10px;stroke:none; fill:#333399"><tspan dy="14" x="2003">Notificar Ingreso</tspan><tspan dy="14" x="2003">de Empleado</tspan></text></g><g sequence="45"><rect x="1240" y="648" width="106" height="84" ry="5" rx="5" style="fill:url(#linearGradientF8FBFEEDF5FCDEEDFAD4E7F8E2E5E9_1238368682);" stroke="191970" /></g><g componentSequence="45"><text x="1293" y="663" text-anchor="middle" style="font-weight:bold;font-size:10px;stroke:none; fill:#333399"><tspan dy="14" x="1293">Dar de Alta</tspan><tspan dy="14" x="1293">Empleado en</tspan><tspan dy="14" x="1293">AFIP</tspan></text></g><g sequence="47"><rect x="1520" y="760" width="106" height="84" ry="5" rx="5" style="fill:url(#linearGradientF8FBFEEDF5FCDEEDFAD4E7F8E2E5E9_602502329);" stroke="191970" /></g><g componentSequence="47"><text x="1573" y="775" text-anchor="middle" style="font-weight:bold;font-size:10px;stroke:none; fill:#333399"><tspan dy="14" x="1573">Completar</tspan><tspan dy="14" x="1573">Información en</tspan><tspan dy="14" x="1573">RHPRO</tspan></text></g><g sequence="54"><rect x="1900" y="926" width="106" height="70" ry="5" rx="5" style="fill:url(#linearGradientF8FBFEEDF5FCDEEDFAD4E7F8E2E5E9_383627942);" stroke="191970" /></g><g componentSequence="54"><text x="1953" y="941" text-anchor="middle" style="font-weight:bold;font-size:10px;stroke:none; fill:#333399"><tspan dy="14" x="1953">Ingresar Nuevo</tspan><tspan dy="14" x="1953">Usuario</tspan></text></g><g sequence="58"><ellipse cx="2387" cy="689" rx="17" ry="17" stroke-width="3" style="fill:url(#linearGradientFF6666FF9696FFB6B6_291977652);" stroke="993333" /></g><g sequence="69"><polygon points=" 2140 676 2170 646 2200 676 2170 706 2140 676" style="fill:url(#linearGradientFAFBFCFFFFCC_1483974499);" stroke="000000" /></g><path style="fill:none; stroke-width:6; stroke:#000000;" d="M2160.0 676.0 L2180.0 676.0" /><path style="fill:none; stroke-width:6; stroke:#000000;" d="M2170.0 666.0 L2170.0 686.0" /><g componentSequence="69"><text x="2170" y="709" text-anchor="middle" style="font-weight:bold;font-size:10px;stroke:none; fill:#333399"><tspan dy="14" x="2170">Join</tspan></text></g><g sequence="80"><polygon points=" 1680 244 1710 214 1740 244 1710 274 1680 244" style="fill:url(#linearGradientFAFBFCFFFFCC_811031656);" stroke="000000" /></g><path style="fill:none; stroke-width:6; stroke:#000000;" d="M1700.0 244.0 L1720.0 244.0" /><path style="fill:none; stroke-width:6; stroke:#000000;" d="M1710.0 234.0 L1710.0 254.0" /><g componentSequence="80"><text x="1710" y="277" text-anchor="middle" style="font-weight:bold;font-size:10px;stroke:none; fill:#333399"><tspan dy="14" x="1710">Paralelo</tspan></text></g><g sequence="85"><polygon points=" 120 374 150 344 180 374 150 404 120 374" style="fill:url(#linearGradientFAFBFCFFFFCC_1264881734);" stroke="000000" /></g><g componentSequence="85"><text x="150" y="414" text-anchor="middle" style="font-weight:bold;font-size:10px;stroke:none; fill:#333399"><tspan dy="14" x="150">Solicitud</tspan><tspan dy="14" x="150">Confiden</tspan><tspan dy="14" x="150">cial?</tspan></text></g><g sequence="86"><polygon points=" 40 518 70 488 100 518 70 548 40 518" style="fill:url(#linearGradientFAFBFCFFFFCC_1667672583);" stroke="000000" /></g><g componentSequence="86"><text x="70" y="558" text-anchor="middle" style="font-weight:bold;font-size:10px;stroke:none; fill:#333399"><tspan dy="14" x="70">Seleccio</tspan><tspan dy="14" x="70">nar</tspan><tspan dy="14" x="70">Solicit...</tspan></text></g><g sequence="95"><rect x="1430" y="360" width="106" height="84" ry="5" rx="5" style="fill:url(#linearGradientF8FBFEEDF5FCDEEDFAD4E7F8E2E5E9_652951991);" stroke="191970" /></g><g componentSequence="95"><text x="1483" y="375" text-anchor="middle" style="font-weight:bold;font-size:10px;stroke:none; fill:#333399"><tspan dy="14" x="1483">Confirmar Fecha</tspan><tspan dy="14" x="1483">de Ingreso</tspan></text></g><g sequence="97"><polygon points=" 1400 525 1430 495 1460 525 1430 555 1400 525" style="fill:url(#linearGradientFAFBFCFFFFCC_752217374);" stroke="000000" /></g><g componentSequence="97"><text x="1430" y="565" text-anchor="middle" style="font-weight:bold;font-size:10px;stroke:none; fill:#333399"><tspan dy="14" x="1430">Empl.</tspan><tspan dy="14" x="1430">Interno?</tspan></text></g><g sequence="105"><rect x="1520" y="640" width="106" height="84" ry="5" rx="5" style="fill:url(#linearGradientF8FBFEEDF5FCDEEDFAD4E7F8E2E5E9_1130151522);" stroke="191970" /></g><g componentSequence="105"><text x="1573" y="655" text-anchor="middle" style="font-weight:bold;font-size:10px;stroke:none; fill:#333399"><tspan dy="14" x="1573">Completar</tspan><tspan dy="14" x="1573">Información en</tspan><tspan dy="14" x="1573">RHPRO</tspan></text></g><rect x="940" y="430" width="105" height="139" ry="5" rx="5" style="stroke:none; fill:#FFFFE0" /><g componentSequence="34"><text x="950" y="453" text-anchor="left" style="font-weight:bold;font-size:10px;stroke:none; fill:#000000"><tspan dy="14" x="950">Si algún</tspan><tspan dy="14" x="950">aprobador</tspan><tspan dy="14" x="950">retorna la</tspan><tspan dy="14" x="950">solicitud se</tspan><tspan dy="14" x="950">asigna a</tspan><tspan dy="14" x="950">selección de</tspan><tspan dy="14" x="950">personal en</tspan><tspan dy="14" x="950">esta tarea.</tspan></text></g><path style="fill:none; stroke-width:1; stroke:#000000;" d="M960.0 430.0 L940.0 430.0 L940.0 569.0 L960.0 569.0" /><rect x="1260" y="780" width="105" height="139" ry="5" rx="5" style="stroke:none; fill:#FFFFE0" /><g componentSequence="50"><text x="1270" y="803" text-anchor="left" style="font-weight:bold;font-size:10px;stroke:none; fill:#000000"><tspan dy="14" x="1270">En esta tarea el</tspan><tspan dy="14" x="1270">usuario</tspan><tspan dy="14" x="1270">ingresará en el</tspan><tspan dy="14" x="1270">Fuig el</tspan><tspan dy="14" x="1270">número de</tspan><tspan dy="14" x="1270">legajo</tspan><tspan dy="14" x="1270">asignado por</tspan><tspan dy="14" x="1270">RHPRO.</tspan></text></g><path style="fill:none; stroke-width:1; stroke:#000000;" d="M1280.0 780.0 L1260.0 780.0 L1260.0 919.0 L1280.0 919.0" /><g componentSequence="14"><text x="220" y="338" style="font-size:10px;font-weight:none;stroke:none; fill:#333399" text-anchor="left" /></g><g componentSequence="16"><text x="275" y="174" style="font-size:10px;font-weight:none;stroke:none; fill:#333399" text-anchor="left" /></g><g componentSequence="18"><text x="355" y="114" style="font-size:10px;font-weight:none;stroke:none; fill:#333399" text-anchor="left" /></g><g componentSequence="19"><text x="433" y="174" style="font-size:10px;font-weight:none;stroke:none; fill:#333399" text-anchor="left" /></g><g componentSequence="21"><text x="585" y="114" style="font-size:10px;font-weight:none;stroke:none; fill:#333399" text-anchor="left" /></g><g componentSequence="23"><text x="537" y="173" style="font-size:10px;font-weight:none;stroke:none; fill:#333399" text-anchor="left" /></g><g componentSequence="24"><text x="656" y="182" style="font-size:10px;font-weight:none;stroke:none; fill:#333399" text-anchor="left" /></g><g componentSequence="27"><text x="603" y="337" style="font-size:10px;font-weight:none;stroke:none; fill:#333399" text-anchor="left" /></g><g componentSequence="29"><text x="780" y="268" style="font-size:10px;font-weight:none;stroke:none; fill:#333399" text-anchor="left" /></g><g componentSequence="31"><text x="813" y="114" style="font-size:10px;font-weight:none;stroke:none; fill:#333399" text-anchor="left" /></g><g componentSequence="33"><text x="975" y="176" style="font-size:10px;font-weight:none;stroke:none; fill:#333399" text-anchor="left" /></g><g componentSequence="38"><text x="1050" y="114" style="font-size:10px;font-weight:none;stroke:none; fill:#333399" text-anchor="left" /></g><g componentSequence="39"><text x="1146" y="175" style="font-size:10px;font-weight:none;stroke:none; fill:#333399" text-anchor="left" /></g><g componentSequence="41"><text x="1255" y="174" style="font-size:10px;font-weight:none;stroke:none; fill:#333399" text-anchor="left" /></g><g componentSequence="71"><text x="2070" y="827" style="font-size:10px;font-weight:none;stroke:none; fill:#333399" text-anchor="left" /></g><g componentSequence="77"><text x="1443" y="746" style="font-size:10px;font-weight:none;stroke:none; fill:#333399" text-anchor="left" /></g><g componentSequence="78"><text x="2295" y="689" style="font-size:10px;font-weight:none;stroke:none; fill:#333399" text-anchor="left" /></g><g componentSequence="79"><text x="2096" y="545" style="font-size:10px;font-weight:none;stroke:none; fill:#333399" text-anchor="left" /></g><g componentSequence="81"><text x="1855" y="324" style="font-size:10px;font-weight:none;stroke:none; fill:#333399" text-anchor="left" /></g><g componentSequence="82"><text x="1416" y="333" style="font-size:10px;font-weight:none;stroke:none; fill:#333399" text-anchor="left" /></g><g componentSequence="84"><text x="536" y="481" style="font-size:10px;font-weight:none;stroke:none; fill:#333399" text-anchor="left" /></g><g componentSequence="87"><text x="113" y="401" style="font-size:10px;font-weight:none;stroke:none; fill:#333399" text-anchor="left" /></g><g componentSequence="88"><text x="193" y="482" style="font-size:10px;font-weight:none;stroke:none; fill:#333399" text-anchor="left" /></g><g componentSequence="89"><text x="138" y="546" style="font-size:10px;font-weight:none;stroke:none; fill:#333399" text-anchor="left" /></g><g componentSequence="90"><text x="79" y="453" style="font-size:10px;font-weight:none;stroke:none; fill:#333399" text-anchor="left" /></g><g componentSequence="91"><text x="728" y="337" style="font-size:10px;font-weight:none;stroke:none; fill:#333399" text-anchor="left" /></g><g componentSequence="92"><text x="963" y="337" style="font-size:10px;font-weight:none;stroke:none; fill:#333399" text-anchor="left" /></g><g componentSequence="93"><text x="1093" y="337" style="font-size:10px;font-weight:none;stroke:none; fill:#333399" text-anchor="left" /></g><g componentSequence="94"><text x="1340" y="251" style="font-size:10px;font-weight:none;stroke:none; fill:#333399" text-anchor="left" /></g><g componentSequence="96"><text x="1618" y="323" style="font-size:10px;font-weight:none;stroke:none; fill:#333399" text-anchor="left" /></g><g componentSequence="98"><text x="1580" y="402" style="font-size:10px;font-weight:none;stroke:none; fill:#333399" text-anchor="left" /></g><g componentSequence="99"><text x="1376" y="613" style="font-size:10px;font-weight:none;stroke:none; fill:#333399" text-anchor="left"><tspan dy="14" x="1376">NO</tspan></text></g><g componentSequence="106"><text x="1504" y="607" style="font-size:10px;font-weight:none;stroke:none; fill:#333399" text-anchor="left"><tspan dy="14" x="1504">SI</tspan></text></g><g componentSequence="35"><text x="928" y="457" style="font-size:10px;font-weight:none;stroke:none; fill:#333399" text-anchor="left" /></g><g componentSequence="109"><text x="1773" y="881" style="font-size:10px;font-weight:none;stroke:none; fill:#333399" text-anchor="left" /></g><g componentSequence="51"><text x="1452" y="825" style="font-size:10px;font-weight:none;stroke:none; fill:#333399" text-anchor="left" /></g><g componentSequence="108"><text x="1452" y="766" style="font-size:10px;font-weight:none;stroke:none; fill:#333399" text-anchor="left" /></g><g componentSequence="110"><text x="1775" y="823" style="font-size:10px;font-weight:none;stroke:none; fill:#333399" text-anchor="left" /></g><path style="fill:none; stroke:#000000;stroke-width:1" d="M86.0 401.0 L119.0 401.0" /><polygon style="fill:#000000; stroke:#000000;" points=" 109 396 119 401 109 406 111 401" /><path style="fill:none; stroke:#000000;stroke-width:1" d="M69.0 487.0 L69.0 418.0" /><polygon style="fill:#000000; stroke:#000000;" points=" 64 428 69 418 74 428 69 426" /><path style="fill:none; stroke:#000000;stroke-width:1" d="M210.0 503.0 L210.0 172.0" /><polygon style="fill:#000000; stroke:#000000;" points=" 205 182 210 172 215 182 210 180" /><path style="fill:none; stroke:#000000;stroke-width:1" d="M156.0 546.0 L100.0 546.0" /><polygon style="fill:#000000; stroke:#000000;" points=" 110 551 100 546 110 541 108 546" /><path style="fill:none; stroke:#000000;stroke-width:1" d="M789.0 427.0 L263.0 535.0" /><polygon style="fill:#000000; stroke:#000000;" points=" 274 538 263 535 272 528 271 533" /><path style="fill:none; stroke:#000000;stroke-width:1" d="M174.0 460.0 L192.0 503.0" /><polygon style="fill:#000000; stroke:#000000;" points=" 193 492 192 503 184 496 189 496" /><path style="fill:none; stroke:#000000;stroke-width:1" d="M240.0 147.0 L289.0 200.0" /><polygon style="fill:#000000; stroke:#000000;" points=" 286 189 289 200 279 196 284 194" /><path style="fill:none; stroke:#000000;stroke-width:1" d="M240.0 114.0 L449.0 114.0" /><polygon style="fill:#000000; stroke:#000000;" points=" 439 109 449 114 439 119 441 114" /><path style="fill:none; stroke:#000000;stroke-width:1" d="M396.0 202.0 L449.0 146.0" /><polygon style="fill:#000000; stroke:#000000;" points=" 438 150 449 146 446 157 444 152" /><path style="fill:none; stroke:#F00000;stroke-width:1" d="M396.0 274.0 L789.0 399.0" /><polygon style="fill:#F00000; stroke:#F00000;" points=" 781 391 789 399 778 401 781 397" /><polygon style="fill:#F00000; stroke:#F00000;" points=" 404 282 396 274 407 272 404 276" /><path style="fill:none; stroke:#000000;stroke-width:1" d="M510.0 114.0 L639.0 114.0" /><polygon style="fill:#000000; stroke:#000000;" points=" 629 109 639 114 629 119 631 114" /><path style="fill:none; stroke:#000000;stroke-width:1" d="M510.0 152.0 L543.0 194.0" /><polygon style="fill:#000000; stroke:#000000;" points=" 541 183 543 194 533 189 538 188" /><path style="fill:none; stroke:#F00000;stroke-width:1" d="M721.0 170.0 L818.0 366.0" /><polygon style="fill:#F00000; stroke:#F00000;" points=" 818 355 818 366 809 359 814 359" /><polygon style="fill:#F00000; stroke:#F00000;" points=" 721 181 721 170 730 177 725 177" /><path style="fill:none; stroke:#000000;stroke-width:1" d="M746.0 114.0 L859.0 114.0" /><polygon style="fill:#000000; stroke:#000000;" points=" 849 109 859 114 849 119 851 114" /><path style="fill:none; stroke:#000000;stroke-width:1" d="M637.0 194.0 L654.0 170.0" /><polygon style="fill:#000000; stroke:#000000;" points=" 644 175 654 170 652 181 649 177" /><path style="fill:none; stroke:#F00000;stroke-width:1" d="M646.0 291.0 L789.0 382.0" /><polygon style="fill:#F00000; stroke:#F00000;" points=" 783 372 789 382 778 381 782 378" /><polygon style="fill:#F00000; stroke:#F00000;" points=" 652 301 646 291 657 292 653 295" /><path style="fill:none; stroke:#F00000;stroke-width:1" d="M1009.0 296.0 L896.0 377.0" /><polygon style="fill:#F00000; stroke:#F00000;" points=" 907 375 896 377 901 367 903 372" /><polygon style="fill:#F00000; stroke:#F00000;" points=" 998 298 1009 296 1004 306 1002 301" /><path style="fill:none; stroke:#F00000;stroke-width:1" d="M1269.0 275.0 L896.0 398.0" /><polygon style="fill:#F00000; stroke:#F00000;" points=" 907 400 896 398 904 390 904 395" /><polygon style="fill:#F00000; stroke:#F00000;" points=" 1258 273 1269 275 1261 283 1261 278" /><path style="fill:none; stroke:#000000;stroke-dasharray:2" d="M939.0 469.0 L896.0 445.0" /><path style="fill:none; stroke:#000000;stroke-width:1" d="M920.0 139.0 L1009.0 213.0" /><polygon style="fill:#000000; stroke:#000000;" points=" 1005 203 1009 213 998 210 1003 208" /><path style="fill:none; stroke:#000000;stroke-width:1" d="M920.0 114.0 L1159.0 114.0" /><polygon style="fill:#000000; stroke:#000000;" points=" 1149 109 1159 114 1149 119 1151 114" /><path style="fill:none; stroke:#000000;stroke-width:1" d="M1113.0 201.0 L1159.0 148.0" /><polygon style="fill:#000000; stroke:#000000;" points=" 1149 152 1159 148 1156 159 1154 154" /><path style="fill:none; stroke:#000000;stroke-width:1" d="M1220.0 147.0 L1270.0 201.0" /><polygon style="fill:#000000; stroke:#000000;" points=" 1267 190 1270 201 1260 197 1265 195" /><path style="fill:none; stroke:#000000;stroke-width:1" d="M1220.0 143.0 L1439.0 359.0" /><polygon style="fill:#000000; stroke:#000000;" points=" 1435 348 1439 359 1428 356 1433 353" /><path style="fill:none; stroke:#000000;stroke-width:1" d="M1376.0 306.0 L1435.0 359.0" /><polygon style="fill:#000000; stroke:#000000;" points=" 1431 349 1435 359 1424 356 1429 354" /><path style="fill:none; stroke:#000000;stroke-width:1" d="M2027.0 444.0 L2144.0 645.0" /><polygon style="fill:#000000; stroke:#000000;" points=" 2143 634 2144 645 2135 639 2140 638" /><path style="fill:none; stroke:#000000;stroke-width:1" d="M1740.0 273.0 L1949.0 375.0" /><polygon style="fill:#000000; stroke:#000000;" points=" 1942 366 1949 375 1938 375 1942 371" /><path style="fill:none; stroke:#000000;stroke-width:1" d="M1346.0 711.0 L1519.0 780.0" /><polygon style="fill:#000000; stroke:#000000;" points=" 1512 772 1519 780 1508 781 1512 777" /><path style="fill:none; stroke:#000000;stroke-width:1" d="M1399.0 578.0 L1333.0 647.0" /><polygon style="fill:#000000; stroke:#000000;" points=" 1344 643 1333 647 1336 636 1339 641" /><path style="fill:none; stroke:#000000;stroke-dasharray:2" d="M1365.0 839.0 L1519.0 811.0" /><path style="fill:none; stroke:#000000;stroke-width:1" d="M1981.0 925.0 L2139.0 728.0" /><polygon style="fill:#000000; stroke:#000000;" points=" 2129 733 2139 728 2137 739 2134 734" /><path style="fill:none; stroke:#000000;stroke-width:1" d="M2200.0 689.0 L2370.0 689.0" /><polygon style="fill:#000000; stroke:#000000;" points=" 2360 684 2370 689 2360 694 2362 689" /><path style="fill:none; stroke:#000000;stroke-width:1" d="M1679.0 289.0 L1460.0 514.0" /><polygon style="fill:#000000; stroke:#000000;" points=" 1471 510 1460 514 1463 503 1466 508" /><path style="fill:none; stroke:#000000;stroke-width:1" d="M1536.0 368.0 L1679.0 277.0" /><polygon style="fill:#000000; stroke:#000000;" points=" 1668 278 1679 277 1673 287 1672 281" /><path style="fill:none; stroke:#000000;stroke-width:1" d="M1460.0 575.0 L1528.0 639.0" /><polygon style="fill:#000000; stroke:#000000;" points=" 1524 629 1528 639 1517 636 1522 634" /><path style="fill:none; stroke:#000000;stroke-dasharray:2" d="M1365.0 815.0 L1519.0 716.0" /><path style="fill:none; stroke:#000000;stroke-width:1" d="M1626.0 824.0 L1899.0 938.0" /><polygon style="fill:#000000; stroke:#000000;" points=" 1892 930 1899 938 1888 939 1892 935" /><path style="fill:none; stroke:#000000;stroke-width:1" d="M1626.0 721.0 L1904.0 925.0" /><polygon style="fill:#000000; stroke:#000000;" points=" 1899 915 1904 925 1893 923 1898 920" /><defs><linearGradient xmlns:xlink="http://www.w3.org/1999/xlink" xlink:href="#linearGradient66FF6696FF96B6FFB6" id="linearGradient66FF6696FF96B6FFB6_1547945114" x1="0" y1="384.0" x2="0" y2="419.0" gradientUnits="userSpaceOnUse" xlink:type="simple" xlink:actuate="onLoad" xlink:show="other" /><linearGradient id="linearGradient66FF6696FF96B6FFB6"><stop style="stop-color:#66FF66;stop-opacity:1;" offset="0.0" id="stop66FF66" /><stop style="stop-color:#96FF96;stop-opacity:1;" offset="0.5" id="stop96FF96" /><stop style="stop-color:#B6FFB6;stop-opacity:1;" offset="1.0" id="stopB6FFB6" /></linearGradient><linearGradient xmlns:xlink="http://www.w3.org/1999/xlink" xlink:href="#linearGradientF8FBFEEDF5FCDEEDFAD4E7F8E2E5E9" id="linearGradientF8FBFEEDF5FCDEEDFAD4E7F8E2E5E9_1384391010" x1="0" y1="504.0" x2="0" y2="610.0" gradientUnits="userSpaceOnUse" xlink:type="simple" xlink:actuate="onLoad" xlink:show="other" /><linearGradient id="linearGradientF8FBFEEDF5FCDEEDFAD4E7F8E2E5E9"><stop style="stop-color:#F8FBFE;stop-opacity:1;" offset="0.0" id="stopF8FBFE" /><stop style="stop-color:#EDF5FC;stop-opacity:1;" offset="0.25" id="stopEDF5FC" /><stop style="stop-color:#DEEDFA;stop-opacity:1;" offset="0.5" id="stopDEEDFA" /><stop style="stop-color:#D4E7F8;stop-opacity:1;" offset="0.75" id="stopD4E7F8" /><stop style="stop-color:#E2E5E9;stop-opacity:1;" offset="1.0" id="stopE2E5E9" /></linearGradient><linearGradient xmlns:xlink="http://www.w3.org/1999/xlink" xlink:href="#linearGradientFAFBFCFFFFCC" id="linearGradientFAFBFCFFFFCC_1455140842" x1="0" y1="56.0" x2="0" y2="116.0" gradientUnits="userSpaceOnUse" xlink:type="simple" xlink:actuate="onLoad" xlink:show="other" /><linearGradient id="linearGradientFAFBFCFFFFCC"><stop style="stop-color:#FAFBFC;stop-opacity:1;" offset="0.0" id="stopFAFBFC" /><stop style="stop-color:#FFFFCC;stop-opacity:1;" offset="1.0" id="stopFFFFCC" /></linearGradient><linearGradient xmlns:xlink="http://www.w3.org/1999/xlink" xlink:href="#linearGradientF8FBFEEDF5FCDEEDFAD4E7F8E2E5E9" id="linearGradientF8FBFEEDF5FCDEEDFAD4E7F8E2E5E9_330902361" x1="0" y1="195.0" x2="0" y2="301.0" gradientUnits="userSpaceOnUse" xlink:type="simple" xlink:actuate="onLoad" xlink:show="other" /><linearGradient xmlns:xlink="http://www.w3.org/1999/xlink" xlink:href="#linearGradientFAFBFCFFFFCC" id="linearGradientFAFBFCFFFFCC_1360812704" x1="0" y1="56.0" x2="0" y2="116.0" gradientUnits="userSpaceOnUse" xlink:type="simple" xlink:actuate="onLoad" xlink:show="other" /><linearGradient xmlns:xlink="http://www.w3.org/1999/xlink" xlink:href="#linearGradientF8FBFEEDF5FCDEEDFAD4E7F8E2E5E9" id="linearGradientF8FBFEEDF5FCDEEDFAD4E7F8E2E5E9_585170640" x1="0" y1="58.0" x2="0" y2="164.0" gradientUnits="userSpaceOnUse" xlink:type="simple" xlink:actuate="onLoad" xlink:show="other" /><linearGradient xmlns:xlink="http://www.w3.org/1999/xlink" xlink:href="#linearGradientF8FBFEEDF5FCDEEDFAD4E7F8E2E5E9" id="linearGradientF8FBFEEDF5FCDEEDFAD4E7F8E2E5E9_699388313" x1="0" y1="195.0" x2="0" y2="301.0" gradientUnits="userSpaceOnUse" xlink:type="simple" xlink:actuate="onLoad" xlink:show="other" /><linearGradient xmlns:xlink="http://www.w3.org/1999/xlink" xlink:href="#linearGradientF8FBFEEDF5FCDEEDFAD4E7F8E2E5E9" id="linearGradientF8FBFEEDF5FCDEEDFAD4E7F8E2E5E9_1939264534" x1="0" y1="367.0" x2="0" y2="473.0" gradientUnits="userSpaceOnUse" xlink:type="simple" xlink:actuate="onLoad" xlink:show="other" /><linearGradient xmlns:xlink="http://www.w3.org/1999/xlink" xlink:href="#linearGradientFAFBFCFFFFCC" id="linearGradientFAFBFCFFFFCC_1080842654" x1="0" y1="56.0" x2="0" y2="116.0" gradientUnits="userSpaceOnUse" xlink:type="simple" xlink:actuate="onLoad" xlink:show="other" /><linearGradient xmlns:xlink="http://www.w3.org/1999/xlink" xlink:href="#linearGradientF8FBFEEDF5FCDEEDFAD4E7F8E2E5E9" id="linearGradientF8FBFEEDF5FCDEEDFAD4E7F8E2E5E9_1709123901" x1="0" y1="202.0" x2="0" y2="308.0" gradientUnits="userSpaceOnUse" xlink:type="simple" xlink:actuate="onLoad" xlink:show="other" /><linearGradient xmlns:xlink="http://www.w3.org/1999/xlink" xlink:href="#linearGradientFAFBFCFFFFCC" id="linearGradientFAFBFCFFFFCC_850075398" x1="0" y1="56.0" x2="0" y2="116.0" gradientUnits="userSpaceOnUse" xlink:type="simple" xlink:actuate="onLoad" xlink:show="other" /><linearGradient xmlns:xlink="http://www.w3.org/1999/xlink" xlink:href="#linearGradientF8FBFEEDF5FCDEEDFAD4E7F8E2E5E9" id="linearGradientF8FBFEEDF5FCDEEDFAD4E7F8E2E5E9_2010663713" x1="0" y1="202.0" x2="0" y2="308.0" gradientUnits="userSpaceOnUse" xlink:type="simple" xlink:actuate="onLoad" xlink:show="other" /><linearGradient xmlns:xlink="http://www.w3.org/1999/xlink" xlink:href="#linearGradientF8FBFEEDF5FCDEEDFAD4E7F8E2E5E9" id="linearGradientF8FBFEEDF5FCDEEDFAD4E7F8E2E5E9_1440369901" x1="0" y1="360.0" x2="0" y2="466.0" gradientUnits="userSpaceOnUse" xlink:type="simple" xlink:actuate="onLoad" xlink:show="other" /><linearGradient xmlns:xlink="http://www.w3.org/1999/xlink" xlink:href="#linearGradientF8FBFEEDF5FCDEEDFAD4E7F8E2E5E9" id="linearGradientF8FBFEEDF5FCDEEDFAD4E7F8E2E5E9_1238368682" x1="0" y1="648.0" x2="0" y2="754.0" gradientUnits="userSpaceOnUse" xlink:type="simple" xlink:actuate="onLoad" xlink:show="other" /><linearGradient xmlns:xlink="http://www.w3.org/1999/xlink" xlink:href="#linearGradientF8FBFEEDF5FCDEEDFAD4E7F8E2E5E9" id="linearGradientF8FBFEEDF5FCDEEDFAD4E7F8E2E5E9_602502329" x1="0" y1="760.0" x2="0" y2="866.0" gradientUnits="userSpaceOnUse" xlink:type="simple" xlink:actuate="onLoad" xlink:show="other" /><linearGradient xmlns:xlink="http://www.w3.org/1999/xlink" xlink:href="#linearGradientF8FBFEEDF5FCDEEDFAD4E7F8E2E5E9" id="linearGradientF8FBFEEDF5FCDEEDFAD4E7F8E2E5E9_383627942" x1="0" y1="926.0" x2="0" y2="1032.0" gradientUnits="userSpaceOnUse" xlink:type="simple" xlink:actuate="onLoad" xlink:show="other" /><linearGradient xmlns:xlink="http://www.w3.org/1999/xlink" xlink:href="#linearGradientFF6666FF9696FFB6B6" id="linearGradientFF6666FF9696FFB6B6_291977652" x1="0" y1="672.0" x2="0" y2="707.0" gradientUnits="userSpaceOnUse" xlink:type="simple" xlink:actuate="onLoad" xlink:show="other" /><linearGradient id="linearGradientFF6666FF9696FFB6B6"><stop style="stop-color:#FF6666;stop-opacity:1;" offset="0.0" id="stopFF6666" /><stop style="stop-color:#FF9696;stop-opacity:1;" offset="0.5" id="stopFF9696" /><stop style="stop-color:#FFB6B6;stop-opacity:1;" offset="1.0" id="stopFFB6B6" /></linearGradient><linearGradient xmlns:xlink="http://www.w3.org/1999/xlink" xlink:href="#linearGradientFAFBFCFFFFCC" id="linearGradientFAFBFCFFFFCC_1483974499" x1="0" y1="646.0" x2="0" y2="706.0" gradientUnits="userSpaceOnUse" xlink:type="simple" xlink:actuate="onLoad" xlink:show="other" /><linearGradient xmlns:xlink="http://www.w3.org/1999/xlink" xlink:href="#linearGradientFAFBFCFFFFCC" id="linearGradientFAFBFCFFFFCC_811031656" x1="0" y1="214.0" x2="0" y2="274.0" gradientUnits="userSpaceOnUse" xlink:type="simple" xlink:actuate="onLoad" xlink:show="other" /><linearGradient xmlns:xlink="http://www.w3.org/1999/xlink" xlink:href="#linearGradientFAFBFCFFFFCC" id="linearGradientFAFBFCFFFFCC_1264881734" x1="0" y1="344.0" x2="0" y2="404.0" gradientUnits="userSpaceOnUse" xlink:type="simple" xlink:actuate="onLoad" xlink:show="other" /><linearGradient xmlns:xlink="http://www.w3.org/1999/xlink" xlink:href="#linearGradientFAFBFCFFFFCC" id="linearGradientFAFBFCFFFFCC_1667672583" x1="0" y1="488.0" x2="0" y2="548.0" gradientUnits="userSpaceOnUse" xlink:type="simple" xlink:actuate="onLoad" xlink:show="other" /><linearGradient xmlns:xlink="http://www.w3.org/1999/xlink" xlink:href="#linearGradientF8FBFEEDF5FCDEEDFAD4E7F8E2E5E9" id="linearGradientF8FBFEEDF5FCDEEDFAD4E7F8E2E5E9_652951991" x1="0" y1="360.0" x2="0" y2="466.0" gradientUnits="userSpaceOnUse" xlink:type="simple" xlink:actuate="onLoad" xlink:show="other" /><linearGradient xmlns:xlink="http://www.w3.org/1999/xlink" xlink:href="#linearGradientFAFBFCFFFFCC" id="linearGradientFAFBFCFFFFCC_752217374" x1="0" y1="495.0" x2="0" y2="555.0" gradientUnits="userSpaceOnUse" xlink:type="simple" xlink:actuate="onLoad" xlink:show="other" /><linearGradient xmlns:xlink="http://www.w3.org/1999/xlink" xlink:href="#linearGradientF8FBFEEDF5FCDEEDFAD4E7F8E2E5E9" id="linearGradientF8FBFEEDF5FCDEEDFAD4E7F8E2E5E9_1130151522" x1="0" y1="640.0" x2="0" y2="746.0" gradientUnits="userSpaceOnUse" xlink:type="simple" xlink:actuate="onLoad" xlink:show="other" /></defs></svg>
